<svg width="749" height="1142" viewBox="0 0 749 1142" fill="none" xmlns="http://www.w3.org/2000/svg">
<path d="M629.351 844.88C629.351 915.534 572.071 972.814 501.431 972.814H247.898C177.258 972.814 119.965 915.534 119.965 844.88V470.334C119.965 399.68 177.258 342.4 247.898 342.4H501.431C572.071 342.4 629.351 399.68 629.351 470.334V844.88ZM739.058 743.107C735.138 652.094 734.258 560.947 736.431 469.854C738.271 392.254 736.485 319.987 677.578 261.067C641.991 225.52 601.258 210.24 585.418 205.32L584.085 204.934C568.618 200.56 557.498 187.067 556.418 171.36C555.658 160.547 555.551 149.227 555.458 131.827C555.338 104.987 557.725 77.9337 562.591 51.4137C563.898 44.3471 561.605 37.227 556.645 32.8137C552.991 29.547 548.285 27.7603 543.365 27.7603C534.178 27.7603 525.565 36.6537 523.311 48.4403C519.845 66.6803 518.325 81.2403 516.578 98.0936C515.565 107.934 514.405 119.107 512.711 132.2C511.005 145.454 509.471 155.654 507.871 164.294C504.578 182.2 488.978 195.214 470.818 195.214H430.738C411.005 195.214 394.858 180.36 393.178 160.68C392.578 153.414 392.111 145.454 391.591 136.254C391.271 130.4 390.898 124.107 390.458 117.347C389.298 99.347 389.845 76.8804 390.378 55.1604C390.671 43.0271 390.951 31.5737 390.938 21.3737C390.938 19.587 390.551 13.4003 385.525 8.36034C382.778 5.627 379.351 3.88038 375.645 3.24038V3.00039C375.311 3.02706 374.991 3.067 374.658 3.107C374.338 3.067 374.018 3.02706 373.685 3.00039V3.24038C369.978 3.88038 366.551 5.627 363.805 8.36034C358.778 13.4003 358.391 19.587 358.391 21.3737C358.365 31.5737 358.645 43.0271 358.938 55.1604C359.471 76.8804 360.031 99.347 358.871 117.347C358.431 124.107 358.058 130.4 357.725 136.254C357.205 145.454 356.751 153.414 356.138 160.68C354.471 180.36 338.325 195.214 318.591 195.214H278.511C260.338 195.214 244.751 182.2 241.445 164.294C239.845 155.654 238.325 145.454 236.605 132.2C234.911 119.107 233.751 107.934 232.738 98.0936C230.991 81.2403 229.485 66.6803 226.005 48.4403C223.765 36.6537 215.138 27.7603 205.951 27.7603C201.045 27.7603 196.325 29.547 192.685 32.8137C187.711 37.227 185.431 44.3471 186.738 51.4137C191.591 77.9337 193.991 104.987 193.858 131.827C193.765 149.227 193.658 160.547 192.898 171.36C191.818 187.067 180.698 200.56 165.231 204.934L163.911 205.32C148.058 210.24 107.338 225.52 71.7514 261.067C12.8447 319.987 11.0581 392.254 12.8981 469.854C15.0714 560.947 14.1781 652.094 10.2581 743.107C6.13808 838.414 -14.0886 944.12 38.4714 1030.65C58.1648 1063.09 85.9648 1090.23 118.858 1109.15C152.751 1128.63 191.445 1138.93 230.791 1138.93H518.525C557.871 1138.93 596.565 1128.63 630.458 1109.15C663.365 1090.23 691.165 1063.09 710.858 1030.65C763.418 944.12 743.191 838.414 739.058 743.107Z" stroke="#D00000" stroke-width="5"/>
<path fill-rule="evenodd" clip-rule="evenodd" d="M629.351 844.88V470.333C629.351 399.68 572.071 342.4 501.431 342.4H247.898C177.258 342.4 119.965 399.68 119.965 470.333V844.88C119.965 915.534 177.258 972.813 247.898 972.813H501.431C572.071 972.813 629.351 915.534 629.351 844.88ZM374.658 844.693C374.658 844.693 511.978 727.373 536.351 668.373C601.858 532.133 441.325 390 374.658 560.427C307.938 389.933 147.458 532.267 212.978 668.373C237.351 727.373 374.658 844.693 374.658 844.693Z" fill="white"/>
<path d="M536.351 668.373L534.041 667.419L534.068 667.354L534.098 667.29L536.351 668.373ZM374.658 844.693L376.282 846.594L374.658 847.982L373.034 846.594L374.658 844.693ZM374.658 560.427L376.986 561.337L374.659 567.288L372.33 561.338L374.658 560.427ZM212.978 668.373L215.231 667.289L215.262 667.353L215.289 667.419L212.978 668.373ZM631.851 470.333V844.88H626.851V470.333H631.851ZM501.431 339.9C573.452 339.9 631.851 398.3 631.851 470.333H626.851C626.851 401.061 570.691 344.9 501.431 344.9V339.9ZM247.898 339.9H501.431V344.9H247.898V339.9ZM117.465 470.333C117.465 398.299 175.878 339.9 247.898 339.9V344.9C178.639 344.9 122.465 401.061 122.465 470.333H117.465ZM117.465 844.88V470.333H122.465V844.88H117.465ZM247.898 975.313C175.878 975.313 117.465 916.914 117.465 844.88H122.465C122.465 914.153 178.639 970.313 247.898 970.313V975.313ZM501.431 975.313H247.898V970.313H501.431V975.313ZM631.851 844.88C631.851 916.914 573.452 975.313 501.431 975.313V970.313C570.691 970.313 626.851 914.153 626.851 844.88H631.851ZM538.662 669.328C532.411 684.459 519.039 703.103 502.714 722.427C486.343 741.805 466.833 762.061 448.116 780.442C429.395 798.827 411.44 815.362 398.167 827.299C391.53 833.268 386.062 838.089 382.251 841.419C380.346 843.084 378.855 844.377 377.84 845.254C377.333 845.692 376.944 846.026 376.682 846.252C376.55 846.364 376.451 846.449 376.384 846.507C376.351 846.535 376.325 846.557 376.308 846.572C376.3 846.579 376.293 846.585 376.289 846.588C376.287 846.59 376.285 846.592 376.284 846.593C376.283 846.594 376.282 846.594 374.658 844.693C373.034 842.793 373.035 842.792 373.035 842.792C373.036 842.791 373.038 842.789 373.04 842.788C373.044 842.784 373.05 842.779 373.058 842.772C373.074 842.758 373.099 842.737 373.131 842.709C373.197 842.653 373.294 842.57 373.424 842.458C373.683 842.236 374.068 841.905 374.572 841.469C375.58 840.599 377.064 839.313 378.961 837.655C382.756 834.338 388.206 829.533 394.823 823.581C408.06 811.677 425.958 795.194 444.613 776.875C463.273 758.55 482.663 738.414 498.895 719.201C515.172 699.934 528.105 681.787 534.041 667.419L538.662 669.328ZM372.33 559.516C389.145 516.53 412.083 492.734 436.405 483.886C460.785 475.018 485.942 481.391 506.603 497.425C547.827 529.419 571.86 600.293 538.604 669.457L534.098 667.29C566.35 600.214 542.869 531.901 503.537 501.375C483.919 486.149 460.537 480.429 438.114 488.585C415.634 496.763 393.505 519.11 376.986 561.337L372.33 559.516ZM210.726 669.458C177.462 600.359 201.48 529.47 242.694 497.451C263.35 481.404 288.505 475.016 312.888 483.877C337.213 492.717 360.158 516.514 376.986 559.516L372.33 561.338C355.798 519.093 333.663 496.746 311.18 488.576C288.756 480.427 265.376 486.161 245.762 501.399C206.437 531.95 182.974 600.281 215.231 667.289L210.726 669.458ZM374.658 844.693C373.034 846.594 373.033 846.593 373.032 846.592C373.031 846.592 373.029 846.59 373.027 846.588C373.023 846.584 373.016 846.579 373.008 846.572C372.991 846.557 372.966 846.535 372.932 846.507C372.865 846.449 372.766 846.364 372.635 846.251C372.372 846.026 371.984 845.692 371.476 845.253C370.461 844.377 368.97 843.084 367.065 841.419C363.255 838.089 357.788 833.268 351.151 827.299C337.88 815.362 319.926 798.827 301.206 780.442C282.491 762.061 262.983 741.805 246.613 722.427C230.289 703.103 216.918 684.459 210.667 669.328L215.289 667.419C221.224 681.787 234.157 699.934 250.433 719.201C266.663 738.414 286.052 758.55 304.71 776.875C323.363 795.194 341.26 811.677 354.495 823.581C361.112 829.533 366.562 834.338 370.356 837.655C372.253 839.313 373.736 840.599 374.744 841.469C375.248 841.905 375.634 842.236 375.892 842.459C376.022 842.57 376.12 842.654 376.185 842.709C376.218 842.737 376.242 842.758 376.258 842.772C376.266 842.779 376.272 842.784 376.276 842.788C376.278 842.79 376.28 842.791 376.281 842.792C376.282 842.792 376.282 842.793 374.658 844.693Z" fill="#D00000"/>
</svg>
