<svg width="743" height="1136" viewBox="0 0 743 1136" fill="none" xmlns="http://www.w3.org/2000/svg">
  <path fill-rule="evenodd" clip-rule="evenodd"
    d="M743 0H0V875.904C0.0101318 847.817 2.04456 819.467 4.04895 791.535C5.29468 774.176 6.52869 756.978 7.25806 740.107C11.1781 649.094 12.0714 557.947 9.89807 466.854C8.05811 389.254 9.84473 316.987 68.7515 258.067C104.338 222.52 145.058 207.24 160.911 202.32L162.231 201.934C177.698 197.56 188.818 184.067 189.898 168.36C190.658 157.547 190.765 146.227 190.858 128.827C190.991 101.987 188.591 74.9337 183.738 48.4137C182.431 41.347 184.711 34.2271 189.685 29.8137C193.325 26.547 198.045 24.7604 202.951 24.7604C212.138 24.7604 220.765 33.6537 223.005 45.4403C226.48 63.6532 227.987 78.1968 229.73 95.0186L229.731 95.0208L229.738 95.0936C230.751 104.934 231.911 116.107 233.605 129.2C235.325 142.454 236.845 152.654 238.445 161.294C241.751 179.2 257.338 192.214 275.511 192.214H315.591C335.325 192.214 351.471 177.36 353.138 157.68C353.751 150.414 354.205 142.454 354.725 133.254C355.058 127.4 355.431 121.107 355.871 114.347C357.026 96.4391 356.477 74.11 355.946 52.4937L355.938 52.1604L355.928 51.7606C355.639 39.7755 355.365 28.4615 355.391 18.3737C355.391 16.587 355.778 10.4004 360.805 5.36035C363.552 2.62708 366.978 0.880371 370.685 0.240356V0.000366211C371.018 0.0269775 371.338 0.0670166 371.658 0.107056C371.991 0.0670166 372.312 0.0269775 372.645 0.000366211V0.240356C376.351 0.880371 379.778 2.62708 382.525 5.36035C387.552 10.4004 387.938 16.587 387.938 18.3737C387.951 28.4536 387.678 39.7579 387.388 51.7327L387.378 52.1604C386.845 73.8804 386.298 96.347 387.458 114.347C387.898 121.107 388.271 127.4 388.591 133.254C389.111 142.454 389.578 150.414 390.178 157.68C391.858 177.36 408.005 192.214 427.738 192.214H467.818C485.978 192.214 501.578 179.2 504.871 161.294C506.471 152.654 508.005 142.454 509.711 129.2C511.405 116.107 512.565 104.934 513.578 95.0936C515.325 78.2402 516.845 63.6803 520.312 45.4403C522.565 33.6537 531.178 24.7604 540.365 24.7604C545.285 24.7604 549.991 26.547 553.645 29.8137C558.605 34.2271 560.898 41.347 559.591 48.4137C554.725 74.9337 552.338 101.987 552.458 128.827C552.552 146.227 552.658 157.547 553.418 168.36C554.498 184.067 565.618 197.56 581.085 201.934L582.418 202.32C598.258 207.24 638.991 222.52 674.578 258.067C733.485 316.987 735.271 389.254 733.431 466.854C731.258 557.947 732.138 649.094 736.058 740.107C736.789 756.966 738.024 774.15 739.27 791.496C740.798 812.76 742.344 834.268 743 855.717V0ZM743 894.928C741.319 941.377 732.754 986.666 707.858 1027.65C688.165 1060.09 660.365 1087.23 627.458 1106.15C593.565 1125.63 554.871 1135.93 515.525 1135.93H227.791C188.445 1135.93 149.751 1125.63 115.858 1106.15C82.9647 1087.23 55.1648 1060.09 35.4714 1027.65C7.26196 981.21 0.019165 929.244 0 876.327V1136H743V894.928Z"
    fill="#f3f2f1" />
</svg>