<svg width="13" height="12" viewBox="0 0 13 12" fill="none" xmlns="http://www.w3.org/2000/svg">
<g clip-path="url(#clip0_4363_5225)">
<path d="M8.49972 3.99991C8.40596 3.90617 8.27881 3.85352 8.14622 3.85352C8.01364 3.85352 7.88649 3.90617 7.79272 3.99991L6.49973 5.29291L5.20673 3.99991C5.11243 3.90883 4.98613 3.85843 4.85503 3.85957C4.72393 3.86071 4.59853 3.9133 4.50582 4.006C4.41312 4.0987 4.36053 4.22411 4.35939 4.35521C4.35825 4.48631 4.40865 4.61261 4.49973 4.70691L5.79273 5.99991L4.49973 7.29291C4.40865 7.38721 4.35825 7.51351 4.35939 7.64461C4.36053 7.77571 4.41312 7.90111 4.50582 7.99382C4.59853 8.08652 4.72393 8.13911 4.85503 8.14025C4.98613 8.14138 5.11243 8.09099 5.20673 7.99991L6.49973 6.70691L7.79272 7.99991C7.88703 8.09099 8.01333 8.14138 8.14442 8.14025C8.27552 8.13911 8.40093 8.08652 8.49363 7.99382C8.58634 7.90111 8.63892 7.77571 8.64006 7.64461C8.6412 7.51351 8.5908 7.38721 8.49972 7.29291L7.20673 5.99991L8.49972 4.70691C8.59346 4.61314 8.64612 4.48599 8.64612 4.35341C8.64612 4.22083 8.59346 4.09367 8.49972 3.99991Z" fill="#52575C"/>
<path d="M6.5 0C5.31331 0 4.15328 0.351894 3.16658 1.01118C2.17989 1.67047 1.41085 2.60754 0.956726 3.7039C0.5026 4.80026 0.38378 6.00666 0.615291 7.17054C0.846802 8.33443 1.41825 9.40353 2.25736 10.2426C3.09648 11.0818 4.16558 11.6532 5.32946 11.8847C6.49335 12.1162 7.69975 11.9974 8.7961 11.5433C9.89246 11.0892 10.8295 10.3201 11.4888 9.33342C12.1481 8.34673 12.5 7.18669 12.5 6C12.4983 4.40923 11.8656 2.88411 10.7407 1.75926C9.6159 0.634414 8.09077 0.00172054 6.5 0V0ZM6.5 11C5.5111 11 4.5444 10.7068 3.72215 10.1573C2.89991 9.60794 2.25904 8.82705 1.88061 7.91342C1.50217 6.99979 1.40315 5.99445 1.59608 5.02455C1.789 4.05464 2.26521 3.16373 2.96447 2.46447C3.66373 1.7652 4.55465 1.289 5.52455 1.09607C6.49446 0.903148 7.49979 1.00216 8.41342 1.3806C9.32705 1.75904 10.1079 2.3999 10.6574 3.22215C11.2068 4.0444 11.5 5.01109 11.5 6C11.4985 7.32564 10.9713 8.59656 10.0339 9.53393C9.09656 10.4713 7.82564 10.9985 6.5 11V11Z" fill="#52575C"/>
</g>
<defs>
<clipPath id="clip0_4363_5225">
<rect width="12" height="12" fill="white" transform="translate(0.5)"/>
</clipPath>
</defs>
</svg>
