<svg width="272" height="200" viewBox="0 0 272 200" fill="none" xmlns="http://www.w3.org/2000/svg">
<path d="M153.602 26.4053C157.442 31.3414 162.72 34.9215 167.499 38.9517C187.064 55.458 200.929 79.6071 201.705 105.194C202.48 130.78 188.713 157.132 165.627 168.192C144.473 178.319 115.973 178.682 96.5976 165.48C87.6258 159.399 76.8748 149.765 73.0778 138.157C69.4923 127.244 51.4239 72.6206 125.151 34.0644C143.48 24.4796 144.451 12.4376 148.036 15.8495C149.599 17.3141 149.593 21.2576 153.602 26.4053Z" fill="#BB0A08"/>
<path opacity="0.9" d="M153.602 26.4053C157.442 31.3414 162.72 34.9215 167.499 38.9517C187.064 55.458 200.929 79.6071 201.705 105.194C202.48 130.78 188.713 157.132 165.627 168.192C144.473 178.319 115.973 178.682 96.5976 165.48C87.6258 159.399 76.8748 149.765 73.0778 138.157C69.4923 127.244 51.4239 72.6206 125.151 34.0644C143.48 24.4796 144.451 12.4376 148.036 15.8495C149.599 17.3141 149.593 21.2576 153.602 26.4053Z" fill="white"/>
<path d="M133.387 200C191.472 200 238.559 197.251 238.559 193.86C238.559 190.469 191.472 187.72 133.387 187.72C75.302 187.72 28.2148 190.469 28.2148 193.86C28.2148 197.251 75.302 200 133.387 200Z" fill="#F5F5F5"/>
<path d="M138.627 145.246C138.627 145.246 138.627 157.348 149.052 163.147C159.478 168.945 193.478 144.248 192.876 145.246C192.273 146.244 138.627 145.246 138.627 145.246Z" fill="#263238"/>
<path opacity="0.2" d="M138.627 145.246C138.627 145.246 138.627 157.348 149.052 163.147C159.478 168.945 193.478 144.248 192.876 145.246C192.273 146.244 138.627 145.246 138.627 145.246Z" fill="white"/>
<path d="M149.378 93.048C140.911 93.3246 131.787 93.5904 123.341 93.8725C121.535 91.5996 120.616 88.7479 120.756 85.8481C120.896 82.9483 122.084 80.198 124.101 78.1094C124.978 77.2088 126.025 76.4916 127.182 75.9993C131.44 74.1333 137.092 74.9904 141.041 77.5778C145.245 80.3388 147.854 85.1719 148.928 90.1677C149.133 91.1183 149.284 92.08 149.378 93.048Z" fill="#BB0A08"/>
<path opacity="0.5" d="M149.378 93.048C140.911 93.3246 131.787 93.5904 123.341 93.8725C121.535 91.5996 120.616 88.7479 120.756 85.8481C120.896 82.9483 122.084 80.198 124.101 78.1094C124.978 77.2088 126.025 76.4916 127.182 75.9993C131.44 74.1333 137.092 74.9904 141.041 77.5778C145.245 80.3388 147.854 85.1719 148.928 90.1677C149.133 91.1183 149.284 92.08 149.378 93.048Z" fill="white"/>
<path opacity="0.5" d="M148.929 90.1628L127.188 90.8517C125.508 88.74 124.594 86.1213 124.594 83.423C124.594 80.7248 125.508 78.1062 127.188 75.9944C131.446 74.1285 137.098 74.9855 141.047 77.5729C145.224 80.3339 147.854 85.1615 148.929 90.1628Z" fill="white"/>
<path d="M202.249 142.241C202.248 143.807 201.625 145.308 200.517 146.415C199.409 147.521 197.908 148.143 196.342 148.143H144.523L117.64 98.1796C117.161 97.299 116.91 96.3127 116.908 95.3101C116.913 94.7922 116.98 94.2768 117.109 93.775C117.397 92.6723 117.989 91.673 118.819 90.892C119.649 90.111 120.683 89.5798 121.801 89.3596C122.19 89.2783 122.586 89.2383 122.983 89.2403H149.563C151.573 89.2419 153.541 89.823 155.231 90.9139C156.92 92.0048 158.259 93.5593 159.088 95.3915L167.224 113.417L178.273 135.515C178.273 135.515 190.82 135.938 196.646 135.515C202.471 135.092 202.249 142.241 202.249 142.241Z" fill="#BB0A08"/>
<path opacity="0.5" d="M202.249 142.241C202.248 143.807 201.625 145.308 200.517 146.415C199.409 147.521 197.908 148.143 196.342 148.143H144.523L117.64 98.1796C117.161 97.299 116.91 96.3127 116.908 95.3101C116.913 94.7922 116.98 94.2768 117.109 93.775C117.397 92.6723 117.989 91.673 118.819 90.892C119.649 90.111 120.683 89.5798 121.801 89.3596C122.19 89.2783 122.586 89.2383 122.983 89.2403H149.563C151.573 89.2419 153.541 89.823 155.231 90.9139C156.92 92.0048 158.259 93.5593 159.088 95.3915L167.224 113.417L178.273 135.515C178.273 135.515 190.82 135.938 196.646 135.515C202.471 135.092 202.249 142.241 202.249 142.241Z" fill="white"/>
<path opacity="0.5" d="M172.931 142.241C172.931 143.806 172.309 145.307 171.202 146.414C170.095 147.521 168.594 148.143 167.029 148.143H144.523L117.64 98.1793C117.161 97.2987 116.91 96.3124 116.908 95.3099C116.913 94.7919 116.98 94.2765 117.109 93.7748C117.397 92.672 117.989 91.6727 118.819 90.8917C119.649 90.1107 120.683 89.5796 121.801 89.3594C123.525 89.6206 125.157 90.3095 126.547 91.3631C127.937 92.4167 129.041 93.8015 129.758 95.3912L137.895 113.416L148.944 135.515C148.944 135.515 161.485 135.938 167.311 135.515C173.137 135.092 172.931 142.241 172.931 142.241Z" fill="white"/>
<path d="M209.301 148.626H144.306C143.446 148.626 142.593 148.457 141.798 148.127C141.002 147.797 140.28 147.314 139.671 146.705C139.063 146.096 138.58 145.373 138.251 144.577C137.922 143.782 137.753 142.929 137.754 142.068C137.754 140.33 138.444 138.664 139.673 137.435C140.902 136.206 142.569 135.516 144.306 135.516H209.301C210.162 135.515 211.014 135.684 211.81 136.013C212.605 136.342 213.328 136.824 213.938 137.433C214.547 138.041 215.03 138.764 215.359 139.559C215.689 140.355 215.859 141.207 215.859 142.068C215.859 143.808 215.168 145.476 213.938 146.705C212.708 147.935 211.04 148.626 209.301 148.626Z" fill="#BB0A08"/>
<path opacity="0.5" d="M215.853 142.068C215.853 143.806 215.163 145.473 213.934 146.703C212.706 147.933 211.039 148.624 209.301 148.626H144.306C142.569 148.626 140.902 147.935 139.673 146.706C138.444 145.478 137.754 143.811 137.754 142.073C137.754 140.335 138.444 138.669 139.673 137.44C140.902 136.211 142.569 135.521 144.306 135.521H209.301C211.038 135.521 212.703 136.21 213.932 137.438C215.161 138.665 215.852 140.331 215.853 142.068Z" fill="white"/>
<path d="M243.002 164.497L221.554 138.086C220.89 137.268 220.035 136.627 219.065 136.218C218.094 135.81 217.038 135.646 215.989 135.743H188.737C187.088 135.601 185.449 136.105 184.164 137.148C182.845 138.218 182.005 139.769 181.829 141.458C181.653 143.148 182.156 144.838 183.226 146.158L204.679 172.574C205.278 173.312 206.033 173.907 206.891 174.316C207.749 174.726 208.687 174.938 209.637 174.939H237.979C239.195 174.951 240.389 174.617 241.422 173.976C242.455 173.335 243.284 172.413 243.813 171.318C244.341 170.222 244.547 169 244.406 167.792C244.266 166.584 243.784 165.441 243.018 164.497H243.002Z" fill="#BB0A08"/>
<path opacity="0.2" d="M213.683 173.507C213.031 174.037 212.28 174.433 211.475 174.673C210.669 174.913 209.824 174.992 208.988 174.905C208.152 174.819 207.341 174.568 206.602 174.168C205.862 173.768 205.209 173.226 204.679 172.574L183.226 146.157C182.156 144.838 181.653 143.148 181.829 141.458C182.005 139.769 182.845 138.218 184.164 137.148C184.817 136.617 185.568 136.221 186.373 135.981C187.179 135.741 188.025 135.662 188.861 135.749C189.697 135.836 190.508 136.088 191.248 136.489C191.987 136.89 192.64 137.432 193.169 138.086L214.622 164.497C215.152 165.15 215.549 165.901 215.789 166.708C216.029 167.514 216.108 168.36 216.021 169.196C215.933 170.033 215.682 170.845 215.281 171.584C214.88 172.324 214.337 172.977 213.683 173.507Z" fill="white"/>
<path opacity="0.5" d="M243.002 164.497L221.554 138.086C220.89 137.268 220.035 136.627 219.065 136.218C218.094 135.81 217.038 135.646 215.989 135.743H188.737C187.088 135.601 185.449 136.105 184.164 137.148C182.845 138.218 182.005 139.769 181.829 141.458C181.653 143.148 182.156 144.838 183.226 146.158L204.679 172.574C205.278 173.312 206.033 173.907 206.891 174.316C207.749 174.726 208.687 174.938 209.637 174.939H237.979C239.195 174.951 240.389 174.617 241.422 173.976C242.455 173.335 243.284 172.413 243.813 171.318C244.341 170.222 244.547 169 244.406 167.792C244.266 166.584 243.784 165.441 243.018 164.497H243.002Z" fill="white"/>
<path d="M122.836 189.927H118.285V194.478H122.836V189.927Z" fill="#263238"/>
<path d="M168.824 189.927H164.273V194.478H168.824V189.927Z" fill="#263238"/>
<path d="M163.834 189.927H159.283V194.478H163.834V189.927Z" fill="#263238"/>
<path d="M209.821 189.927H205.27V194.478H209.821V189.927Z" fill="#263238"/>
<path d="M193.093 189.926H124.068L137.89 162.062H193.093V189.926Z" fill="#263238"/>
<path opacity="0.2" d="M193.093 189.926H124.068L137.89 162.062H193.093V189.926Z" fill="white"/>
<path opacity="0.2" d="M164.306 189.926H124.068L137.89 162.062H164.306V189.926Z" fill="white"/>
<path d="M213.275 186.829H116.478L113.945 192.573H215.809L213.275 186.829Z" fill="#263238"/>
<path opacity="0.2" d="M171.091 186.829H116.478L113.945 192.573H170.244L171.091 186.829Z" fill="white"/>
<path d="M185.259 115.624H147.668C145.933 115.624 144.527 117.03 144.527 118.765V119.947C144.527 121.682 145.933 123.088 147.668 123.088H185.259C186.993 123.088 188.399 121.682 188.399 119.947V118.765C188.399 117.03 186.993 115.624 185.259 115.624Z" fill="#BB0A08"/>
<path opacity="0.5" d="M185.259 115.624H147.668C145.933 115.624 144.527 117.03 144.527 118.765V119.947C144.527 121.682 145.933 123.088 147.668 123.088H185.259C186.993 123.088 188.399 121.682 188.399 119.947V118.765C188.399 117.03 186.993 115.624 185.259 115.624Z" fill="white"/>
<path opacity="0.5" d="M188.394 119.334C188.394 118.345 188.001 117.395 187.301 116.696C186.601 115.996 185.652 115.603 184.662 115.603H148.259C147.27 115.603 146.32 115.996 145.62 116.696C144.921 117.395 144.527 118.345 144.527 119.334H188.394Z" fill="white"/>
<path d="M167.035 116.325C163.515 118.511 159.67 120.122 155.643 121.098L146.965 123.197C146.227 121.516 143.742 118.077 138.915 108.741C138.329 107.782 137.807 106.786 137.353 105.758C136.338 103.556 135.557 101.255 135.02 98.8908C134.704 97.5192 134.485 96.1272 134.364 94.725C134.366 94.7124 134.366 94.6996 134.364 94.687C134.217 94.3895 134.132 94.0658 134.112 93.7348C134.092 93.4038 134.139 93.0722 134.249 92.7594C134.359 92.4466 134.53 92.159 134.753 91.9135C134.976 91.6679 135.246 91.4693 135.546 91.3293H135.59C136.783 90.7326 138.302 90.0221 139.81 89.4254C142.698 88.2713 145.646 87.2718 148.641 86.4312C149.65 86.1881 150.674 86.0069 151.705 85.8887C152.414 85.7767 153.14 85.8436 153.816 86.0833C154.492 86.3229 155.098 86.7278 155.578 87.2611C157.699 89.5013 162.359 98.3321 167.035 116.325Z" fill="#263238"/>
<g opacity="0.7">
<path d="M163.486 104.347C161.365 104.787 159.06 105.161 157.308 105.432C157.02 104.44 156.581 103.458 156.223 102.498L162.038 100.35C162.511 101.579 162.994 102.912 163.486 104.347Z" fill="white"/>
</g>
<path d="M146.308 89.865C142.018 91.5899 139.533 89.507 139.533 89.507C140.803 86.9359 138.307 82.0106 136.686 79.3906L139.712 80.546L143.835 82.1191C143.887 82.5826 143.967 83.0427 144.073 83.4968C144.146 83.8235 144.248 84.143 144.377 84.4515V84.5003C144.92 85.7859 146.005 86.6701 148.229 86.4531C148.239 86.464 149.948 88.3787 146.308 89.865Z" fill="#B25B52"/>
<path d="M142.64 75.3434C142.64 75.3434 144.468 76.271 144.891 74.0361C143.068 72.8428 143.578 72.3112 142.862 71.0256C142.501 70.2541 141.937 69.5947 141.232 69.1173C140.526 68.6398 139.704 68.3621 138.854 68.3135L137.574 69.1271C133.446 72.8157 142.64 75.3434 142.64 75.3434Z" fill="#263238"/>
<path d="M132.703 75.8477C132.277 74.4889 132.408 73.0164 133.067 71.754C133.726 70.4916 134.86 69.5427 136.218 69.1161C140.319 67.7221 144.849 71.7795 146.666 75.0341C147.151 75.8692 147.4 76.8211 147.384 77.787C147.369 78.753 147.089 79.6964 146.577 80.5153C146.064 81.3343 145.338 81.9977 144.476 82.4341C143.614 82.8705 142.65 83.0633 141.686 82.9916C138.708 82.8017 137.13 81.0117 134.184 78.191C133.496 77.5514 132.986 76.7439 132.703 75.8477Z" fill="#B25B52"/>
<path d="M145.223 76.2764C143.924 76.7543 142.679 77.3669 141.508 78.1044C141.898 78.5249 142.428 78.7896 142.998 78.8495C143.569 78.9093 144.142 78.7602 144.611 78.4298C144.965 78.2474 145.234 77.9338 145.361 77.5559C145.487 77.1781 145.461 76.7657 145.289 76.4066L145.223 76.2764Z" fill="#263238"/>
<path d="M143.624 78.0722C144.128 77.74 144.732 77.5942 145.332 77.6599C145.188 77.9827 144.939 78.2481 144.627 78.4139C144.126 78.7492 143.523 78.8953 142.924 78.8262C143.065 78.5026 143.311 78.2366 143.624 78.0722Z" fill="#FF5652"/>
<path d="M145.108 76.3252C145.141 76.4439 145.142 76.5693 145.111 76.6885C145.079 76.8076 145.017 76.9163 144.929 77.0032C144.144 77.4519 143.32 77.8277 142.467 78.1261C142.332 78.1841 142.184 78.2056 142.039 78.1885C141.893 78.1713 141.754 78.1161 141.637 78.0284C142.743 77.3616 143.904 76.7917 145.108 76.3252Z" fill="white"/>
<path d="M138.09 81.9071L134.104 79.7374C134.569 78.0028 135.311 76.3545 136.3 74.8555L136.506 74.9585L138.09 81.9071Z" fill="#B25B52"/>
<path opacity="0.2" d="M138.09 81.9071L134.104 79.7374C134.569 78.0028 135.311 76.3545 136.3 74.8555L136.506 74.9585L138.09 81.9071Z" fill="black"/>
<path d="M136.3 74.8878C135.311 76.3868 134.569 78.0351 134.103 79.7697L131.613 78.4136L133.561 73.4883L136.3 74.8878Z" fill="#263238"/>
<path d="M143.78 75.7563C144.024 75.6345 144.238 75.4606 144.408 75.2469C144.578 75.0332 144.698 74.7849 144.762 74.5196C143.68 74.312 142.631 73.9599 141.643 73.4727L143.78 75.7563Z" fill="#9D2724"/>
<path d="M134.71 78.994C135.492 78.3322 137.07 78.8366 137.916 79.3954C138.865 80.0191 139.082 81.0226 138.041 81.3698C137.191 81.6151 136.281 81.5557 135.47 81.2017C134.45 80.7623 133.935 79.6557 134.71 78.994Z" fill="#B25B52"/>
<path d="M139.625 74.6439C139.788 74.5083 140.129 74.6113 140.33 74.8337C140.531 75.0561 140.58 75.3762 140.417 75.5118C140.254 75.6474 139.961 75.5497 139.717 75.3273C139.473 75.1049 139.457 74.7849 139.625 74.6439Z" fill="#263238"/>
<path d="M142.311 72.073C142.479 71.932 142.788 72.0134 143.016 72.2574C143.244 72.5015 143.292 72.7999 143.124 72.9518C142.956 73.1036 142.647 73.006 142.419 72.7619C142.191 72.5178 142.148 72.2086 142.311 72.073Z" fill="#263238"/>
<path d="M140.97 71.4108C141.001 71.4161 141.033 71.4139 141.063 71.4045C141.093 71.3951 141.121 71.3787 141.143 71.3566C141.306 71.1674 141.508 71.017 141.736 70.9165C141.965 70.8161 142.212 70.7681 142.461 70.7762C142.486 70.78 142.51 70.779 142.534 70.7731C142.558 70.7673 142.581 70.7567 142.6 70.742C142.62 70.7274 142.637 70.7089 142.649 70.6878C142.662 70.6667 142.67 70.6432 142.673 70.6189C142.678 70.5681 142.663 70.5175 142.632 70.4772C142.601 70.4369 142.555 70.41 142.505 70.4019C142.198 70.3865 141.891 70.4421 141.609 70.5644C141.327 70.6867 141.076 70.8724 140.878 71.1071C140.842 71.1444 140.822 71.1939 140.822 71.2454C140.822 71.2969 140.842 71.3464 140.878 71.3837C140.906 71.3988 140.938 71.408 140.97 71.4108Z" fill="#263238"/>
<path d="M138.41 74.8179C138.438 74.8038 138.463 74.7831 138.482 74.7577C138.5 74.7322 138.513 74.7027 138.518 74.6714C138.526 74.422 138.592 74.1778 138.709 73.9577C138.827 73.7377 138.994 73.5476 139.196 73.4021C139.218 73.3909 139.238 73.3751 139.254 73.3558C139.27 73.3366 139.281 73.3142 139.288 73.2902C139.294 73.2662 139.296 73.2411 139.292 73.2165C139.289 73.1919 139.28 73.1683 139.267 73.1472C139.24 73.1037 139.197 73.0725 139.147 73.0603C139.098 73.0481 139.045 73.0559 139.001 73.0821C138.746 73.2592 138.535 73.4927 138.384 73.7646C138.234 74.0364 138.148 74.3393 138.133 74.6497C138.132 74.6754 138.135 74.7011 138.144 74.7253C138.152 74.7496 138.165 74.7719 138.183 74.7911C138.2 74.8102 138.22 74.8258 138.244 74.8369C138.267 74.848 138.292 74.8545 138.318 74.8558C138.351 74.8511 138.383 74.8381 138.41 74.8179Z" fill="#263238"/>
<path d="M232.516 148.371L231.577 151.598L227.482 149.326L226.327 148.686L225.529 148.241L227.97 144.948L228.464 145.323L229.554 146.142L232.516 148.371Z" fill="#B25B52"/>
<path d="M239.795 146.386C238.662 147.812 237.566 149.06 236.742 150.085C235.396 151.756 234.962 152.45 233.932 153.79C233.808 153.944 233.629 154.045 233.433 154.07C233.237 154.095 233.038 154.043 232.879 153.926L230.167 151.452C230.113 151.396 230.082 151.321 230.082 151.243C230.082 151.165 230.113 151.09 230.167 151.034L232.337 147.926C232.738 147.592 233.193 147.328 233.682 147.145C235.158 146.765 236.286 146.727 238.993 144.46C239.139 144.359 239.318 144.315 239.494 144.338C239.671 144.361 239.832 144.449 239.947 144.585C240.289 144.932 240.436 145.594 239.795 146.386Z" fill="#263238"/>
<path opacity="0.2" d="M229.36 145.989L227.234 149.201L226.328 148.685L228.465 145.322L229.36 145.989Z" fill="black"/>
<path d="M228.806 144.781L225.925 149.326C225.925 149.326 209.772 143.132 195.636 129.95L195.679 129.717C187.651 131.735 164.142 132.088 160.367 128.09C158.382 125.888 156.988 123.55 156.641 120.669L160.367 119.433C162.331 118.635 165.726 117.431 166.838 116.097C166.838 116.097 188.221 117.404 197.019 121.554C206.241 124.949 228.806 144.781 228.806 144.781Z" fill="#BB0A08"/>
<g opacity="0.1">
<path d="M228.808 144.781L225.927 149.326C225.927 149.326 209.774 143.132 195.638 129.95L195.681 129.717C187.653 131.735 164.144 132.088 160.369 128.09C158.384 125.888 156.99 123.55 156.643 120.669L160.369 119.433C162.333 118.635 165.728 117.431 166.84 116.097C166.84 116.097 188.223 117.404 197.021 121.554C206.243 124.949 228.808 144.781 228.808 144.781Z" fill="black"/>
</g>
<path d="M228.154 153.388L226.321 156.242L222.166 154.17L220.723 153.443L222.903 149.836V149.83L228.154 153.388Z" fill="#B25B52"/>
<path opacity="0.2" d="M224.324 150.791L222.204 154.083L222.166 154.17L220.723 153.443L222.903 149.836L224.324 150.791Z" fill="black"/>
<path d="M223.652 149.375L223.479 149.684L220.674 154.197L192.717 136.693C184.434 139.296 156.179 139.557 151.986 135.608C151.675 135.306 151.379 134.987 151.102 134.653C150.798 134.311 150.522 133.953 150.261 133.595C150.26 133.584 150.26 133.574 150.261 133.563C149.161 131.743 148.347 129.766 147.847 127.699C147.439 126.158 147.129 124.593 146.92 123.012C154.867 121.439 164.43 118.906 166.854 116.08L171.628 123.349C179.667 124.13 191.866 126.061 195.039 127.336C204.89 130.346 223.652 149.375 223.652 149.375Z" fill="#BB0A08"/>
<path d="M151.104 134.658C150.806 134.315 150.53 133.952 150.279 133.573C150.523 133.98 150.8 134.316 151.104 134.658Z" fill="#BB0A08"/>
<path d="M235.266 150.373C235.06 150.666 234.849 150.948 234.653 151.23L234.626 151.268L234.008 152.098L233.731 152.466C233.59 152.662 233.438 152.873 233.276 153.085L232.95 153.519L232.299 154.419C230.997 156.258 230.585 157.012 229.587 158.477C229.468 158.644 229.288 158.759 229.086 158.798C228.884 158.836 228.675 158.795 228.502 158.683L225.991 156.638L225.524 156.258C225.493 156.232 225.467 156.2 225.448 156.163C225.428 156.127 225.417 156.087 225.413 156.046C225.41 156.005 225.414 155.964 225.427 155.925C225.439 155.886 225.46 155.85 225.486 155.819L227.558 152.428C227.961 152.057 228.421 151.753 228.92 151.528C230.444 151.04 231.632 150.931 234.317 148.393C234.881 147.829 236.351 148.816 235.266 150.373Z" fill="#263238"/>
<path d="M150.245 133.557C149.003 131.815 148.16 129.82 147.777 127.715H147.832C148.331 129.775 149.145 131.745 150.245 133.557Z" fill="#BB0A08"/>
<path d="M152.057 115.624H114.467C112.732 115.624 111.326 117.03 111.326 118.765V119.947C111.326 121.682 112.732 123.088 114.467 123.088H152.057C153.792 123.088 155.198 121.682 155.198 119.947V118.765C155.198 117.03 153.792 115.624 152.057 115.624Z" fill="#BB0A08"/>
<path opacity="0.5" d="M152.057 115.624H114.467C112.732 115.624 111.326 117.03 111.326 118.765V119.947C111.326 121.682 112.732 123.088 114.467 123.088H152.057C153.792 123.088 155.198 121.682 155.198 119.947V118.765C155.198 117.03 153.792 115.624 152.057 115.624Z" fill="white"/>
<path opacity="0.5" d="M155.198 119.334C155.198 118.345 154.805 117.395 154.105 116.696C153.405 115.996 152.456 115.603 151.466 115.603H115.064C114.573 115.602 114.087 115.698 113.634 115.885C113.18 116.072 112.768 116.347 112.421 116.694C112.074 117.04 111.799 117.452 111.611 117.905C111.423 118.358 111.326 118.844 111.326 119.334H155.198Z" fill="white"/>
<path d="M147.392 116.199C142.255 116.649 139.115 116.427 133.994 116.405C129.557 116.405 128.928 116.405 128.928 114.973C128.928 113.346 129.307 110.552 129.307 108.941C131.304 109.066 133.077 109.283 135.046 108.941L134.808 111.518C140.389 111.377 142.266 113.031 147.392 113.633V116.199Z" fill="#B25B52"/>
<path opacity="0.2" d="M138.171 107.401C136.761 104.723 135.711 101.87 135.047 98.9174L136.132 98.2773L138.171 107.401Z" fill="black"/>
<path d="M134.96 91.719C132.931 92.0879 131.331 93.7586 130.517 95.6516C129.703 97.5447 129.042 108.258 129.015 107.835H128.32L127.832 111.507C130.441 111.431 133.755 111.192 136.359 111.116C136.359 111.116 136.473 108.795 136.359 107.661L135.67 107.721L137.113 98.0384C137.356 96.4831 137.229 94.8926 136.744 93.3951C136.674 93.1592 136.577 92.9318 136.457 92.7171C136.126 92.2126 135.583 91.6051 134.96 91.719Z" fill="#263238"/>
<path d="M158.133 113.443C158.133 113.974 157.975 114.492 157.681 114.933C157.386 115.373 156.967 115.717 156.477 115.919C155.987 116.122 155.448 116.175 154.928 116.071C154.408 115.967 153.931 115.711 153.556 115.336C153.182 114.961 152.927 114.483 152.824 113.963C152.721 113.443 152.775 112.904 152.979 112.414C153.183 111.925 153.527 111.506 153.968 111.213C154.41 110.919 154.928 110.763 155.458 110.764C156.168 110.765 156.848 111.048 157.35 111.55C157.851 112.053 158.133 112.734 158.133 113.443Z" fill="#BB0A08"/>
<path d="M155.21 117.751C155.98 117.677 156.736 117.494 157.456 117.209C157.609 117.141 157.747 117.044 157.862 116.922C157.977 116.801 158.066 116.657 158.124 116.5C158.182 116.343 158.208 116.176 158.201 116.009C158.193 115.842 158.152 115.678 158.079 115.527C157.976 115.299 157.868 115.071 157.738 114.844C157.033 115.191 156.176 115.587 155.438 115.305C154.006 114.762 153.17 113.498 151.641 113.466L147.074 113.683C146.865 114.488 146.842 115.33 147.008 116.145C149.623 117.17 152.402 117.714 155.21 117.751Z" fill="#B25B52"/>
<path d="M155.848 105.167L152.675 107.19C152.675 107.19 149.295 108.817 148.2 107.998C147.731 107.414 147.346 106.768 147.055 106.078C146.954 105.88 146.917 105.655 146.948 105.435C146.979 105.215 147.077 105.009 147.229 104.847L149.399 102.953C149.872 102.549 150.474 102.326 151.096 102.324H155.159L155.848 105.167Z" fill="#B25B52"/>
<path d="M169.306 102.248C169.271 102.302 169.229 102.351 169.181 102.395C169.13 102.447 169.074 102.494 169.013 102.536C168.949 102.59 168.88 102.639 168.807 102.682C168.446 102.899 168.064 103.081 167.668 103.225C167.559 103.268 167.44 103.317 167.315 103.355C167.191 103.393 167.071 103.447 166.936 103.485C166.675 103.566 166.393 103.653 166.111 103.729L165.824 103.805L165.01 104.016H164.923C164.462 104.125 163.979 104.233 163.491 104.337C163.434 104.353 163.376 104.363 163.318 104.369C161.69 104.711 159.922 105.009 158.436 105.237C158.235 105.269 158.034 105.302 157.85 105.324L157.307 105.405C157.02 104.407 155.87 102.563 155.512 101.608L161.332 99.4872L162.64 99.0098C162.64 99.0098 161.208 96.737 160.752 96.1132C160.296 95.4894 159.933 94.9904 159.521 94.4208C157.752 90.7323 156.483 88.1503 155.051 86.9624C154.367 86.3205 153.481 85.937 152.545 85.8775C152.545 85.8775 155.615 85.1832 156.646 85.4978C157.671 85.8637 158.615 86.4277 159.423 87.1577C162.484 89.5989 165.154 92.4926 167.342 95.739C167.38 95.7986 167.435 95.8746 167.483 95.9614C167.684 96.2651 167.879 96.5743 168.064 96.8835C169.008 98.424 170.217 100.946 169.306 102.248Z" fill="#263238"/>
<path opacity="0.2" d="M161.696 97.5178L160.106 95.3046C159.564 94.095 159.081 93.021 158.609 92.0771L159.233 92.6738C160.569 93.9706 161.435 95.6747 161.696 97.5178Z" fill="black"/>
<path d="M158.865 106.468C157.788 106.127 156.649 106.027 155.529 106.175C154.933 104.493 154.284 102.832 153.582 101.19C154.612 100.73 155.712 100.447 156.837 100.354C157.493 102.351 158.578 104.396 158.865 106.468Z" fill="#263238"/>
<path opacity="0.1" d="M158.865 106.468C157.788 106.127 156.649 106.027 155.529 106.175C154.933 104.493 154.284 102.832 153.582 101.19C154.612 100.73 155.712 100.447 156.837 100.354C157.493 102.351 158.578 104.396 158.865 106.468Z" fill="white"/>
<path d="M131.836 78.5652C130.794 77.8437 130.322 76.531 130.176 75.2726C130.029 74.0142 131.375 73.7701 131.223 72.5116C131.071 71.2532 130.572 69.9405 129.52 69.257C130.425 69.5011 131.575 69.3058 132.394 69.7615C131.825 68.804 130.92 68.0925 129.856 67.7653C131.332 67.6552 132.816 67.8188 134.233 68.2481C134.136 67.1632 133.148 65.7258 132.503 64.8362L136.078 67.0059C136.431 66.1848 136.473 65.2632 136.197 64.4131C137.314 65.6173 139.744 68.1667 139.744 68.1667L140.287 69.1648C138.117 69.3818 138.578 70.5426 138.578 70.5426C138.578 70.5426 133.62 70.9006 131.836 78.5652Z" fill="#263238"/>
<path opacity="0.1" d="M128.32 107.845L136.37 107.672L136.359 111.127L127.832 111.518L128.32 107.845Z" fill="white"/>
<path d="M61.4219 187.216L65.3057 189.283L65.6745 183.121L61.6822 182.898L61.4219 187.216Z" fill="#F7978D"/>
<path d="M65.4854 188.301L61.3684 186.451C61.2959 186.419 61.2148 186.412 61.138 186.432C61.0612 186.452 60.9934 186.497 60.9453 186.56L58.7756 189.505C58.6837 189.634 58.6465 189.794 58.6718 189.951C58.6972 190.107 58.7832 190.247 58.9112 190.34L59.0251 190.405C60.4734 191.024 61.1948 191.252 63.0282 192.065C64.1131 192.564 66.9825 193.98 68.5285 194.669C70.0744 195.358 70.9477 193.926 70.3782 193.503C67.8179 191.61 66.5486 190.015 66.0062 188.794C65.9024 188.569 65.716 188.392 65.4854 188.301Z" fill="#263238"/>
<path opacity="0.2" d="M65.6741 183.126L65.6036 185.133L61.6113 184.895L61.6818 182.898L65.6741 183.126Z" fill="black"/>
<path d="M72.1141 96.2666C72.9223 101.078 71.4957 124.473 69.9444 134.817C67.9048 148.53 66.3535 184.461 66.3535 184.461L61.0214 184.049C61.0214 184.049 59.3941 146.371 60.6742 135.354C60.2999 121.143 59.1934 96.2991 59.1934 96.2991L72.1141 96.2666Z" fill="#BB0A08"/>
<path opacity="0.1" d="M72.1141 96.2666C72.9223 101.078 71.4957 124.473 69.9444 134.817C67.9048 148.53 66.3535 184.461 66.3535 184.461L61.0214 184.049C61.0214 184.049 59.3941 146.371 60.6742 135.354C60.2999 121.143 59.1934 96.2991 59.1934 96.2991L72.1141 96.2666Z" fill="black"/>
<path opacity="0.2" d="M59.8387 111.785C59.7085 108.184 62.3122 105.032 63.2235 111.84C63.7984 116.179 62.3285 123.719 60.4788 129.035C60.2998 123.464 60.0611 117.264 59.8387 111.785Z" fill="black"/>
<path d="M32.2012 177.729L35.2279 179.654L37.9509 175.271L34.9242 173.346L32.2012 177.729Z" fill="#F7978D"/>
<path d="M35.6944 179.584L32.3639 176.519C32.3084 176.466 32.2346 176.437 32.1578 176.437C32.081 176.437 32.0072 176.466 31.9517 176.519L29.2395 178.922C29.1754 178.986 29.1245 179.061 29.0897 179.145C29.055 179.228 29.0371 179.317 29.0371 179.408C29.0371 179.498 29.055 179.587 29.0897 179.671C29.1245 179.754 29.1754 179.83 29.2395 179.893C30.4111 180.945 31.0295 181.385 32.4941 182.741C33.3945 183.565 34.474 184.742 35.7161 185.892C36.9583 187.042 38.092 185.816 37.6743 185.225C35.7921 182.562 36.1826 181.64 35.9765 180.235C35.9534 179.994 35.8547 179.766 35.6944 179.584Z" fill="#263238"/>
<path opacity="0.2" d="M37.9508 175.277L36.7249 177.24L33.6602 175.217L34.9186 173.346L37.9508 175.277Z" fill="black"/>
<path d="M64.1568 101.794C64.1568 101.794 59.123 132.17 56.2047 143.653C54.0947 151.92 37.9302 176.525 37.9302 176.525L33.7969 174.062C33.7969 174.062 39.3568 153.618 48.1876 142.807C48.73 129.968 47.6452 108.802 52.7332 101.837L64.1568 101.794Z" fill="#BB0A08"/>
<path opacity="0.1" d="M64.1568 101.794C64.1568 101.794 59.123 132.17 56.2047 143.653C54.0947 151.92 37.9302 176.525 37.9302 176.525L33.7969 174.062C33.7969 174.062 39.3568 153.618 48.1876 142.807C48.73 129.968 47.6452 108.802 52.7332 101.837L64.1568 101.794Z" fill="black"/>
<path d="M71.7881 76.2775C73.6106 74.4332 75.3193 72.5347 76.99 70.5656C78.6607 68.5966 80.2826 66.595 81.8014 64.4687L82.0889 64.0727L82.398 63.6117C82.5987 63.3025 82.7832 62.9933 82.9405 62.6841C83.2768 62.0603 83.5589 61.4202 83.8463 60.8181C84.3688 59.5935 84.8268 58.3424 85.2187 57.0699C85.9733 54.5838 86.5444 52.0456 86.9273 49.4759C86.9993 49.1939 86.9563 48.8949 86.8077 48.6446C86.6592 48.3944 86.4174 48.2134 86.1354 48.1415C85.8534 48.0695 85.5544 48.1126 85.3042 48.2611C85.0539 48.4096 84.8729 48.6515 84.801 48.9334C83.9548 51.2713 83.049 53.6363 82.0889 55.8874C81.6007 57.0211 81.0691 58.1222 80.505 59.1691C80.2229 59.7116 79.9246 60.1889 79.6154 60.6608C79.4635 60.8995 79.3008 61.1219 79.1435 61.3389L78.8994 61.6481L78.6173 62.0006C77.0442 63.91 75.3627 65.7977 73.7354 67.6528C72.1081 69.5079 70.3344 71.363 68.6366 73.1748C68.4257 73.3838 68.2589 73.6329 68.1459 73.9075C68.0329 74.182 67.976 74.4764 67.9786 74.7733C67.9812 75.0701 68.0432 75.3635 68.1609 75.636C68.2787 75.9085 68.4498 76.1547 68.6642 76.3601C68.8786 76.5654 69.1319 76.7258 69.4093 76.8317C69.6867 76.9376 69.9824 76.9868 70.2791 76.9766C70.5758 76.9664 70.8675 76.8969 71.1369 76.7721C71.4063 76.6474 71.648 76.47 71.8477 76.2504L71.7881 76.2775Z" fill="#F7978D"/>
<path d="M84.8341 49.7309L84.5195 46.1562L88.3491 47.7347C88.3491 47.7347 87.9206 49.8556 86.3258 50.691L84.8341 49.7309Z" fill="#F7978D"/>
<path d="M70.0686 69.9746C69.5967 69.3292 76.7242 63.8018 76.7242 63.8018L77.961 71.7538C77.961 71.7538 76.5398 74.6884 74.4731 76.2886C72.4065 77.8887 69.2115 72.5241 70.0686 69.9746Z" fill="#BB0A08"/>
<path d="M87.3619 43.9702L88.7559 45.055C88.9117 45.174 89.0239 45.3412 89.0749 45.5305C89.1259 45.7199 89.1129 45.9207 89.038 46.1019L88.3491 47.7292L84.5195 46.1507L86.1197 44.122C86.265 43.9382 86.477 43.8192 86.7096 43.7908C86.9421 43.7623 87.1766 43.8268 87.3619 43.9702Z" fill="#F7978D"/>
<path d="M74.5825 72.5784C74.6476 80.601 73.0908 86.8552 72.4128 92.3718C72.326 93.0715 72.1904 95.3877 72.8738 100.215C73.3389 104.177 73.6033 108.16 73.6658 112.149L48.459 110.56C49.2889 99.7489 54.5993 93.2017 54.5939 91.7154C54.5939 87.2349 54.1057 82.6514 52.1529 73.8748C51.9381 72.903 52.118 71.8857 52.653 71.0465C53.1881 70.2074 54.0345 69.615 55.0061 69.3997C55.1185 69.372 55.2327 69.352 55.3479 69.3401C56.4327 69.199 57.5773 69.0743 58.7652 69.0146C61.4298 68.8139 64.1053 68.803 66.7715 68.9821C68.6483 69.1448 70.6607 69.4594 72.0982 69.6981C72.7836 69.8121 73.4075 70.1627 73.8613 70.6888C74.3152 71.215 74.5704 71.8836 74.5825 72.5784Z" fill="#BB0A08"/>
<path d="M70.367 79.6299H70.0415L69.613 78.3389C69.594 78.2816 69.589 78.2206 69.5983 78.161C69.6076 78.1014 69.631 78.0448 69.6665 77.996C69.702 77.9472 69.7487 77.9076 69.8026 77.8805C69.8565 77.8533 69.9161 77.8394 69.9764 77.8399H70.4321C70.4924 77.8394 70.552 77.8533 70.6059 77.8805C70.6598 77.9076 70.7064 77.9472 70.742 77.996C70.7775 78.0448 70.8009 78.1014 70.8102 78.161C70.8195 78.2206 70.8145 78.2816 70.7955 78.3389L70.367 79.6299Z" fill="#263238"/>
<path d="M70.2153 78.3066C70.7096 78.3066 71.1103 77.9059 71.1103 77.4116C71.1103 76.9173 70.7096 76.5166 70.2153 76.5166C69.721 76.5166 69.3203 76.9173 69.3203 77.4116C69.3203 77.9059 69.721 78.3066 70.2153 78.3066Z" fill="#BB0A08"/>
<path opacity="0.5" d="M70.2154 77.965C70.521 77.965 70.7687 77.7173 70.7687 77.4117C70.7687 77.1061 70.521 76.8584 70.2154 76.8584C69.9098 76.8584 69.6621 77.1061 69.6621 77.4117C69.6621 77.7173 69.9098 77.965 70.2154 77.965Z" fill="white"/>
<path d="M72.678 79.0439H67.7581C67.3836 79.0439 67.0801 79.3475 67.0801 79.722V82.2877C67.0801 82.6622 67.3836 82.9657 67.7581 82.9657H72.678C73.0524 82.9657 73.356 82.6622 73.356 82.2877V79.722C73.356 79.3475 73.0524 79.0439 72.678 79.0439Z" fill="#BB0A08"/>
<path opacity="0.8" d="M72.678 79.0439H67.7581C67.3836 79.0439 67.0801 79.3475 67.0801 79.722V82.2877C67.0801 82.6622 67.3836 82.9657 67.7581 82.9657H72.678C73.0524 82.9657 73.356 82.6622 73.356 82.2877V79.722C73.356 79.3475 73.0524 79.0439 72.678 79.0439Z" fill="white"/>
<path d="M72.6181 79.2607H67.8068C67.5252 79.2607 67.2969 79.489 67.2969 79.7706V82.2279C67.2969 82.5095 67.5252 82.7377 67.8068 82.7377H72.6181C72.8997 82.7377 73.128 82.5095 73.128 82.2279V79.7706C73.128 79.489 72.8997 79.2607 72.6181 79.2607Z" fill="#BB0A08"/>
<path opacity="0.5" d="M72.6181 79.2607H67.8068C67.5252 79.2607 67.2969 79.489 67.2969 79.7706V82.2279C67.2969 82.5095 67.5252 82.7377 67.8068 82.7377H72.6181C72.8997 82.7377 73.128 82.5095 73.128 82.2279V79.7706C73.128 79.489 72.8997 79.2607 72.6181 79.2607Z" fill="white"/>
<path d="M69.3205 79.7764H67.9102V81.3711H69.3205V79.7764Z" fill="#BB0A08"/>
<path d="M69.9158 80.3296C69.8827 80.3296 69.851 80.3164 69.8276 80.2931C69.8042 80.2697 69.791 80.2379 69.791 80.2048C69.791 80.1717 69.8042 80.14 69.8276 80.1166C69.851 80.0932 69.8827 80.0801 69.9158 80.0801H72.5357C72.5688 80.0801 72.6005 80.0932 72.6239 80.1166C72.6473 80.14 72.6605 80.1717 72.6605 80.2048C72.6605 80.2379 72.6473 80.2697 72.6239 80.2931C72.6005 80.3164 72.5688 80.3296 72.5357 80.3296H69.9158Z" fill="white"/>
<path d="M69.9158 81.9077C69.8827 81.9077 69.851 81.8946 69.8276 81.8712C69.8042 81.8478 69.791 81.8161 69.791 81.783C69.791 81.7499 69.8042 81.7181 69.8276 81.6947C69.851 81.6713 69.8827 81.6582 69.9158 81.6582H72.5357C72.5688 81.6582 72.6005 81.6713 72.6239 81.6947C72.6473 81.7181 72.6605 81.7499 72.6605 81.783C72.6605 81.8161 72.6473 81.8478 72.6239 81.8712C72.6005 81.8946 72.5688 81.9077 72.5357 81.9077H69.9158Z" fill="white"/>
<path d="M69.9158 81.1274C69.8827 81.1274 69.851 81.1143 69.8276 81.0909C69.8042 81.0675 69.791 81.0358 69.791 81.0027C69.791 80.9696 69.8042 80.9379 69.8276 80.9145C69.851 80.8911 69.8827 80.8779 69.9158 80.8779H72.5357C72.5688 80.8779 72.6005 80.8911 72.6239 80.9145C72.6473 80.9379 72.6605 80.9696 72.6605 81.0027C72.6605 81.0358 72.6473 81.0675 72.6239 81.0909C72.6005 81.1143 72.5688 81.1274 72.5357 81.1274H69.9158Z" fill="white"/>
<path opacity="0.4" d="M66.7435 69.0039C66.7435 69.0039 69.5804 71.0597 66.4614 76.0555C64.0096 73.5881 61.4352 71.2454 58.748 69.0365L66.7435 69.0039Z" fill="white"/>
<path d="M56.6267 97.2859H56.1493C56.0571 97.2859 55.9812 97.2371 55.9866 97.1774L56.2036 95.127C56.2036 95.0674 56.2958 95.0186 56.388 95.0186H56.8708C56.963 95.0186 57.0335 95.0619 57.0281 95.127L56.8165 97.172C56.8057 97.2371 56.7243 97.2859 56.6267 97.2859Z" fill="#BB0A08"/>
<path d="M70.8606 97.2371H70.3778C70.2856 97.2371 70.2097 97.1883 70.2151 97.1286L70.4321 95.0782C70.4321 95.0185 70.5243 94.9697 70.6165 94.9697H71.0993C71.1915 94.9697 71.2674 95.0185 71.2566 95.0782L71.045 97.1286C71.0342 97.1829 70.9528 97.2317 70.8606 97.2371Z" fill="#BB0A08"/>
<path d="M63.7439 97.2586H63.2665C63.1689 97.2586 63.0984 97.2098 63.1038 97.1501L63.3208 95.0997C63.3208 95.04 63.4076 94.9912 63.5052 94.9912H63.9825C64.0748 94.9912 64.1453 95.04 64.1399 95.0997L63.9283 97.1501C63.9133 97.1856 63.8873 97.2154 63.8541 97.2349C63.8209 97.2545 63.7822 97.2628 63.7439 97.2586Z" fill="#BB0A08"/>
<path d="M50.372 74.4932C49.5421 76.473 48.799 78.4421 48.0992 80.4599C47.7575 81.4634 47.4158 82.4669 47.1228 83.5355C46.7925 84.623 46.5298 85.7298 46.3363 86.8498C46.2787 87.1962 46.2425 87.5458 46.2278 87.8967C46.217 88.1688 46.2334 88.4414 46.2766 88.7103C46.2766 88.8134 46.3255 88.9219 46.358 89.0249L46.4068 89.2148C46.4345 89.2988 46.469 89.3805 46.5099 89.4589L46.575 89.5891V89.6487V89.6921L46.6347 89.7789C46.9655 90.2454 47.2584 90.7282 47.6273 91.1676C48.3274 92.0801 49.1041 92.9311 49.9489 93.7116C50.8135 94.4945 51.7654 95.1752 52.7858 95.7403C53.3065 96.0286 53.8509 96.2718 54.4131 96.4671C54.6952 96.5648 54.9881 96.657 55.281 96.7329L55.7421 96.8251C55.9157 96.8577 56.0404 96.8739 56.2845 96.9011L56.5991 94.7313C56.5279 94.688 56.4535 94.6499 56.3767 94.6174L56.0838 94.471C55.8885 94.3679 55.6933 94.254 55.5034 94.1347C55.1215 93.8764 54.7539 93.5975 54.4023 93.2993C53.6871 92.6927 53.0281 92.0228 52.4332 91.2977C52.1458 90.9126 51.842 90.56 51.5762 90.1424C51.3104 89.7247 51.0338 89.3612 50.7897 88.9653C50.5456 88.5693 50.3123 88.1245 50.0628 87.7068V87.6255V87.5821V87.62V87.7068C50.0628 87.7611 50.1171 87.8316 50.1279 87.8641C50.1308 87.8966 50.1308 87.9293 50.1279 87.9618L50.1605 88.0865C50.1605 88.157 50.1605 88.1842 50.1605 88.0865C50.1781 87.9123 50.2108 87.7399 50.2581 87.5712C50.4938 86.6356 50.7763 85.7123 51.1043 84.8048C51.4352 83.8556 51.7823 82.8846 52.1458 81.9245C52.8726 79.9989 53.6266 78.0461 54.3697 76.1313L50.372 74.4932Z" fill="#F7978D"/>
<path d="M61.5637 92.8106L60.0828 92.3279C59.976 92.2914 59.863 92.2766 59.7504 92.2842C59.6378 92.2918 59.5279 92.3217 59.4269 92.3721C59.326 92.4226 59.2361 92.4926 59.1624 92.5782C59.0888 92.6637 59.0329 92.763 58.998 92.8703C58.949 93.0182 58.9424 93.1768 58.9788 93.3282C59.0152 93.4797 59.0932 93.6179 59.2041 93.7273L54.984 106.746C54.9052 106.992 54.9272 107.26 55.045 107.491C55.1629 107.722 55.3671 107.896 55.6132 107.977L55.9766 108.096C56.2234 108.175 56.4912 108.153 56.7218 108.035C56.9525 107.917 57.1272 107.713 57.2079 107.467L61.4281 94.4488C61.5809 94.4223 61.7237 94.3548 61.8412 94.2535C61.9587 94.1523 62.0465 94.021 62.0952 93.8738C62.1642 93.6623 62.147 93.4321 62.0476 93.2332C61.9481 93.0342 61.7742 92.8824 61.5637 92.8106Z" fill="#BB0A08"/>
<path opacity="0.6" d="M61.5637 92.8106L60.0828 92.3279C59.976 92.2914 59.863 92.2766 59.7504 92.2842C59.6378 92.2918 59.5279 92.3217 59.4269 92.3721C59.326 92.4226 59.2361 92.4926 59.1624 92.5782C59.0888 92.6637 59.0329 92.763 58.998 92.8703C58.949 93.0182 58.9424 93.1768 58.9788 93.3282C59.0152 93.4797 59.0932 93.6179 59.2041 93.7273L54.984 106.746C54.9052 106.992 54.9272 107.26 55.045 107.491C55.1629 107.722 55.3671 107.896 55.6132 107.977L55.9766 108.096C56.2234 108.175 56.4912 108.153 56.7218 108.035C56.9525 107.917 57.1272 107.713 57.2079 107.467L61.4281 94.4488C61.5809 94.4223 61.7237 94.3548 61.8412 94.2535C61.9587 94.1523 62.0465 94.021 62.0952 93.8738C62.1642 93.6623 62.147 93.4321 62.0476 93.2332C61.9481 93.0342 61.7742 92.8824 61.5637 92.8106Z" fill="white"/>
<path d="M59.5176 92.3444C59.8533 92.6386 60.2553 92.8471 60.6892 92.9519C61.1022 93.1238 61.5513 93.1909 61.9965 93.1472C61.8925 92.9884 61.7375 92.8698 61.5571 92.8109L60.0763 92.3281C59.8935 92.271 59.6968 92.2767 59.5176 92.3444Z" fill="#BB0A08"/>
<path d="M58.347 100.22C57.9618 100.095 57.6852 99.9002 57.7177 99.7754L55.407 106.908C55.3851 106.976 55.3768 107.048 55.3827 107.119C55.3886 107.191 55.4085 107.26 55.4412 107.323C55.474 107.387 55.519 107.443 55.5736 107.489C55.6282 107.535 55.6914 107.57 55.7596 107.592L56.123 107.706C56.2597 107.75 56.4084 107.739 56.5366 107.674C56.6647 107.609 56.7618 107.495 56.8065 107.359L59.1172 100.226C59.0684 100.35 58.7267 100.35 58.347 100.22Z" fill="#BB0A08"/>
<path d="M59.1167 100.226C59.0787 100.351 58.7316 100.346 58.3464 100.226C57.9613 100.107 57.6738 99.9009 57.7172 99.7762C57.7606 99.6514 58.1024 99.6514 58.4875 99.7762C58.8726 99.9009 59.1601 100.102 59.1167 100.226Z" fill="#BB0A08"/>
<path opacity="0.3" d="M59.1167 100.226C59.0787 100.351 58.7316 100.346 58.3464 100.226C57.9613 100.107 57.6738 99.9009 57.7172 99.7762C57.7606 99.6514 58.1024 99.6514 58.4875 99.7762C58.8726 99.9009 59.1601 100.102 59.1167 100.226Z" fill="black"/>
<g opacity="0.8">
<path d="M59.5828 93.9657C58.1869 98.2798 56.7911 102.592 55.3952 106.903C55.3871 106.955 55.3978 107.008 55.4255 107.053C55.4532 107.098 55.496 107.132 55.5463 107.148C55.5966 107.165 55.651 107.163 55.6999 107.142C55.7487 107.122 55.7888 107.085 55.8129 107.038C57.2051 102.724 58.601 98.4118 60.0005 94.1013C60.0086 94.0491 59.9978 93.9957 59.9702 93.9506C59.9425 93.9056 59.8997 93.8719 59.8494 93.8556C59.7991 93.8393 59.7447 93.8414 59.6958 93.8616C59.647 93.8817 59.6069 93.9187 59.5828 93.9657Z" fill="white"/>
</g>
<path d="M55.0371 96.6944L58.9752 98.1807L59.6044 94.3837C59.6044 94.3837 57.3099 93.8412 55.905 94.9261L55.0371 96.6944Z" fill="#F7978D"/>
<path d="M61.347 97.8831L61.8894 96.5108C61.9901 96.2472 61.9841 95.9547 61.8727 95.6955C61.7613 95.4362 61.5533 95.2306 61.2927 95.1222L59.5949 94.417L58.9766 98.1815L60.0614 98.5178C60.3162 98.5865 60.5873 98.5599 60.824 98.4431C61.0606 98.3263 61.2466 98.1272 61.347 97.8831Z" fill="#F7978D"/>
<path d="M59.0628 71.5045C60.1477 76.1531 52.8302 83.9805 52.8302 83.9805L46.8906 77.5689C46.8906 77.5689 49.7547 71.716 53.3998 69.9314C55.933 68.6947 58.5855 69.4324 59.0628 71.5045Z" fill="#BB0A08"/>
<path d="M59.5177 60.0205C60.0601 62.5916 60.5591 67.3054 58.7637 69.0303C61.5213 70.1707 64.0542 71.7925 66.2438 73.82C68.2562 70.2671 66.7862 68.9978 66.7862 68.9978C63.9168 68.3252 63.9764 66.1934 64.4701 64.1918L59.5177 60.0205Z" fill="#F7978D"/>
<path opacity="0.2" d="M60.0605 60.4766C60.1032 62.0071 60.4731 63.5109 61.1454 64.8865C61.6173 65.8358 62.9029 66.2535 64.2047 66.3511C64.1735 65.6196 64.2558 64.8877 64.4488 64.1814L60.0605 60.4766Z" fill="black"/>
<path d="M63.0125 48.1524C62.8931 47.8432 63.2457 47.5557 63.5549 47.4744C63.9996 47.3619 64.469 47.4002 64.8895 47.5832C65.3101 47.7662 65.6581 48.0835 65.8789 48.4855C66.0998 48.8875 66.181 49.3514 66.1099 49.8045C66.0388 50.2576 65.8193 50.6743 65.486 50.9893C65.5944 50.7398 66.0989 50.4469 66.3376 50.5662C66.5641 50.72 66.7262 50.9517 66.7932 51.2171C66.8871 51.4396 66.9154 51.6843 66.8746 51.9223C66.855 52.0424 66.7985 52.1534 66.713 52.2399C66.6274 52.3264 66.5171 52.3841 66.3972 52.4051C66.952 52.8785 67.365 53.4961 67.5906 54.1897C67.6816 54.5435 67.6612 54.9168 67.532 55.2585C67.4029 55.6003 67.1714 55.8938 66.8692 56.099C67.5038 56.571 68.095 57.2164 68.03 58.003C67.992 58.3997 67.8555 58.7807 67.6329 59.1113C67.4103 59.442 67.1086 59.7117 66.7552 59.8961C67.1078 60.5687 67.7642 61.3118 67.4441 61.9953C67.0427 62.8469 65.7626 63.1236 65.5836 64.0457C65.9362 64.1379 66.305 64.1596 66.6685 64.2518C66.7838 64.4883 66.8373 64.7501 66.824 65.0129C66.8108 65.2756 66.7311 65.5307 66.5925 65.7543C66.4081 65.9822 66.0501 65.8357 65.7572 65.8249C65.6118 65.8018 65.4629 65.815 65.3238 65.8633C65.1847 65.9116 65.0597 65.9934 64.9598 66.1015C64.9122 66.184 64.8871 66.2775 64.8871 66.3727C64.8871 66.4679 64.9122 66.5615 64.9598 66.6439C65.3874 66.8614 65.8502 67.001 66.3267 67.0562C65.9645 67.1403 65.5892 67.1521 65.2224 67.0906C64.8556 67.0292 64.5046 66.8958 64.1895 66.6982C63.8788 66.5122 63.6178 66.2537 63.4289 65.9448C63.2399 65.6359 63.1287 65.2857 63.1047 64.9244C63.1047 63.9318 63.8587 63.1236 64.5801 62.4347C64.7211 62.2991 64.9218 62.0441 64.7482 61.9519C64.658 61.9144 64.5612 61.8952 64.4635 61.8952C64.3657 61.8952 64.269 61.9144 64.1787 61.9519C63.998 62.0308 63.7992 62.0589 63.6037 62.0333C63.2796 61.683 63.0041 61.2908 62.7846 60.867C62.5405 60.4474 62.4723 59.9482 62.5948 59.4784C62.7177 59.1534 62.9018 58.8551 63.1372 58.5997C63.3075 58.3633 63.5188 58.1593 63.761 57.9976C64.0431 57.8348 64.4228 57.7318 64.5042 57.4172C64.5231 57.2832 64.4951 57.1467 64.4249 57.031C64.3547 56.9153 64.2466 56.8275 64.119 56.7825C63.8621 56.6958 63.5928 56.6518 63.3217 56.6523C63.0476 56.6514 62.784 56.5467 62.5839 56.3594C62.3561 56.099 62.0958 55.5946 62.2368 55.2745C62.3335 55.1171 62.4607 54.9806 62.6111 54.8731C63.153 54.3143 63.5286 53.6156 63.6959 52.8553C63.7196 52.7812 63.7196 52.7016 63.6959 52.6275C63.6417 52.4539 63.3922 52.4376 63.2403 52.5353C63.1071 52.6531 62.9803 52.778 62.8606 52.9095C62.725 53.0234 62.4917 53.0723 62.3832 52.9095C62.0958 52.5353 59.4812 51.3636 61.6727 48.863C61.8571 48.6514 61.9005 48.3477 62.1175 48.1687C62.25 48.0819 62.4043 48.0344 62.5626 48.0315C62.721 48.0286 62.8769 48.0705 63.0125 48.1524Z" fill="#263238"/>
<path d="M55.3904 56.8148C56.6542 60.9373 57.0719 62.7056 59.7298 64.3546C63.6733 66.8281 68.4575 64.3926 68.4738 60.0152C68.4738 56.0445 66.418 49.9747 61.9646 49.2804C60.9755 49.1205 59.9618 49.2162 59.0201 49.5585C58.0783 49.9008 57.2398 50.4783 56.5842 51.2361C55.9286 51.9939 55.4777 52.9068 55.2745 53.888C55.0712 54.8692 55.1223 55.886 55.4229 56.8419L55.3904 56.8148Z" fill="#F7978D"/>
<path d="M53.8007 49.5792C53.8495 49.2483 53.4372 49.0368 53.1064 49.0368C52.6457 49.0253 52.1943 49.1677 51.8236 49.4415C51.4529 49.7153 51.1841 50.1049 51.0597 50.5486C50.9352 50.9923 50.9622 51.4648 51.1364 51.8915C51.3106 52.3181 51.622 52.6745 52.0215 52.9043C51.8588 52.6819 51.3001 52.4975 51.0994 52.6819C50.9145 52.884 50.8085 53.1459 50.801 53.4196C50.7618 53.6595 50.79 53.9055 50.8824 54.1302C50.9316 54.2408 51.0125 54.3343 51.1148 54.399C51.2172 54.4637 51.3363 54.4966 51.4574 54.4937C51.0275 55.0813 50.7667 55.7754 50.7034 56.5007C50.6972 56.8662 50.8037 57.2247 51.0085 57.5275C51.2133 57.8303 51.5064 58.0627 51.8479 58.193C51.338 58.8006 50.9095 59.56 51.1536 60.314C51.281 60.6911 51.5005 61.0306 51.7922 61.3015C52.084 61.5724 52.4387 61.7662 52.8243 61.8653C52.6344 62.5976 52.1625 63.4926 52.6344 64.0676C53.2203 64.8053 54.5275 64.7782 54.9127 65.6352C54.5926 65.8034 54.24 65.9119 53.92 66.08C53.8586 66.3361 53.8648 66.6037 53.938 66.8567C54.0112 67.1097 54.1489 67.3392 54.3377 67.5229C54.5655 67.7073 54.8801 67.4795 55.1622 67.4036C55.2987 67.3481 55.4468 67.327 55.5934 67.3422C55.74 67.3573 55.8806 67.4082 56.0029 67.4903C56.0745 67.5588 56.1261 67.6455 56.1519 67.7411C56.1777 67.8368 56.1768 67.9376 56.1494 68.0328C56.0897 68.2226 55.1459 68.662 54.9127 68.7488C55.6649 68.745 56.3849 68.4426 56.9142 67.908C57.1736 67.6569 57.3678 67.3463 57.4803 67.0033C57.5928 66.6602 57.62 66.2949 57.5597 65.939C57.3482 64.968 56.4098 64.3551 55.5527 63.8506C55.3846 63.753 55.1296 63.5523 55.2761 63.4221C55.4352 63.3148 55.6285 63.2704 55.8185 63.2973C56.0109 63.3362 56.2104 63.3192 56.3935 63.2485C56.635 62.8347 56.8176 62.3893 56.9359 61.925C57.0072 61.6955 57.0324 61.4542 57.01 61.215C56.9877 60.9757 56.9183 60.7432 56.8057 60.5309C56.6089 60.24 56.3564 59.9911 56.0626 59.7987C55.8402 59.6103 55.5869 59.4617 55.3141 59.3593C55.0049 59.2671 54.6089 59.2562 54.4624 58.9687C54.4119 58.8423 54.407 58.7022 54.4486 58.5725C54.4901 58.4428 54.5756 58.3316 54.6903 58.2581C54.9221 58.1166 55.1747 58.0123 55.4388 57.949C55.7047 57.8862 55.9372 57.7254 56.0897 57.4987C56.1939 57.3306 56.2565 57.1401 56.2725 56.943C56.2886 56.7459 56.2575 56.5478 56.1819 56.3651C56.051 56.2329 55.894 56.1294 55.7209 56.0613C55.0768 55.6318 54.5613 55.0357 54.2292 54.3363C54.1841 54.2726 54.1578 54.1974 54.1532 54.1194C54.1532 53.9404 54.4082 53.8644 54.5763 53.9241C54.7344 54.0077 54.8866 54.102 55.032 54.2062C55.1947 54.2875 55.428 54.2767 55.5039 54.1139C55.6938 53.6909 57.972 51.9442 55.2652 50.0132C55.0428 49.8504 54.9235 49.5629 54.6794 49.4436C54.535 49.3812 54.376 49.3608 54.2205 49.3848C54.065 49.4088 53.9195 49.4762 53.8007 49.5792Z" fill="#263238"/>
<path d="M58.0964 48.4019C60.8574 45.8687 63.9005 46.8885 65.4952 47.7184C66.2971 48.1408 67.0012 48.727 67.5619 49.4391C68.1226 50.1512 68.5273 50.9732 68.7498 51.8518C68.9179 52.5406 68.7498 54.1354 67.41 54.5639C67.0371 53.7616 66.5142 53.038 65.8695 52.4322C64.8714 51.6402 63.0054 51.5588 62.2623 51.7812C61.5426 53.4871 60.5637 55.0716 59.3603 56.4787C58.1778 57.786 56.4366 58.7135 54.6954 58.4694C53.8809 57.4675 53.353 56.2636 53.1677 54.9858C52.9825 53.7079 53.1467 52.4037 53.6431 51.2117C54.7117 48.8684 58.0964 48.4019 58.0964 48.4019Z" fill="#263238"/>
<path d="M54.4567 59.1256C54.575 59.5234 54.7718 59.8934 55.0355 60.2139C55.2991 60.5344 55.6243 60.7988 55.9918 60.9916C56.9681 61.4907 57.6842 60.677 57.6191 59.6355C57.5431 58.6971 56.941 57.3031 55.867 57.2271C55.6343 57.2162 55.4025 57.2631 55.1923 57.3637C54.9822 57.4642 54.8002 57.6153 54.6626 57.8033C54.5251 57.9914 54.4363 58.2105 54.4041 58.4413C54.372 58.672 54.3975 58.9072 54.4784 59.1256H54.4567Z" fill="#F7978D"/>
<path d="M61.7966 56.5817C61.8779 56.9235 62.122 57.1567 62.339 57.1242C62.556 57.0916 62.6699 56.7499 62.594 56.4136C62.518 56.0773 62.2631 55.8386 62.0515 55.8711C61.84 55.9037 61.7152 56.24 61.7966 56.5817Z" fill="#263238"/>
<path d="M65.647 55.6704C65.7229 56.0121 65.967 56.2454 66.1894 56.2128C66.4118 56.1803 66.5257 55.844 66.4443 55.4968C66.363 55.1497 66.1189 54.9273 65.9019 54.9544C65.6849 54.9815 65.5602 55.3287 65.647 55.6704Z" fill="#263238"/>
<path d="M65.8105 54.9979L66.57 54.5693C66.57 54.5693 66.3042 55.3287 65.8105 54.9979Z" fill="#263238"/>
<path d="M64.7793 56.4951C65.2667 57.1991 65.8469 57.8341 66.5042 58.3828C66.364 58.5533 66.1876 58.6905 65.9877 58.7843C65.7879 58.8782 65.5696 58.9263 65.3489 58.9252L64.7793 56.4951Z" fill="#FF5652"/>
<path d="M64.5028 60.2111C64.5199 60.1962 64.5316 60.1762 64.5361 60.154C64.5406 60.1318 64.5377 60.1088 64.5279 60.0884C64.518 60.068 64.5017 60.0515 64.4815 60.0413C64.4613 60.0311 64.4383 60.0279 64.416 60.0321C63.9982 60.156 63.557 60.1798 63.1283 60.1015C62.6995 60.0233 62.2952 59.8453 61.948 59.5819C61.9273 59.5686 61.9026 59.5631 61.8783 59.5664C61.854 59.5697 61.8316 59.5815 61.8152 59.5999C61.7989 59.6182 61.7896 59.6417 61.7891 59.6663C61.7886 59.6908 61.7968 59.7147 61.8124 59.7337C62.1833 60.0252 62.6194 60.2223 63.0833 60.3083C63.5471 60.3942 64.0249 60.3665 64.4757 60.2274L64.5028 60.2111Z" fill="#263238"/>
<path d="M60.6026 55.4806C60.6316 55.4588 60.6556 55.431 60.6731 55.3992C60.7693 55.1605 60.9207 54.9481 61.115 54.7793C61.3092 54.6105 61.5407 54.4902 61.7905 54.4282C61.8179 54.4248 61.8444 54.4159 61.8684 54.402C61.8923 54.3882 61.9132 54.3696 61.9298 54.3475C61.9465 54.3254 61.9585 54.3001 61.9651 54.2732C61.9718 54.2464 61.9729 54.2185 61.9686 54.1911C61.9642 54.1638 61.9544 54.1377 61.9397 54.1142C61.925 54.0908 61.9057 54.0705 61.883 54.0547C61.8603 54.0388 61.8346 54.0277 61.8076 54.022C61.7805 54.0163 61.7525 54.0161 61.7254 54.0214C61.4074 54.0939 61.1114 54.2415 60.8622 54.452C60.613 54.6624 60.418 54.9296 60.2934 55.2311C60.2828 55.2563 60.2773 55.2834 60.2773 55.3108C60.2774 55.3382 60.2828 55.3653 60.2934 55.3906C60.304 55.4158 60.3196 55.4387 60.3391 55.4579C60.3587 55.4771 60.3818 55.4921 60.4073 55.5023C60.4388 55.5162 60.4735 55.5216 60.5078 55.5178C60.5421 55.514 60.5748 55.5011 60.6026 55.4806Z" fill="#263238"/>
<path d="M66.7435 54.0111H66.7707C66.79 53.9919 66.8054 53.9691 66.8159 53.944C66.8263 53.9189 66.8317 53.8919 66.8317 53.8647C66.8317 53.8374 66.8263 53.8104 66.8159 53.7853C66.8054 53.7602 66.79 53.7374 66.7707 53.7182C66.5388 53.4959 66.258 53.3311 65.9509 53.2369C65.6439 53.1427 65.319 53.1217 65.0023 53.1758C64.9502 53.1887 64.9052 53.2214 64.8768 53.267C64.8485 53.3126 64.839 53.3674 64.8505 53.4199C64.8568 53.4462 64.8683 53.4711 64.8843 53.493C64.9003 53.515 64.9205 53.5335 64.9437 53.5476C64.9668 53.5617 64.9926 53.5711 65.0194 53.5753C65.0462 53.5794 65.0736 53.5782 65.1 53.5717C65.3543 53.5283 65.6153 53.546 65.8615 53.6234C66.1077 53.7007 66.3319 53.8355 66.5157 54.0165C66.5495 54.0396 66.5896 54.0515 66.6305 54.0505C66.6714 54.0495 66.7109 54.0358 66.7435 54.0111Z" fill="#263238"/>
<path d="M61.959 55.9144L62.7238 55.4805C62.7238 55.4805 62.458 56.2236 61.959 55.9144Z" fill="#263238"/>
<path d="M103.452 179.29C103.237 179.29 103.03 179.204 102.877 179.052C102.724 178.899 102.639 178.692 102.639 178.476V24.4797C102.639 24.2639 102.724 24.0569 102.877 23.9043C103.03 23.7517 103.237 23.666 103.452 23.666C103.668 23.666 103.875 23.7517 104.028 23.9043C104.18 24.0569 104.266 24.2639 104.266 24.4797V178.46C104.268 178.568 104.249 178.676 104.209 178.776C104.169 178.877 104.109 178.969 104.033 179.046C103.958 179.123 103.867 179.185 103.767 179.227C103.668 179.268 103.561 179.29 103.452 179.29Z" fill="#263238"/>
<path d="M122.84 33.5599H84.2238C84.008 33.5599 83.8011 33.4742 83.6485 33.3216C83.4959 33.169 83.4102 32.9621 83.4102 32.7463C83.4102 32.5305 83.4959 32.3235 83.6485 32.1709C83.8011 32.0183 84.008 31.9326 84.2238 31.9326H122.84C123.055 31.9326 123.262 32.0183 123.415 32.1709C123.567 32.3235 123.653 32.5305 123.653 32.7463C123.653 32.9621 123.567 33.169 123.415 33.3216C123.262 33.4742 123.055 33.5599 122.84 33.5599Z" fill="#263238"/>
<path d="M92.6039 187.35L101.673 186.455V171.81H105.27V186.455L114.377 187.35C114.813 187.393 115.217 187.597 115.511 187.922C115.805 188.247 115.967 188.67 115.966 189.108V190.469H90.9766V189.108C90.9766 188.664 91.1442 188.236 91.4459 187.91C91.7476 187.584 92.1611 187.384 92.6039 187.35Z" fill="#263238"/>
<path opacity="0.2" d="M92.6039 187.35L101.673 186.455V171.81H105.27V186.455L114.377 187.35C114.813 187.393 115.217 187.597 115.511 187.922C115.805 188.247 115.967 188.67 115.966 189.108V190.469H90.9766V189.108C90.9766 188.664 91.1442 188.236 91.4459 187.91C91.7476 187.584 92.1611 187.384 92.6039 187.35Z" fill="white"/>
<path d="M112.641 192.156C112.64 192.622 112.777 193.078 113.035 193.466C113.293 193.854 113.66 194.156 114.09 194.335C114.52 194.514 114.994 194.562 115.451 194.471C115.908 194.381 116.328 194.157 116.657 193.828C116.987 193.499 117.212 193.08 117.303 192.623C117.395 192.166 117.348 191.693 117.17 191.262C116.992 190.832 116.691 190.464 116.303 190.205C115.916 189.946 115.461 189.808 114.995 189.808C114.686 189.807 114.38 189.867 114.094 189.985C113.809 190.103 113.549 190.275 113.33 190.494C113.112 190.712 112.938 190.971 112.82 191.256C112.702 191.542 112.641 191.847 112.641 192.156Z" fill="#263238"/>
<path d="M94.3079 192.156C94.309 192.622 94.1717 193.078 93.9134 193.466C93.6552 193.854 93.2875 194.157 92.8572 194.336C92.4268 194.515 91.953 194.562 91.4958 194.471C91.0387 194.38 90.6187 194.156 90.2891 193.826C89.9596 193.497 89.7352 193.077 89.6446 192.62C89.5539 192.163 89.601 191.689 89.7798 191.258C89.9587 190.828 90.2613 190.46 90.6492 190.202C91.0372 189.944 91.4931 189.807 91.9592 189.808C92.2676 189.808 92.573 189.868 92.858 189.986C93.143 190.104 93.4019 190.277 93.62 190.496C93.8381 190.714 94.0111 190.973 94.1291 191.258C94.2472 191.542 94.3079 191.848 94.3079 192.156Z" fill="#263238"/>
<path d="M98.3814 54.8182C97.7359 56.0604 96.7541 57.1507 96.5208 57.1507C96.4395 57.1507 96.3364 57.3785 96.2333 57.6931C96.0914 58.1094 95.8212 58.4701 95.4617 58.7234C95.1021 58.9768 94.6716 59.1098 94.2318 59.1034H89.6699C89.2301 59.1098 88.7996 58.9768 88.44 58.7234C88.0805 58.4701 87.8103 58.1094 87.6683 57.6931C87.5707 57.3948 87.4676 57.1507 87.3809 57.1507C87.1368 57.1507 86.1658 56.0658 85.5203 54.8182C84.8748 53.5706 85.6017 48.9111 85.9271 47.1211C86.2526 45.331 84.8748 41.4472 85.9271 39.8904C86.8276 38.5561 97.0741 38.5561 97.9745 39.8904C99.0269 41.4472 97.6545 45.3148 97.9745 47.1211C98.2946 48.9274 99.0269 53.576 98.3814 54.8182Z" fill="#BB0A08"/>
<path opacity="0.5" d="M98.3814 54.8182C97.7359 56.0604 96.7541 57.1507 96.5208 57.1507C96.4395 57.1507 96.3364 57.3785 96.2333 57.6931C96.0914 58.1094 95.8212 58.4701 95.4617 58.7234C95.1021 58.9768 94.6716 59.1098 94.2318 59.1034H89.6699C89.2301 59.1098 88.7996 58.9768 88.44 58.7234C88.0805 58.4701 87.8103 58.1094 87.6683 57.6931C87.5707 57.3948 87.4676 57.1507 87.3809 57.1507C87.1368 57.1507 86.1658 56.0658 85.5203 54.8182C84.8748 53.5706 85.6017 48.9111 85.9271 47.1211C86.2526 45.331 84.8748 41.4472 85.9271 39.8904C86.8276 38.5561 97.0741 38.5561 97.9745 39.8904C99.0269 41.4472 97.6545 45.3148 97.9745 47.1211C98.2946 48.9274 99.0269 53.576 98.3814 54.8182Z" fill="white"/>
<path d="M93.6892 37.0264H90.1688L89.084 39.0659H94.7741L93.6892 37.0264ZM92.0077 38.5126C91.1127 38.5126 90.3804 38.2848 90.3804 38.0136C90.3804 37.7424 91.1073 37.5146 92.0077 37.5146C92.9081 37.5146 93.635 37.737 93.635 38.0136C93.635 38.2902 92.9027 38.5126 92.0077 38.5126Z" fill="#BB0A08"/>
<path d="M86.8338 47.1263C87.1158 45.499 85.9171 41.9894 86.8338 40.5791C87.6203 39.3695 96.5325 39.3695 97.3244 40.5791C98.2357 41.9894 97.0423 45.5044 97.3244 47.1263C97.6065 48.7481 98.2357 52.9683 97.6716 54.0965C97.1074 55.2248 96.2667 56.2066 96.0443 56.2066C95.9737 56.2066 95.8815 56.4181 95.7948 56.6894C95.7048 56.9794 95.5434 57.2421 95.3254 57.4535C95.1074 57.6649 94.8398 57.8181 94.5472 57.899L94.6014 60.7142C94.6014 60.8351 94.5534 60.951 94.4679 61.0364C94.3825 61.1218 94.2666 61.1699 94.1458 61.1699C94.0244 61.1699 93.9079 61.122 93.8216 61.0367C93.7353 60.9514 93.6861 60.8355 93.6847 60.7142L93.6467 58.5119C93.6467 58.3681 93.5896 58.2301 93.4878 58.1284C93.3861 58.0266 93.2481 57.9695 93.1043 57.9695H93.0555C92.9116 57.9695 92.7736 58.0266 92.6719 58.1284C92.5702 58.2301 92.513 58.3681 92.513 58.5119L92.551 60.6817C92.551 60.8025 92.503 60.9184 92.4176 61.0039C92.3321 61.0893 92.2162 61.1373 92.0954 61.1373C91.9745 61.1373 91.8586 61.0893 91.7732 61.0039C91.6877 60.9184 91.6397 60.8025 91.6397 60.6817L91.5963 58.4794C91.5963 58.3355 91.5392 58.1976 91.4375 58.0958C91.3357 57.9941 91.1978 57.937 91.0539 57.937H90.761C90.6171 57.937 90.4792 57.9941 90.3774 58.0958C90.2757 58.1976 90.2186 58.3355 90.2186 58.4794L90.2619 60.6491C90.2496 60.7621 90.196 60.8665 90.1115 60.9424C90.0269 61.0183 89.9172 61.0603 89.8036 61.0603C89.69 61.0603 89.5803 61.0183 89.4957 60.9424C89.4111 60.8665 89.3575 60.7621 89.3452 60.6491L89.291 57.6929C89.0782 57.58 88.89 57.426 88.7373 57.2397C88.5846 57.0535 88.4704 56.8388 88.4014 56.608C88.3146 56.3368 88.2224 56.1252 88.1519 56.1252C87.9403 56.1252 87.0941 55.138 86.5246 54.0152C85.955 52.8923 86.5897 48.6613 86.8717 47.0449" fill="white"/>
<path d="M96.0163 44.4799C96.0163 44.8379 95.7343 45.0223 95.1864 45.0223H94.1016V42.9502H95.1105C95.6529 42.9502 95.897 43.1672 95.897 43.4926C95.8994 43.5871 95.8745 43.6802 95.8255 43.761C95.7765 43.8418 95.7053 43.9068 95.6204 43.9483C95.7359 43.9806 95.8374 44.0504 95.909 44.1466C95.9806 44.2427 96.0184 44.3599 96.0163 44.4799ZM94.5952 43.3353V43.8235H95.0725C95.3058 43.8235 95.4305 43.7367 95.4305 43.574C95.4305 43.4113 95.3058 43.3353 95.0725 43.3353H94.5952ZM95.5336 44.4202C95.5336 44.2466 95.4034 44.1652 95.1539 44.1652H94.6114V44.6751H95.1539C95.4034 44.6751 95.5336 44.5992 95.5336 44.4202Z" fill="black"/>
<path d="M97.3244 47.1263C97.601 48.7536 98.2357 52.9683 97.6716 54.0966C97.1074 55.2248 96.2667 56.2066 96.0443 56.2066C95.9737 56.2066 95.8815 56.4182 95.7948 56.6894C95.7048 56.9794 95.5434 57.2422 95.3254 57.4535C95.1074 57.6649 94.8398 57.8181 94.5472 57.899L94.6014 60.7142C94.6014 60.8351 94.5534 60.951 94.4679 61.0364C94.3825 61.1219 94.2666 61.1699 94.1458 61.1699C94.0244 61.1699 93.9079 61.1221 93.8216 61.0368C93.7353 60.9515 93.6861 60.8356 93.6847 60.7142L93.6467 58.512C93.6467 58.3681 93.5896 58.2301 93.4878 58.1284C93.3861 58.0267 93.2481 57.9695 93.1043 57.9695H93.0555C92.9116 57.9695 92.7736 58.0267 92.6719 58.1284C92.5702 58.2301 92.513 58.3681 92.513 58.512L92.551 60.6817C92.551 60.8025 92.503 60.9184 92.4176 61.0039C92.3321 61.0893 92.2162 61.1373 92.0954 61.1373C91.9745 61.1373 91.8586 61.0893 91.7732 61.0039C91.6877 60.9184 91.6397 60.8025 91.6397 60.6817L91.5963 58.4794C91.5963 58.3355 91.5392 58.1976 91.4375 58.0959C91.3357 57.9941 91.1978 57.937 91.0539 57.937H90.761C90.6171 57.937 90.4792 57.9941 90.3774 58.0959C90.2757 58.1976 90.2186 58.3355 90.2186 58.4794L90.2619 60.6491C90.2496 60.7621 90.196 60.8666 90.1115 60.9424C90.0269 61.0183 89.9172 61.0603 89.8036 61.0603C89.69 61.0603 89.5803 61.0183 89.4957 60.9424C89.4111 60.8666 89.3575 60.7621 89.3452 60.6491L89.291 57.6929C89.0782 57.58 88.89 57.426 88.7373 57.2398C88.5846 57.0535 88.4704 56.8388 88.4014 56.608C88.3146 56.3368 88.2224 56.1253 88.1519 56.1253C87.9403 56.1253 87.0941 55.138 86.5246 54.0152C85.955 52.8924 86.5897 48.6614 86.8717 47.0449C88.4815 47.9204 90.2847 48.379 92.1171 48.379C93.9494 48.379 95.7527 47.9204 97.3624 47.0449L97.3244 47.1263Z" fill="#BB0A08"/>
<path opacity="0.2" d="M88.9805 60.0088H90.5318V60.958C90.5304 61.1168 90.4663 61.2685 90.3536 61.3803C90.2408 61.492 90.0885 61.5547 89.9297 61.5547H89.5771C89.4189 61.5547 89.2671 61.4919 89.1552 61.38C89.0433 61.2681 88.9805 61.1163 88.9805 60.958V60.0088Z" fill="white"/>
<path opacity="0.2" d="M93.3848 60.0088H94.9307V60.958C94.9307 61.1163 94.8678 61.2681 94.7559 61.38C94.644 61.4919 94.4923 61.5547 94.334 61.5547H93.9814C93.8232 61.5547 93.6714 61.4919 93.5595 61.38C93.4476 61.2681 93.3848 61.1163 93.3848 60.958V60.0088Z" fill="white"/>
<path d="M93.7552 38.757C93.2047 38.7555 92.6771 38.5362 92.2878 38.1469C91.8985 37.7576 91.6792 37.23 91.6777 36.6794V32.7468C91.6777 32.6749 91.7063 32.6059 91.7572 32.555C91.808 32.5042 91.877 32.4756 91.949 32.4756C92.0209 32.4756 92.0899 32.5042 92.1407 32.555C92.1916 32.6059 92.2202 32.6749 92.2202 32.7468V36.6794C92.2202 37.0866 92.3819 37.477 92.6698 37.7649C92.9577 38.0528 93.3481 38.2145 93.7552 38.2145C94.1624 38.2145 94.5528 38.0528 94.8407 37.7649C95.1286 37.477 95.2903 37.0866 95.2903 36.6794V36.1913C95.2903 36.1193 95.3189 36.0503 95.3698 35.9995C95.4206 35.9486 95.4896 35.92 95.5615 35.92C95.6335 35.92 95.7025 35.9486 95.7533 35.9995C95.8042 36.0503 95.8328 36.1193 95.8328 36.1913V36.6794C95.8313 37.23 95.612 37.7576 95.2227 38.1469C94.8334 38.5362 94.3058 38.7555 93.7552 38.757Z" fill="#BB0A08"/>
<path d="M135.039 112.348H127.445C122.768 112.35 118.136 111.43 113.815 109.641C109.494 107.852 105.568 105.229 102.261 101.921C98.9539 98.6144 96.3309 94.6882 94.5418 90.367C92.7527 86.0459 91.8326 81.4146 91.834 76.7377V60.877H92.3764V76.7377C92.375 81.3433 93.2811 85.9041 95.0429 90.1594C96.8048 94.4148 99.3878 98.2812 102.644 101.538C105.901 104.795 109.768 107.378 114.023 109.139C118.278 110.901 122.839 111.807 127.445 111.806H135.039V112.348Z" fill="#BB0A08"/>
<path d="M137.072 112.571H132.982L133.286 111.584H137.316L137.072 112.571Z" fill="white"/>
<path d="M136.651 111.079C135.821 111.361 134.909 112.766 134.823 113.482H133.9C133.9 112.674 134.86 111.312 135.734 111.079H136.651Z" fill="#BB0A08"/>
</svg>
