<?xml version="1.0" encoding="utf-8"?>
<!-- Generator: Adobe Illustrator 28.1.0, SVG Export Plug-In . SVG Version: 6.00 Build 0)  -->
<svg version="1.1" id="logos" xmlns="http://www.w3.org/2000/svg" xmlns:xlink="http://www.w3.org/1999/xlink" x="0px" y="0px"
	 viewBox="0 0 267.8 84" style="enable-background:new 0 0 267.8 84;" xml:space="preserve">
<style type="text/css">
	.st0{fill:#BB0A08;}
	.st1{fill:#262626;}
	.st2{fill:#F2F2F2;}
</style>
<g>
	<g>
		<path class="st0" d="M33.8,18.2c0,0-15.6,23.4-15.6,32s7,15.6,15.6,15.6c8.6,0,15.6-7,15.6-15.6S33.8,18.2,33.8,18.2z M44.3,50.3
			c-1,5-5.4,8.6-10.5,8.6s-9.5-3.6-10.5-8.6c-0.1-0.5,0.2-1,0.8-1.1c0.5-0.1,1,0.2,1.1,0.8c0.8,4.1,4.5,7,8.6,7c4.2,0,7.8-3,8.6-7
			c0.1-0.5,0.6-0.9,1.1-0.8C44.1,49.3,44.4,49.8,44.3,50.3z"/>
	</g>
	<g>
		<path class="st0" d="M76.9,37.7c-3,0-5.6,1.3-6.9,4.4V31.5c0-0.5-0.4-0.9-0.9-0.9h-7.8c-0.5,0-0.9,0.4-0.9,0.9v27.2H70v-6
			c0-5.4,0.8-8.6,2.7-8.6c1.1,0,1.3,1.3,1.3,3.5v11.1h9.4V45.6C83.3,40.7,81.7,37.7,76.9,37.7z"/>
		<path class="st0" d="M95.1,51.4c5.7-0.4,10.9-2.7,10.9-7.5c0-4.1-3.9-6.2-8.8-6.2c-7.1,0-12.4,4.2-12.4,11.7c0,7.9,6,10.2,12,10.2
			c3.3,0,5.9-0.7,7.9-2c0.2-0.1,0.4-0.4,0.4-0.7l0.2-4.2c0-0.6-0.6-1.1-1.2-0.8c-1.6,0.8-3.6,1.1-5.2,1.1C97,53,95.8,52.5,95.1,51.4
			z M96.8,42.9c0.6,0,1.3,0.2,1.3,1.3c0,1.6-1.6,2.5-3.8,2.9C94.5,44.3,95.3,42.9,96.8,42.9z"/>
		<path class="st0" d="M136,37.7c-3.1,0-5.4,1.4-6.6,5.1c-0.4-3.2-2.4-5.1-6-5.1c-3.2,0-5.5,1.5-6.7,5.4l-0.5-3.9
			c-0.1-0.4-0.4-0.8-0.8-0.8h-7c-0.5,0-0.9,0.4-0.9,0.9v19.4h9.4v-6c0-5.4,0-8.6,1.9-8.6c1,0,1.3,1.3,1.3,3.5v11.1h9.4v-6
			c0-5.4,0-8.6,1.9-8.6c1.1,0,1.3,1.3,1.3,3.5v11.1h9.4V45.6C142.2,40.7,140.5,37.7,136,37.7z"/>
		<path class="st0" d="M155.4,37.7c-7.1,0-11.9,4.1-11.9,11.2c0,7.1,4.8,10.7,11.7,10.7c7,0,11.7-3.6,11.7-10.8
			C167.1,42,162.7,37.7,155.4,37.7z M155.3,54.4c-1.5,0-2.2-1.3-2.2-5.8c0-4.1,0.5-5.7,2.2-5.7c1.7,0,2.1,1.6,2.1,5.7
			C157.5,53,157,54.4,155.3,54.4z"/>
		<path class="st1" d="M179.8,55.8c-4.2,0-6.2-2.6-6.2-6.7c0-4.8,2.7-7.2,6.6-7.2c1,0,2,0.2,2.9,0.5c0.5,0.2,1.1-0.2,1.1-0.8
			l0.1-1.6c0-0.4-0.2-0.7-0.5-0.8c-1.4-0.6-3.1-0.8-4.6-0.8c-6.1,0-10.5,3.7-10.5,10.6c0,6.4,3.6,10.3,10,10.3c1.7,0,4-0.4,5.5-1.4
			c0.2-0.2,0.4-0.4,0.4-0.7v-1.4c0-0.6-0.6-1-1.2-0.8C182.4,55.6,181.2,55.8,179.8,55.8z"/>
		<path class="st1" d="M188.8,30.2c-2.2-0.4-4.1,1.7-3.4,3.9c0.3,0.8,1,1.5,1.8,1.8c2.2,0.8,4.3-1.1,3.9-3.4
			C190.9,31.4,189.9,30.4,188.8,30.2z M185.9,39.8v19h4.6v-19c0-0.5-0.4-0.9-0.9-0.9h-2.9C186.2,39,185.9,39.4,185.9,39.8z"/>
		<path class="st1" d="M201.8,38.4c-6,0-9.9,4-9.9,10.5c0,6.5,3.8,10.4,9.8,10.4c6,0,9.9-3.9,9.9-10.4
			C211.6,42.5,208,38.4,201.8,38.4z M201.8,56.5c-3.3,0-5.1-2.5-5.1-7.6c0-5,1.8-7.5,5.1-7.5c3.3,0,5.1,2.6,5.1,7.5
			C206.9,53.9,205.1,56.5,201.8,56.5z"/>
		<path class="st1" d="M225.2,38.4c-3.4,0-6,1.9-7.5,5.1l-0.3-3.7c0-0.4-0.4-0.8-0.8-0.8h-2.6c-0.5,0-0.9,0.4-0.9,0.9v19h4.6V50
			c0-4.3,2.4-8.2,5.7-8.2c2.4,0,2.9,2.1,2.9,5.7v11.2h4.6V45.9C230.9,40.6,229,38.4,225.2,38.4z"/>
		<path class="st1" d="M237,50.4c6.6,0.1,12.6-2.1,12.6-6.9c0-3.4-3-5-6.8-5c-6.2,0-10.7,4.3-10.7,11.1c0,6.6,4.4,9.8,10,9.8
			c2.5,0,5-0.6,6.9-1.9c0.2-0.2,0.3-0.4,0.3-0.7l0-1.3c0-0.7-0.7-1.1-1.3-0.8c-1.6,0.9-3.5,1.2-5.1,1.2
			C239.3,55.9,237.4,53.9,237,50.4z M242.6,41.3c1.3,0,3,0.4,3,2.3c0,3.1-4.3,4.2-8.6,4.3C237.2,43.6,239.6,41.3,242.6,41.3z"/>
	</g>
</g>
</svg>
