<svg width="13" height="11" viewBox="0 0 13 11" fill="none" xmlns="http://www.w3.org/2000/svg">
<path d="M2.50039 3.00027C2.30327 3.00079 2.108 2.96221 1.92588 2.88677C1.74376 2.81133 1.57841 2.70053 1.43939 2.56077L0.667392 1.87377C0.568333 1.78545 0.508416 1.6614 0.500821 1.52891C0.493226 1.39642 0.538575 1.26633 0.626892 1.16727C0.715209 1.06821 0.83926 1.0083 0.971754 1.0007C1.10425 0.993105 1.23433 1.03845 1.33339 1.12677L2.12589 1.83377C2.17126 1.88472 2.22657 1.92584 2.28843 1.95462C2.35029 1.98339 2.41738 1.9992 2.48557 2.00107C2.55376 2.00294 2.62162 1.99084 2.68496 1.96551C2.74831 1.94018 2.80579 1.90215 2.85389 1.85377L4.65589 0.138272C4.75279 0.0520067 4.87942 0.00678104 5.00904 0.012147C5.13867 0.017513 5.26113 0.0730505 5.35056 0.167029C5.44 0.261008 5.4894 0.386069 5.48835 0.515797C5.48729 0.645526 5.43585 0.769764 5.34489 0.862272L3.55039 2.56927C3.41228 2.70658 3.24845 2.81532 3.06829 2.88927C2.88812 2.96323 2.69514 3.00095 2.50039 3.00027V3.00027ZM12.5004 2.00027C12.5004 1.86766 12.4477 1.74049 12.3539 1.64672C12.2602 1.55295 12.133 1.50027 12.0004 1.50027H7.00039C6.86778 1.50027 6.74061 1.55295 6.64684 1.64672C6.55307 1.74049 6.50039 1.86766 6.50039 2.00027C6.50039 2.13288 6.55307 2.26006 6.64684 2.35383C6.74061 2.44759 6.86778 2.50027 7.00039 2.50027H12.0004C12.133 2.50027 12.2602 2.44759 12.3539 2.35383C12.4477 2.26006 12.5004 2.13288 12.5004 2.00027ZM3.55039 6.56927L5.34489 4.86227C5.39498 4.81768 5.43558 4.76347 5.46429 4.70287C5.493 4.64227 5.50922 4.57651 5.51199 4.50951C5.51477 4.4425 5.50403 4.37563 5.48043 4.31286C5.45684 4.25009 5.42085 4.19271 5.37462 4.14413C5.32839 4.09556 5.27286 4.05678 5.21134 4.0301C5.14982 4.00342 5.08356 3.98939 5.0165 3.98884C4.94944 3.98829 4.88296 4.00124 4.82101 4.02691C4.75906 4.05258 4.70291 4.09046 4.65589 4.13827L2.85589 5.85377C2.76071 5.94479 2.63409 5.99558 2.50239 5.99558C2.3707 5.99558 2.24408 5.94479 2.14889 5.85377L1.35389 5.06127C1.25959 4.97019 1.13329 4.9198 1.00219 4.92093C0.871093 4.92207 0.745687 4.97466 0.652983 5.06736C0.560279 5.16007 0.507694 5.28547 0.506555 5.41657C0.505416 5.54767 0.555813 5.67397 0.646892 5.76827L1.43939 6.56077C1.71923 6.84067 2.09835 6.99863 2.49414 7.00022C2.88993 7.00182 3.27031 6.84691 3.55239 6.56927H3.55039ZM12.5004 6.00027C12.5004 5.86766 12.4477 5.74049 12.3539 5.64672C12.2602 5.55295 12.133 5.50027 12.0004 5.50027H7.00039C6.86778 5.50027 6.74061 5.55295 6.64684 5.64672C6.55307 5.74049 6.50039 5.86766 6.50039 6.00027C6.50039 6.13288 6.55307 6.26006 6.64684 6.35383C6.74061 6.44759 6.86778 6.50027 7.00039 6.50027H12.0004C12.133 6.50027 12.2602 6.44759 12.3539 6.35383C12.4477 6.26006 12.5004 6.13288 12.5004 6.00027ZM3.55039 10.5693L5.34289 8.86227C5.39298 8.81768 5.43358 8.76347 5.46229 8.70287C5.491 8.64227 5.50722 8.57651 5.50999 8.50951C5.51277 8.4425 5.50203 8.37563 5.47843 8.31286C5.45483 8.25009 5.41885 8.19271 5.37262 8.14413C5.32639 8.09556 5.27086 8.05678 5.20934 8.0301C5.14782 8.00342 5.08156 7.98939 5.0145 7.98884C4.94744 7.98829 4.88096 8.00124 4.81901 8.02691C4.75706 8.05259 4.70091 8.09046 4.65389 8.13827L2.85389 9.85377C2.80579 9.90215 2.74831 9.94018 2.68496 9.96551C2.62162 9.99084 2.55376 10.0029 2.48557 10.0011C2.41738 9.9992 2.35029 9.98339 2.28843 9.95462C2.22657 9.92585 2.17126 9.88472 2.12589 9.83377L1.33339 9.12677C1.23433 9.03846 1.10425 8.99311 0.971754 9.0007C0.83926 9.0083 0.715209 9.06821 0.626892 9.16727C0.538575 9.26633 0.493226 9.39642 0.500821 9.52891C0.508416 9.66141 0.568333 9.78546 0.667392 9.87377L1.43939 10.5608C1.71923 10.8407 2.09835 10.9986 2.49414 11.0002C2.88993 11.0018 3.27031 10.8469 3.55239 10.5693H3.55039ZM12.5004 10.0003C12.5004 9.86766 12.4477 9.74049 12.3539 9.64672C12.2602 9.55295 12.133 9.50027 12.0004 9.50027H7.00039C6.86778 9.50027 6.74061 9.55295 6.64684 9.64672C6.55307 9.74049 6.50039 9.86766 6.50039 10.0003C6.50039 10.1329 6.55307 10.2601 6.64684 10.3538C6.74061 10.4476 6.86778 10.5003 7.00039 10.5003H12.0004C12.133 10.5003 12.2602 10.4476 12.3539 10.3538C12.4477 10.2601 12.5004 10.1329 12.5004 10.0003Z" fill="#52575C"/>
</svg>
