<svg width="116" height="177" viewBox="0 0 116 177" fill="none" xmlns="http://www.w3.org/2000/svg">
<path d="M115.881 119C115.881 151 89.94 176.94 57.9413 176.94C25.9413 176.94 0 151 0 119C0 86.9999 57.9413 -6.10352e-05 57.9413 -6.10352e-05C57.9413 -6.10352e-05 115.881 86.9999 115.881 119Z" fill="#BB0A08"/>
<path d="M57.941 151.521C39.0157 151.521 22.5304 138.084 18.7424 119.569C18.333 117.57 19.621 115.62 21.6184 115.21C23.6197 114.8 25.5677 116.09 25.977 118.088C29.0664 133.181 42.5077 144.136 57.941 144.136C73.373 144.136 86.8157 133.181 89.905 118.088C90.313 116.09 92.2637 114.8 94.2637 115.21C96.261 115.62 97.549 117.57 97.1397 119.569C93.3517 138.084 76.8664 151.521 57.941 151.521Z" fill="#F2F2F2"/>
</svg>
