<?xml version="1.0" encoding="UTF-8"?><svg id="a" xmlns="http://www.w3.org/2000/svg" viewBox="0 0 267.83 83.96"><defs><style>.b{fill:#f2f2f2;}.b,.c{stroke-width:0px;}.c{fill:#bb0a08;}</style></defs><path class="c" d="M33.77,18.18s-15.59,23.4-15.59,32.01,6.98,15.59,15.59,15.59,15.59-6.98,15.59-15.59-15.59-32.01-15.59-32.01ZM44.28,50.34c-1.01,4.97-5.44,8.58-10.51,8.58s-9.5-3.61-10.51-8.58c-.11-.52.22-1.03.75-1.14.52-.11,1.03.23,1.14.75.83,4.07,4.46,7.03,8.63,7.03s7.8-2.96,8.63-7.03c.11-.52.62-.86,1.14-.75.52.11.86.62.75,1.14Z"/><path class="c" d="M76.95,37.73c-3.01,0-5.56,1.29-6.87,4.45v-10.63c0-.47-.38-.85-.85-.85h-7.78c-.47,0-.85.38-.85.85v27.24h9.37v-6c0-5.35.78-8.64,2.72-8.64,1.06,0,1.29,1.29,1.29,3.52v11.11h9.36v-13.23c0-4.91-1.63-7.84-6.38-7.84Z"/><path class="c" d="M95.08,51.39c5.74-.44,10.85-2.74,10.85-7.5,0-4.13-3.91-6.16-8.78-6.16-7.07,0-12.4,4.25-12.4,11.66,0,7.89,6,10.2,12.01,10.2,3.32,0,5.93-.74,7.92-2.03.23-.15.36-.4.38-.67l.21-4.19c.03-.64-.63-1.09-1.2-.81-1.63.79-3.58,1.14-5.19,1.14-1.88,0-3.08-.51-3.79-1.63ZM96.84,42.92c.58,0,1.32.19,1.32,1.29,0,1.6-1.59,2.52-3.82,2.92.12-2.8,1.01-4.21,2.5-4.21Z"/><path class="c" d="M136.04,37.73c-3.08,0-5.43,1.43-6.63,5.07-.42-3.2-2.42-5.07-5.97-5.07-3.16,0-5.54,1.52-6.71,5.38l-.45-3.85c-.05-.43-.41-.75-.84-.75h-6.98c-.47,0-.85.38-.85.85v19.43h9.37v-6c0-5.35,0-8.64,1.94-8.64,1.05,0,1.29,1.29,1.29,3.52v11.11h9.36v-6c0-5.44,0-8.64,1.94-8.64,1.07,0,1.29,1.29,1.29,3.52v11.11h9.37v-13.23c0-4.91-1.64-7.84-6.12-7.84Z"/><path class="c" d="M155.43,37.73c-7.06,0-11.85,4.06-11.85,11.16s4.79,10.7,11.74,10.7,11.75-3.64,11.75-10.77-4.37-11.08-11.63-11.08ZM155.35,54.38c-1.51,0-2.21-1.29-2.21-5.78,0-4.13.54-5.69,2.21-5.69s2.15,1.64,2.15,5.69c0,4.37-.5,5.78-2.15,5.78Z"/><path class="b" d="M179.77,55.83c-4.25,0-6.24-2.65-6.24-6.74,0-4.84,2.69-7.18,6.59-7.18.97,0,1.99.16,2.9.5.53.2,1.09-.19,1.14-.75l.13-1.58c.03-.35-.16-.7-.48-.84-1.36-.57-3.11-.81-4.58-.81-6.12,0-10.46,3.67-10.46,10.61,0,6.36,3.63,10.3,9.98,10.3,1.73,0,3.96-.4,5.49-1.38.24-.15.37-.43.37-.71v-1.39c0-.62-.64-1.03-1.19-.77-1.06.5-2.24.74-3.65.74Z"/><path class="b" d="M188.76,30.21c-2.22-.4-4.11,1.68-3.35,3.86.29.84.97,1.52,1.81,1.81,2.18.75,4.27-1.13,3.86-3.35-.21-1.16-1.16-2.11-2.32-2.32ZM185.86,39.83v18.96h4.64v-18.96c0-.47-.38-.85-.85-.85h-2.94c-.47,0-.85.38-.85.85Z"/><path class="b" d="M201.82,38.43c-6.05,0-9.87,4.01-9.87,10.53s3.82,10.38,9.83,10.38,9.87-3.86,9.87-10.43-3.67-10.48-9.83-10.48ZM201.82,56.45c-3.27,0-5.11-2.49-5.11-7.61s1.79-7.53,5.11-7.53,5.07,2.62,5.07,7.53-1.79,7.61-5.07,7.61Z"/><path class="b" d="M225.18,38.43c-3.43,0-6.05,1.92-7.49,5.06l-.26-3.72c-.03-.45-.4-.79-.85-.79h-2.64c-.47,0-.85.38-.85.85v18.96h4.64v-8.78c0-4.28,2.42-8.15,5.65-8.15,2.39,0,2.9,2.15,2.9,5.74v11.2h4.64v-12.91c0-5.31-1.95-7.45-5.74-7.45Z"/><path class="b" d="M237.01,50.37c6.59.08,12.64-2.06,12.64-6.9,0-3.4-2.97-5.04-6.83-5.04-6.16,0-10.69,4.29-10.69,11.11s4.37,9.8,9.97,9.8c2.54,0,5.01-.59,6.89-1.93.22-.15.34-.41.35-.68l.03-1.34c.01-.66-.69-1.06-1.28-.75-1.64.87-3.47,1.23-5.09,1.23-3.69,0-5.6-2-6-5.51ZM242.62,41.28c1.29,0,2.97.39,2.97,2.34,0,3.08-4.26,4.22-8.64,4.33.29-4.3,2.63-6.67,5.66-6.67Z"/></svg>