<svg width="232" height="48" viewBox="0 0 232 48" fill="none" xmlns="http://www.w3.org/2000/svg">
<path d="M15.7992 0.200195C15.7992 0.200195 0.199219 23.6002 0.199219 32.2002C0.199219 40.8002 7.19922 47.8002 15.7992 47.8002C24.3992 47.8002 31.3992 40.8002 31.3992 32.2002C31.3992 23.6002 15.7992 0.200195 15.7992 0.200195ZM26.2992 32.3002C25.2992 37.3002 20.8992 40.9002 15.7992 40.9002C10.6992 40.9002 6.29922 37.3002 5.29922 32.3002C5.19922 31.8002 5.49922 31.3002 6.09922 31.2002C6.59922 31.1002 7.09922 31.4002 7.19922 32.0002C7.99922 36.1002 11.6992 39.0002 15.7992 39.0002C19.9992 39.0002 23.5992 36.0002 24.3992 32.0002C24.4992 31.5002 24.9992 31.1002 25.4992 31.2002C26.0992 31.3002 26.3992 31.8002 26.2992 32.3002Z" fill="#F2F2F2"/>
<path d="M58.8984 19.7006C55.8984 19.7006 53.2984 21.0006 51.9984 24.1006V13.5006C51.9984 13.0006 51.5984 12.6006 51.0984 12.6006H43.2984C42.7984 12.6006 42.3984 13.0006 42.3984 13.5006V40.7006H51.9984V34.7006C51.9984 29.3006 52.7984 26.1006 54.6984 26.1006C55.7984 26.1006 55.9984 27.4006 55.9984 29.6006V40.7006H65.3984V27.6006C65.2984 22.7006 63.6984 19.7006 58.8984 19.7006Z" fill="#F2F2F2"/>
<path d="M77.0988 33.4002C82.7988 33.0002 87.9988 30.7002 87.9988 25.9002C87.9988 21.8002 84.0988 19.7002 79.1988 19.7002C72.0988 19.7002 66.7988 23.9002 66.7988 31.4002C66.7988 39.3002 72.7988 41.6002 78.7988 41.6002C82.0988 41.6002 84.6988 40.9002 86.6988 39.6002C86.8988 39.5002 87.0988 39.2002 87.0988 38.9002L87.2988 34.7002C87.2988 34.1002 86.6988 33.6002 86.0988 33.9002C84.4988 34.7002 82.4988 35.0002 80.8988 35.0002C78.9988 35.0002 77.7988 34.5002 77.0988 33.4002ZM78.7988 24.9002C79.3988 24.9002 80.0988 25.1002 80.0988 26.2002C80.0988 27.8002 78.4988 28.7002 76.2988 29.1002C76.4988 26.3002 77.2988 24.9002 78.7988 24.9002Z" fill="#F2F2F2"/>
<path d="M117.998 19.7002C114.898 19.7002 112.598 21.1002 111.398 24.8002C110.998 21.6002 108.998 19.7002 105.398 19.7002C102.198 19.7002 99.898 21.2002 98.698 25.1002L98.198 21.2002C98.098 20.8002 97.798 20.4002 97.398 20.4002H90.398C89.898 20.4002 89.498 20.8002 89.498 21.3002V40.7002H98.898V34.7002C98.898 29.3002 98.898 26.1002 100.798 26.1002C101.798 26.1002 102.098 27.4002 102.098 29.6002V40.7002H111.498V34.7002C111.498 29.3002 111.498 26.1002 113.398 26.1002C114.498 26.1002 114.698 27.4002 114.698 29.6002V40.7002H124.098V27.6002C124.198 22.7002 122.498 19.7002 117.998 19.7002Z" fill="#F2F2F2"/>
<path d="M137.398 19.7002C130.298 19.7002 125.498 23.8002 125.498 30.9002C125.498 38.0002 130.298 41.6002 137.198 41.6002C144.198 41.6002 148.898 38.0002 148.898 30.8002C149.098 24.0002 144.698 19.7002 137.398 19.7002ZM137.298 36.4002C135.798 36.4002 135.098 35.1002 135.098 30.6002C135.098 26.5002 135.598 24.9002 137.298 24.9002C138.998 24.9002 139.398 26.5002 139.398 30.6002C139.498 35.0002 138.998 36.4002 137.298 36.4002Z" fill="#F2F2F2"/>
<path d="M161.799 37.8004C157.599 37.8004 155.599 35.2004 155.599 31.1004C155.599 26.3004 158.299 23.9004 162.199 23.9004C163.199 23.9004 164.199 24.1004 165.099 24.4004C165.599 24.6004 166.199 24.2004 166.199 23.6004L166.299 22.0004C166.299 21.6004 166.099 21.3004 165.799 21.2004C164.399 20.6004 162.699 20.4004 161.199 20.4004C155.099 20.4004 150.699 24.1004 150.699 31.0004C150.699 37.4004 154.299 41.3004 160.699 41.3004C162.399 41.3004 164.699 40.9004 166.199 39.9004C166.399 39.7004 166.599 39.5004 166.599 39.2004V37.8004C166.599 37.2004 165.999 36.8004 165.399 37.0004C164.399 37.6004 163.199 37.8004 161.799 37.8004Z" fill="#F2F2F2"/>
<path d="M170.798 12.2007C168.598 11.8007 166.698 13.9007 167.398 16.1007C167.698 16.9007 168.398 17.6007 169.198 17.9007C171.398 18.7007 173.498 16.8007 173.098 14.5007C172.898 13.4007 171.898 12.4007 170.798 12.2007ZM167.898 21.8007V40.8007H172.498V21.8007C172.498 21.3007 172.098 20.9007 171.598 20.9007H168.698C168.198 21.0007 167.898 21.4007 167.898 21.8007Z" fill="#F2F2F2"/>
<path d="M183.798 20.4004C177.798 20.4004 173.898 24.4004 173.898 30.9004C173.898 37.4004 177.698 41.3004 183.698 41.3004C189.698 41.3004 193.598 37.4004 193.598 30.9004C193.598 24.5004 189.998 20.4004 183.798 20.4004ZM183.798 38.5004C180.498 38.5004 178.698 36.0004 178.698 30.9004C178.698 25.9004 180.498 23.4004 183.798 23.4004C187.098 23.4004 188.898 26.0004 188.898 30.9004C188.898 35.9004 187.098 38.5004 183.798 38.5004Z" fill="#F2F2F2"/>
<path d="M207.198 20.4004C203.798 20.4004 201.198 22.3004 199.698 25.5004L199.398 21.8004C199.398 21.4004 198.998 21.0004 198.598 21.0004H195.998C195.498 21.0004 195.098 21.4004 195.098 21.9004V40.9004H199.698V32.0004C199.698 27.7004 202.098 23.8004 205.398 23.8004C207.798 23.8004 208.298 25.9004 208.298 29.5004V40.7004H212.898V27.9004C212.898 22.6004 210.998 20.4004 207.198 20.4004Z" fill="#F2F2F2"/>
<path d="M218.998 32.401C225.598 32.501 231.598 30.301 231.598 25.501C231.598 22.101 228.598 20.501 224.798 20.501C218.598 20.501 214.098 24.801 214.098 31.601C214.098 38.201 218.498 41.401 224.098 41.401C226.598 41.401 229.098 40.801 230.998 39.501C231.198 39.301 231.298 39.101 231.298 38.801V37.501C231.298 36.801 230.598 36.401 229.998 36.701C228.398 37.601 226.498 37.901 224.898 37.901C221.298 37.901 219.398 35.901 218.998 32.401ZM224.598 23.301C225.898 23.301 227.598 23.701 227.598 25.601C227.598 28.701 223.298 29.801 218.998 29.901C219.198 25.601 221.598 23.301 224.598 23.301Z" fill="#F2F2F2"/>
</svg>
