<?xml version="1.0" encoding="utf-8"?>
<!-- Generator: Adobe Illustrator 25.0.1, SVG Export Plug-In . SVG Version: 6.00 Build 0)  -->
<svg version="1.1" id="Camada_1" xmlns="http://www.w3.org/2000/svg" xmlns:xlink="http://www.w3.org/1999/xlink" x="0px" y="0px"
	 viewBox="0 0 1920 1800" style="enable-background:new 0 0 1920 1800;" xml:space="preserve">
<style type="text/css">
	.st0{fill:#F3F2F1;}
</style>
<g>
	<g>
		<path class="st0" d="M195.17,1593.02l-35.33-18.99l44.29-82.38l-88.38-47.51l-44.29,82.38l-35.33-18.99l101.34-188.49l35.33,18.99
			l-43.59,81.08l88.38,47.51l43.59-81.08l35.33,18.99L195.17,1593.02z"/>
		<path class="st0" d="M452.57,1455.61l-10.02,30.05l-90-30.01l-18.77,56.3l70.9,23.64l-9.69,29.06l-70.9-23.64l-19.15,57.42
			l90,30.01l-10.07,30.18l-128.04-42.7l67.7-203.02L452.57,1455.61z"/>
		<path class="st0" d="M559.77,1616.9c0.78,3.61,1.54,7.24,2.26,10.89c2.01-3.24,4.06-6.42,6.14-9.54c2.09-3.12,4.24-6.08,6.47-8.88
			l83.98-104.95c1.05-1.31,2.06-2.33,3.05-3.04c0.99-0.72,2.03-1.18,3.12-1.38c1.09-0.2,2.27-0.23,3.55-0.09
			c1.28,0.14,2.79,0.37,4.54,0.7l29.54,5.5l-39.18,210.39l-34.48-6.42l25.31-135.89c0.47-2.52,1.06-5.27,1.76-8.25
			c0.71-2.98,1.49-5.99,2.36-9.04l-85.8,107.47c-1.96,2.45-4.25,4.2-6.85,5.27c-2.61,1.07-5.47,1.32-8.57,0.74l-5.38-1
			c-3.1-0.58-5.68-1.83-7.73-3.77c-2.05-1.94-3.55-4.4-4.5-7.39l-42.15-131.75c-0.21,3.27-0.52,6.45-0.95,9.53
			c-0.42,3.08-0.88,5.93-1.37,8.55l-25.31,135.89l-34.48-6.42l39.18-210.39l29.54,5.5c1.75,0.33,3.24,0.66,4.48,0.99
			c1.24,0.33,2.34,0.79,3.28,1.36c0.95,0.58,1.77,1.38,2.49,2.42c0.71,1.04,1.32,2.35,1.82,3.95l41.1,128.54
			C558.05,1609.78,558.98,1613.29,559.77,1616.9z"/>
		<path class="st0" d="M933.81,1627.13c-0.91,15.66-4.36,30.01-10.36,43.06c-6,13.05-14,24.17-24.03,33.37
			c-10.02,9.2-21.84,16.15-35.46,20.85c-13.61,4.69-28.5,6.57-44.65,5.64c-16.16-0.94-30.75-4.53-43.77-10.77
			c-13.03-6.24-24.02-14.51-32.95-24.82c-8.94-10.3-15.63-22.28-20.08-35.93c-4.45-13.65-6.21-28.31-5.31-43.97
			c0.91-15.66,4.36-30.01,10.36-43.06c5.99-13.04,14.03-24.16,24.1-33.36c10.07-9.2,21.94-16.15,35.6-20.84
			c13.66-4.69,28.57-6.57,44.73-5.63c16.15,0.94,30.72,4.55,43.7,10.84c12.98,6.29,23.91,14.56,32.81,24.81
			c8.89,10.25,15.56,22.2,20.01,35.85C932.95,1596.81,934.72,1611.47,933.81,1627.13z M893.03,1624.76
			c0.68-11.72-0.26-22.33-2.82-31.81c-2.56-9.49-6.56-17.65-11.99-24.49c-5.44-6.84-12.21-12.22-20.34-16.15
			c-8.13-3.93-17.41-6.2-27.85-6.8c-10.44-0.61-19.95,0.57-28.52,3.53c-8.57,2.96-15.98,7.52-22.22,13.69
			c-6.24,6.16-11.2,13.8-14.9,22.93c-3.69,9.13-5.88,19.55-6.56,31.27c-0.68,11.72,0.28,22.33,2.9,31.82
			c2.61,9.49,6.66,17.63,12.15,24.43c5.48,6.79,12.31,12.15,20.49,16.09c8.17,3.94,17.48,6.2,27.92,6.81
			c10.44,0.61,19.92-0.57,28.45-3.54c8.52-2.96,15.88-7.5,22.06-13.62c6.19-6.11,11.1-13.74,14.74-22.86
			C890.19,1646.91,892.35,1636.48,893.03,1624.76z"/>
		<path class="st0" d="M1131.48,1690.69c0.98-0.04,1.84,0.27,2.56,0.92l6.19,6.1c-4.14,4.82-8.69,9.19-13.65,13.11
			c-4.97,3.92-10.42,7.32-16.37,10.2c-5.95,2.88-12.51,5.19-19.7,6.93s-15.11,2.81-23.79,3.19c-14.49,0.63-27.89-1.32-40.18-5.87
			c-12.3-4.55-22.96-11.29-31.99-20.23c-9.03-8.94-16.25-19.91-21.66-32.9c-5.41-13-8.46-27.58-9.17-43.75
			c-0.69-15.87,1.16-30.47,5.57-43.8c4.4-13.32,10.91-24.89,19.52-34.7c8.61-9.81,19.08-17.57,31.42-23.3
			c12.34-5.72,26.1-8.92,41.28-9.58c7.59-0.33,14.56-0.07,20.92,0.79c6.36,0.86,12.32,2.23,17.88,4.11
			c5.56,1.88,10.83,4.29,15.8,7.24c4.97,2.94,9.86,6.38,14.67,10.32l-4.29,6.85c-0.74,1.22-1.94,1.86-3.62,1.93
			c-0.89,0.04-2.04-0.43-3.47-1.4c-1.43-0.98-3.23-2.18-5.42-3.61c-2.19-1.43-4.82-3-7.91-4.69c-3.09-1.69-6.73-3.21-10.94-4.56
			c-4.21-1.35-9.04-2.42-14.51-3.22c-5.47-0.8-11.65-1.05-18.55-0.75c-12.72,0.56-24.3,3.26-34.76,8.11
			c-10.45,4.85-19.35,11.51-26.68,19.98s-12.89,18.59-16.67,30.36c-3.78,11.77-5.36,24.85-4.73,39.24
			c0.64,14.79,3.34,27.9,8.09,39.35c4.75,11.45,11.04,21.02,18.88,28.73c7.84,7.71,16.96,13.48,27.35,17.32
			c10.39,3.84,21.55,5.5,33.47,4.98c7.49-0.33,14.15-1.11,19.97-2.35c5.82-1.24,11.15-2.96,16-5.14c4.84-2.18,9.32-4.8,13.44-7.84
			c4.11-3.04,8.16-6.58,12.13-10.6c0.48-0.41,0.93-0.76,1.36-1.02C1130.38,1690.87,1130.89,1690.72,1131.48,1690.69z"/>
		<path class="st0" d="M1218.3,1716.2l-15.15,1.72l-23.68-208.08l15.15-1.72L1218.3,1716.2z"/>
		<path class="st0" d="M1459.14,1568.17c3.17,15.87,3.67,30.73,1.51,44.6c-2.16,13.86-6.64,26.23-13.42,37.09
			c-6.79,10.86-15.68,19.98-26.69,27.36c-11,7.38-23.81,12.52-38.42,15.44c-14.42,2.88-28.12,3.03-41.11,0.44
			c-12.99-2.59-24.71-7.6-35.14-15.02c-10.44-7.42-19.34-17.12-26.71-29.08c-7.37-11.96-12.63-25.87-15.8-41.74
			c-3.15-15.77-3.62-30.59-1.41-44.47c2.21-13.87,6.71-26.24,13.5-37.1c6.78-10.86,15.68-20.01,26.67-27.43
			c10.99-7.42,23.7-12.58,38.12-15.46c14.61-2.92,28.41-3.08,41.4-0.49c12.99,2.59,24.71,7.62,35.16,15.09
			c10.45,7.48,19.33,17.19,26.65,29.17C1450.75,1538.53,1455.99,1552.4,1459.14,1568.17z M1443.75,1571.24
			c-2.86-14.32-7.41-26.79-13.66-37.42c-6.25-10.62-13.77-19.19-22.56-25.68c-8.79-6.49-18.69-10.83-29.69-13.01
			c-11-2.18-22.69-2.04-35.08,0.44c-12.19,2.43-22.92,6.76-32.19,12.99c-9.27,6.23-16.77,14.04-22.49,23.43
			c-5.72,9.39-9.45,20.2-11.19,32.42c-1.74,12.22-1.17,25.49,1.68,39.81c2.88,14.42,7.46,26.91,13.74,37.48
			c6.28,10.57,13.87,19.09,22.76,25.56c8.89,6.48,18.8,10.79,29.75,12.93c10.94,2.14,22.51,2,34.7-0.44
			c12.38-2.47,23.24-6.8,32.57-12.99c9.33-6.19,16.81-13.97,22.43-23.34c5.62-9.37,9.29-20.14,10.98-32.3
			C1447.22,1598.95,1446.63,1585.66,1443.75,1571.24z"/>
		<path class="st0" d="M1485.02,1451.87c0.86,0.06,1.91,0.49,3.14,1.31l188.93,124.92c-1.28-2.68-2.39-5.33-3.32-7.93l-59.4-165.33
			l12.54-4.5l70.81,197.08l-6.83,2.45c-2.14,0.77-4.19,0.46-6.15-0.94l-189.59-125c1.28,2.69,2.37,5.28,3.27,7.79l59.6,165.88
			l-12.4,4.45l-70.81-197.08l6.96-2.5C1483.08,1452.02,1484.16,1451.82,1485.02,1451.87z"/>
		<path class="st0" d="M1777.87,1315.73l6.37,10.85l-95.09,55.8l42.85,73.01l79.14-46.44l6.22,10.59l-79.14,46.44l44.19,75.31
			l95.09-55.8l6.37,10.85l-108.24,63.52l-105.99-180.62L1777.87,1315.73z"/>
	</g>
	<path class="st0" d="M1349.49,882.87c0,218.93-177.47,396.4-396.4,396.4s-396.4-177.47-396.4-396.4s396.4-814.14,396.4-814.14
		S1349.49,663.95,1349.49,882.87z"/>
</g>
</svg>
