<svg width="190" height="78" viewBox="0 0 190 78" fill="none" xmlns="http://www.w3.org/2000/svg">
<path d="M94.7992 0.200195C94.7992 0.200195 79.1992 23.6002 79.1992 32.2002C79.1992 40.8002 86.1992 47.8002 94.7992 47.8002C103.399 47.8002 110.399 40.8002 110.399 32.2002C110.399 23.6002 94.7992 0.200195 94.7992 0.200195ZM105.299 32.3002C104.299 37.3002 99.8992 40.9002 94.7992 40.9002C89.6992 40.9002 85.2992 37.3002 84.2992 32.3002C84.1992 31.8002 84.4992 31.3002 85.0992 31.2002C85.5992 31.1002 86.0992 31.4002 86.1992 32.0002C86.9992 36.1002 90.6992 39.0002 94.7992 39.0002C98.9992 39.0002 102.599 36.0002 103.399 32.0002C103.499 31.5002 103.999 31.1002 104.499 31.2002C104.999 31.3002 105.399 31.8002 105.299 32.3002Z" fill="#BB0A08"/>
<path d="M16.4996 55.3003C13.4996 55.3003 10.9996 56.6003 9.59961 59.7003V49.2003C9.59961 48.7003 9.19961 48.3003 8.69961 48.3003H0.999609C0.499609 48.3003 0.0996094 48.7003 0.0996094 49.2003V76.5003H9.49961V70.5003C9.49961 65.1003 10.2996 61.9003 12.1996 61.9003C13.1996 61.9003 13.4996 63.2003 13.4996 65.4003V76.5003H22.8996V63.2003C22.8996 58.3003 21.2996 55.3003 16.4996 55.3003Z" fill="#BB0A08"/>
<path d="M34.6994 69.0003C40.3994 68.6003 45.5994 66.3003 45.5994 61.5003C45.5994 57.4003 41.6994 55.3003 36.7994 55.3003C29.6994 55.3003 24.3994 59.6003 24.3994 67.0003C24.3994 74.9003 30.3994 77.2003 36.3994 77.2003C39.6994 77.2003 42.2994 76.5003 44.2994 75.2003C44.4994 75.1003 44.6994 74.8003 44.6994 74.5003L44.8994 70.3003C44.8994 69.7003 44.2994 69.2003 43.6994 69.5003C42.0994 70.3003 40.0994 70.6003 38.4994 70.6003C36.5994 70.6003 35.3994 70.1003 34.6994 69.0003ZM36.3994 60.5003C36.9994 60.5003 37.6994 60.7003 37.6994 61.8003C37.6994 63.4003 36.0994 64.3003 33.8994 64.7003C34.0994 61.9003 34.9994 60.5003 36.3994 60.5003Z" fill="#BB0A08"/>
<path d="M75.6992 55.3003C72.5992 55.3003 70.2992 56.7003 69.0992 60.4003C68.6992 57.2003 66.6992 55.3003 63.0992 55.3003C59.8992 55.3003 57.5992 56.8003 56.3992 60.7003L55.8992 56.8003C55.7992 56.4003 55.4992 56.1003 55.0992 56.1003H48.0992C47.5992 56.1003 47.1992 56.5003 47.1992 57.0003V76.5003H56.5992V70.5003C56.5992 65.1003 56.5992 61.9003 58.5992 61.9003C59.5992 61.9003 59.8992 63.2003 59.8992 65.4003V76.5003H69.2992V70.5003C69.2992 65.1003 69.2992 61.9003 71.2992 61.9003C72.2992 61.9003 72.5992 63.2003 72.5992 65.4003V76.5003H81.9992V63.2003C81.7992 58.3003 80.1992 55.3003 75.6992 55.3003Z" fill="#BB0A08"/>
<path d="M95.0992 55.3003C87.9992 55.3003 83.1992 59.4003 83.1992 66.5003C83.1992 73.6003 87.9992 77.2003 94.8992 77.2003C101.899 77.2003 106.699 73.6003 106.699 66.4003C106.699 59.6003 102.299 55.3003 95.0992 55.3003ZM94.9992 72.0003C93.4992 72.0003 92.7992 70.7003 92.7992 66.2003C92.7992 62.1003 93.2992 60.5003 94.9992 60.5003C96.6992 60.5003 97.1992 62.1003 97.1992 66.2003C97.0992 70.6003 96.5992 72.0003 94.9992 72.0003Z" fill="#BB0A08"/>
<path d="M119.4 73.5005C115.1 73.5005 113.2 70.8005 113.2 66.7005C113.2 61.9005 115.9 59.5005 119.8 59.5005C120.8 59.5005 121.8 59.7005 122.7 60.0005C123.2 60.2005 123.8 59.8005 123.8 59.2005L123.9 57.6005C123.9 57.2005 123.7 56.9005 123.4 56.8005C122 56.2005 120.3 56.0005 118.8 56.0005C112.7 56.0005 108.3 59.7005 108.3 66.6005C108.3 73.0005 111.9 76.9005 118.3 76.9005C120 76.9005 122.3 76.5005 123.8 75.5005C124 75.3005 124.2 75.1005 124.2 74.8005V73.4005C124.2 72.8005 123.6 72.4005 123 72.6005C122 73.2005 120.8 73.5005 119.4 73.5005Z" fill="#262626"/>
<path d="M128.399 47.8003C126.199 47.4003 124.199 49.5003 124.999 51.7003C125.299 52.5003 125.999 53.2003 126.799 53.5003C128.999 54.2003 130.999 52.4003 130.699 50.2003C130.499 49.0003 129.599 48.1003 128.399 47.8003ZM125.499 57.4003V76.4003H130.099V57.4003C130.099 56.9003 129.699 56.5003 129.199 56.5003H126.299C125.899 56.6003 125.499 57.0003 125.499 57.4003Z" fill="#262626"/>
<path d="M141.5 56.1001C135.5 56.1001 131.6 60.1001 131.6 66.6001C131.6 73.1001 135.4 77.0001 141.4 77.0001C147.4 77.0001 151.3 73.1001 151.3 66.6001C151.3 60.1001 147.7 56.1001 141.5 56.1001ZM141.5 74.1001C138.2 74.1001 136.4 71.6001 136.4 66.5001C136.4 61.5001 138.2 59.0001 141.5 59.0001C144.8 59.0001 146.6 61.6001 146.6 66.5001C146.5 71.5001 144.8 74.1001 141.5 74.1001Z" fill="#262626"/>
<path d="M164.9 56.1001C161.5 56.1001 158.8 58.0001 157.4 61.2001L157.1 57.5001C157.1 57.1001 156.7 56.7001 156.3 56.7001H153.7C153.2 56.7001 152.8 57.1001 152.8 57.6001V76.6001H157.4V67.8001C157.4 63.5001 159.8 59.7001 163.1 59.7001C165.5 59.7001 166 61.8001 166 65.4001V76.6001H170.6V63.5001C170.6 58.2001 168.6 56.1001 164.9 56.1001Z" fill="#262626"/>
<path d="M176.7 68.0001C183.3 68.1001 189.3 65.9001 189.3 61.1001C189.3 57.7001 186.3 56.1001 182.5 56.1001C176.3 56.1001 171.8 60.4001 171.8 67.2001C171.8 73.8001 176.2 77.0001 181.8 77.0001C184.3 77.0001 186.8 76.4001 188.7 75.1001C188.9 74.9001 189 74.7001 189 74.4001V73.1001C189 72.4001 188.3 72.0001 187.7 72.3001C186.1 73.2001 184.2 73.5001 182.6 73.5001C179 73.5001 177.1 71.5001 176.7 68.0001ZM182.3 58.9001C183.6 58.9001 185.3 59.3001 185.3 61.2001C185.3 64.3001 181.1 65.4001 176.7 65.5001C176.9 61.3001 179.3 58.9001 182.3 58.9001Z" fill="#262626"/>
</svg>
