<svg role="img" alt="Layers Education Logo" height="48" width="162" class="logo mobile"
  viewBox="0 0 699 167" fill="none" xmlns="http://www.w3.org/2000/svg" style="margin-bottom: 24px;">
  <path
    d="M0 38C0 17.0132 17.0132 0 38 0H114C134.987 0 152 17.0132 152 38V114C152 134.987 134.987 152 114 152H38C17.0132 152 0 134.987 0 114V38Z"
    fill="#FFF"></path>
  <path opacity="0.6" fill-rule="evenodd" clip-rule="evenodd"
    d="M61.1997 46.5804C61.1997 39.175 55.7072 33.1002 48.5957 32.1167C49.3473 32.1167 50.0989 32.1167 50.7927 32.1746C54.493 32.1746 58.1933 32.4638 61.8357 33.0424C61.8357 33.0424 61.8358 33.0424 61.8358 33.0424C61.8352 33.0418 61.8347 33.0413 61.8341 33.0407C67.3267 33.9085 72.588 35.4706 77.7337 37.6112C85.9437 41.0825 93.3442 46.058 99.704 52.422C106.064 58.786 111.036 66.1914 114.505 74.4068C116.694 79.4781 118.194 84.7217 119.062 90.1374L119.133 90.2009C119.711 93.8457 120 97.5484 120 101.309V101.309C120 102.235 120 103.16 119.942 104.086C119.306 96.5649 113.004 90.7216 105.372 90.7216H89.357C88.842 88.7172 88.1569 86.8262 87.302 84.9363H87.2734C85.3077 80.5394 82.5325 76.5474 79.0635 73.0761C75.5367 69.547 71.4317 66.77 67.0376 64.8029V64.746C65.1302 63.8785 63.2228 63.1845 61.1997 62.664V46.5804ZM61.9501 33.1568C61.95 33.1567 61.9499 33.1566 61.9497 33.1564C61.9497 33.1564 61.9497 33.1564 61.9497 33.1564C61.9498 33.1566 61.95 33.1567 61.9501 33.1568Z"
    fill="#00B8AD"></path>
  <path
    d="M119.939 104.087C119.303 96.6237 113.001 90.7225 105.369 90.7225H89.3541H66.1118C63.3944 90.7225 61.2552 88.524 61.2552 85.8627V62.7208V46.6372C61.2552 39.2318 55.7626 33.1571 48.6512 32.1736C47.9574 32.0579 47.2636 32 46.6276 32C45.1822 32 43.7946 32.2314 42.4648 32.5785C36.3941 34.372 32 39.9839 32 46.6372V66.0185V105.36C32 113.459 38.5333 119.997 46.6276 119.997H86.1742H105.369C112.25 119.997 118.089 115.195 119.592 108.773C119.823 107.674 119.997 106.575 119.997 105.418C119.997 104.955 119.939 104.492 119.939 104.087Z"
    fill="#00B8AD"></path>
  <path
    d="M442.024 58.563C443.038 56.2056 444.446 54.4657 446.248 53.3432C448.163 52.2206 450.191 51.6594 452.331 51.6594C455.597 51.6594 458.47 52.7258 460.948 54.8586C463.426 56.8792 464.665 59.3487 464.665 62.2673C464.665 63.8389 464.271 65.4104 463.483 66.982L418.031 159.928C416.904 162.285 415.383 164.025 413.468 165.148C411.554 166.383 409.526 167 407.386 167C404.232 167 401.472 165.99 399.106 163.969C396.741 161.949 395.558 159.479 395.558 156.56C395.558 154.764 395.952 153.081 396.741 151.509L407.893 128.441L377.817 66.982C377.141 65.4104 376.803 63.895 376.803 62.4357C376.803 59.4049 378.098 56.823 380.689 54.6902C383.392 52.5574 386.434 51.491 389.813 51.491C392.066 51.491 394.15 52.1084 396.065 53.3432C397.98 54.4657 399.501 56.2056 400.627 58.563L421.579 104.026L442.024 58.563Z"
    fill="#FFF"></path>
  <path
    d="M613.629 51.3226C617.008 51.0981 619.656 51.8839 621.571 53.6799C623.598 55.3637 624.612 57.9456 624.612 61.4254C624.612 65.1298 623.711 67.88 621.908 69.6761C620.106 71.4721 616.896 72.5947 612.277 73.0437L607.208 73.5488C601.013 74.2224 596.507 76.2429 593.691 79.6105C590.988 82.9781 589.636 87.2999 589.636 92.5758V124.737C589.636 128.665 588.397 131.64 585.919 133.661C583.553 135.681 580.568 136.692 576.963 136.692C573.246 136.692 570.148 135.681 567.67 133.661C565.305 131.64 564.122 128.665 564.122 124.737V62.9409C564.122 59.2365 565.361 56.374 567.839 54.3535C570.317 52.3329 573.302 51.3226 576.794 51.3226C580.174 51.3226 582.99 52.3329 585.243 54.3535C587.496 56.2618 588.622 58.9559 588.622 62.4357V66.982C590.65 62.1551 593.691 58.4507 597.746 55.8689C601.914 53.287 606.42 51.8277 611.264 51.491L613.629 51.3226Z"
    fill="#FFF"></path>
  <path
    d="M662.542 137.028C655.671 137.028 649.701 136.467 644.632 135.344C639.563 134.222 635.113 132.426 631.283 129.956C629.594 128.946 628.298 127.599 627.397 125.915C626.496 124.231 626.045 122.323 626.045 120.19C626.045 117.608 626.778 115.476 628.242 113.792C629.706 111.996 631.509 111.098 633.649 111.098C635.113 111.098 636.578 111.378 638.042 111.94C639.507 112.389 641.027 112.95 642.604 113.623C645.758 115.083 648.856 116.261 651.897 117.159C654.939 117.945 658.712 118.338 663.218 118.338C667.161 118.338 670.202 117.721 672.342 116.486C674.595 115.251 675.722 113.567 675.722 111.434C675.722 109.863 675.215 108.628 674.201 107.73C673.3 106.72 671.554 105.822 668.963 105.036C666.372 104.25 662.261 103.296 656.629 102.174C646.603 100.265 639.394 97.4027 635.001 93.5861C630.608 89.7695 628.411 84.4374 628.411 77.59C628.411 72.5386 629.932 67.9923 632.973 63.9511C636.127 59.91 640.408 56.7669 645.815 54.5218C651.222 52.1645 657.304 50.9858 664.063 50.9858C668.907 50.9858 673.638 51.6032 678.256 52.838C682.875 54.0728 686.986 55.8127 690.591 58.0578C694.083 60.1906 695.829 63.3337 695.829 67.4871C695.829 70.1812 695.096 72.4263 693.632 74.2224C692.168 76.0184 690.365 76.9164 688.225 76.9164C685.634 76.9164 682.537 75.9062 678.932 73.8856C676.116 72.4263 673.525 71.3599 671.16 70.6864C668.907 69.9006 666.203 69.5077 663.049 69.5077C659.557 69.5077 656.797 70.1812 654.77 71.5283C652.742 72.7631 651.728 74.503 651.728 76.7481C651.728 79.1054 652.911 80.9014 655.277 82.1362C657.642 83.371 662.204 84.6058 668.963 85.8406C676.51 87.2999 682.424 89.096 686.704 91.2288C690.985 93.2494 694.083 95.8312 695.998 98.9743C697.913 102.117 698.87 106.102 698.87 110.929C698.87 118.899 695.547 125.242 688.901 129.956C682.368 134.671 673.581 137.028 662.542 137.028Z"
    fill="#FFF"></path>
  <path
    d="M540.601 111.098C542.854 111.098 544.656 111.996 546.008 113.792C547.473 115.588 548.205 117.889 548.205 120.695C548.205 122.604 547.642 124.4 546.515 126.084C545.389 127.655 543.812 129.002 541.784 130.125C537.954 132.145 533.505 133.829 528.436 135.176C523.367 136.411 518.692 137.028 514.411 137.028C505.4 137.028 497.515 135.288 490.756 131.809C484.11 128.329 478.985 123.389 475.38 116.991C471.776 110.48 469.973 102.847 469.973 94.0913C469.973 85.6722 471.719 78.2074 475.211 71.6966C478.703 65.1859 483.547 60.1345 489.742 56.5424C495.938 52.838 502.978 50.9858 510.863 50.9858C518.41 50.9858 525 52.6696 530.632 56.0373C536.377 59.2926 540.826 64.0073 543.981 70.1812C547.135 76.2429 548.712 83.371 548.712 91.5656C548.712 94.0351 548.092 95.9435 546.853 97.2905C545.727 98.5253 544.093 99.1427 541.953 99.1427H494.642C495.431 105.766 497.458 110.593 500.725 113.623C503.992 116.542 508.667 118.001 514.749 118.001C518.016 118.001 520.945 117.608 523.536 116.823C526.126 116.037 528.999 114.97 532.153 113.623C533.73 112.95 535.251 112.389 536.715 111.94C538.179 111.378 539.475 111.098 540.601 111.098ZM511.539 68.4974C506.695 68.4974 502.809 70.069 499.88 73.2121C496.952 76.2429 495.206 80.6769 494.642 86.5141H527.253C526.915 80.5647 525.394 76.0745 522.691 73.0437C520.1 70.0128 516.383 68.4974 511.539 68.4974Z"
    fill="#FFF"></path>
  <path
    d="M330.364 50.8311C342.479 50.8311 351.454 53.8041 357.287 59.7503C363.121 65.5843 366.037 74.5597 366.037 86.6764V124.71C366.037 128.412 364.972 131.329 362.84 133.461C360.709 135.48 357.736 136.49 353.922 136.49C350.332 136.49 347.415 135.424 345.172 133.292C343.04 131.048 341.975 128.188 341.975 124.71V123.532C340.292 127.683 337.487 130.936 333.561 133.292C329.635 135.648 325.035 136.826 319.763 136.826C314.154 136.826 309.05 135.704 304.45 133.461C299.963 131.217 296.373 128.075 293.681 124.036C291.101 119.998 289.811 115.51 289.811 110.573C289.811 104.515 291.325 99.7468 294.354 96.2689C297.495 92.7909 302.487 90.2666 309.33 88.6959C316.173 87.1252 325.54 86.3399 337.431 86.3399H341.806V83.3107C341.806 78.5986 340.741 75.1767 338.609 73.0451C336.59 70.9134 333.168 69.8476 328.345 69.8476C323.521 69.8476 316.566 71.5305 307.479 74.8963C304.899 76.1304 302.711 76.7474 300.916 76.7474C298.448 76.7474 296.485 75.906 295.027 74.2231C293.569 72.428 292.839 70.1281 292.839 67.3233C292.839 65.0795 293.344 63.2283 294.354 61.7698C295.363 60.3113 296.99 58.965 299.234 57.7309C303.16 55.5992 307.928 53.9163 313.537 52.6822C319.258 51.4481 324.867 50.8311 330.364 50.8311ZM325.316 119.324C330.252 119.324 334.234 117.698 337.263 114.444C340.292 111.078 341.806 106.759 341.806 101.486V98.6249H338.946C329.859 98.6249 323.465 99.3542 319.763 100.813C316.173 102.271 314.378 104.908 314.378 108.722C314.378 111.864 315.388 114.444 317.407 116.463C319.538 118.371 322.175 119.324 325.316 119.324Z"
    fill="#FFF"></path>
  <path
    d="M212.392 136.141C208.431 136.141 205.376 135.07 203.225 132.929C201.075 130.788 200 127.746 200 123.802V29.1465C200 25.2025 201.188 22.0473 203.565 19.6809C205.942 17.3145 209.167 16.1313 213.241 16.1313C217.315 16.1313 220.541 17.3145 222.917 19.6809C225.294 22.0473 226.482 25.2025 226.482 29.1465V108.939H269.941C278.202 108.939 282.333 114.635 282.333 122.625C282.333 129.724 278.202 136.141 269.941 136.141H212.392Z"
    fill="#FFF"></path>
</svg>