<svg width="232" height="48" viewBox="0 0 232 48" fill="none" xmlns="http://www.w3.org/2000/svg">
<rect x="3" y="28" width="25" height="13" rx="6.5" fill="#F2F2F2"/>
<path d="M15.7702 0.179932C15.7702 0.179932 0.180176 23.5799 0.180176 32.1899C0.180176 40.7999 7.16018 47.7799 15.7702 47.7799C24.3802 47.7799 31.3602 40.7999 31.3602 32.1899C31.3602 23.5799 15.7702 0.179932 15.7702 0.179932ZM26.2802 32.3399C25.2702 37.3099 20.8402 40.9199 15.7702 40.9199C10.7002 40.9199 6.27018 37.3099 5.26018 32.3399C5.15018 31.8199 5.48018 31.3099 6.01018 31.1999C6.53018 31.0899 7.04018 31.4299 7.15018 31.9499C7.98018 36.0199 11.6102 38.9799 15.7802 38.9799C19.9502 38.9799 23.5802 36.0199 24.4102 31.9499C24.5202 31.4299 25.0302 31.0899 25.5502 31.1999C26.0702 31.3099 26.4102 31.8199 26.3002 32.3399H26.2802Z" fill="#BB0A08"/>
<path d="M58.9501 19.7299C55.9401 19.7299 53.3901 21.02 52.0801 24.18V13.5499C52.0801 13.0799 51.7001 12.7 51.2301 12.7H43.4501C42.9801 12.7 42.6001 13.0799 42.6001 13.5499V40.79H51.9701V34.79C51.9701 29.44 52.7501 26.15 54.6901 26.15C55.7501 26.15 55.9801 27.4399 55.9801 29.6699V40.7799H65.3401V27.5499C65.3401 22.6399 63.7101 19.7099 58.9601 19.7099L58.9501 19.7299Z" fill="#BB0A08"/>
<path d="M77.08 33.39C82.82 32.95 87.93 30.65 87.93 25.89C87.93 21.76 84.02 19.73 79.15 19.73C72.08 19.73 66.75 23.98 66.75 31.39C66.75 39.28 72.75 41.59 78.76 41.59C82.08 41.59 84.69 40.85 86.68 39.56C86.91 39.41 87.04 39.16 87.06 38.89L87.27 34.7C87.3 34.06 86.64 33.61 86.07 33.89C84.44 34.68 82.49 35.03 80.88 35.03C79 35.03 77.8 34.52 77.09 33.4L77.08 33.39ZM78.84 24.92C79.42 24.92 80.16 25.11 80.16 26.21C80.16 27.81 78.57 28.73 76.34 29.13C76.46 26.33 77.35 24.92 78.84 24.92Z" fill="#BB0A08"/>
<path d="M118.04 19.7299C114.96 19.7299 112.61 21.1599 111.41 24.7999C110.99 21.5999 108.99 19.7299 105.44 19.7299C102.28 19.7299 99.8999 21.25 98.7299 25.11L98.2799 21.2599C98.2299 20.8299 97.8699 20.5099 97.4399 20.5099H90.4599C89.9899 20.5099 89.6099 20.89 89.6099 21.36V40.79H98.9799V34.79C98.9799 29.44 98.9799 26.15 100.92 26.15C101.97 26.15 102.21 27.4399 102.21 29.6699V40.7799H111.57V34.7799C111.57 29.3399 111.57 26.1399 113.51 26.1399C114.58 26.1399 114.8 27.43 114.8 29.66V40.77H124.17V27.54C124.17 22.63 122.53 19.7 118.05 19.7L118.04 19.7299Z" fill="#BB0A08"/>
<path d="M137.43 19.73C130.37 19.73 125.58 23.79 125.58 30.89C125.58 37.99 130.37 41.59 137.32 41.59C144.27 41.59 149.07 37.95 149.07 30.82C149.07 23.69 144.7 19.74 137.44 19.74L137.43 19.73ZM137.35 36.38C135.84 36.38 135.14 35.09 135.14 30.6C135.14 26.47 135.68 24.91 137.35 24.91C139.02 24.91 139.5 26.55 139.5 30.6C139.5 34.97 139 36.38 137.35 36.38Z" fill="#BB0A08"/>
<path d="M161.77 37.8299C157.52 37.8299 155.53 35.1799 155.53 31.0899C155.53 26.2499 158.22 23.9099 162.12 23.9099C163.09 23.9099 164.11 24.0699 165.02 24.4099C165.55 24.6099 166.11 24.2199 166.16 23.6599L166.29 22.0799C166.32 21.7299 166.13 21.3799 165.81 21.2399C164.45 20.6699 162.7 20.4299 161.23 20.4299C155.11 20.4299 150.77 24.0999 150.77 31.0399C150.77 37.3999 154.4 41.3399 160.75 41.3399C162.48 41.3399 164.71 40.9399 166.24 39.9599C166.48 39.8099 166.61 39.5299 166.61 39.2499V37.8599C166.61 37.2399 165.97 36.8299 165.42 37.0899C164.36 37.5899 163.18 37.8299 161.77 37.8299Z" fill="#F2F2F2"/>
<path d="M170.76 12.2101C168.54 11.8101 166.65 13.8901 167.41 16.0701C167.7 16.9101 168.38 17.5901 169.22 17.8801C171.4 18.6301 173.49 16.7501 173.08 14.5301C172.87 13.3701 171.92 12.4201 170.76 12.2101ZM167.86 21.8301V40.7901H172.5V21.8301C172.5 21.3601 172.12 20.9801 171.65 20.9801H168.71C168.24 20.9801 167.86 21.3601 167.86 21.8301Z" fill="#F2F2F2"/>
<path d="M183.82 20.4299C177.77 20.4299 173.95 24.4399 173.95 30.9599C173.95 37.4799 177.77 41.3399 183.78 41.3399C189.79 41.3399 193.65 37.4799 193.65 30.9099C193.65 24.3399 189.98 20.4299 183.82 20.4299ZM183.82 38.4499C180.55 38.4499 178.71 35.9599 178.71 30.8399C178.71 25.7199 180.5 23.3099 183.82 23.3099C187.14 23.3099 188.89 25.9299 188.89 30.8399C188.89 35.7499 187.1 38.4499 183.82 38.4499Z" fill="#F2F2F2"/>
<path d="M207.18 20.4299C203.75 20.4299 201.13 22.3499 199.69 25.4899L199.43 21.7699C199.4 21.3199 199.03 20.9799 198.58 20.9799H195.94C195.47 20.9799 195.09 21.3599 195.09 21.8299V40.7899H199.73V32.0099C199.73 27.7299 202.15 23.8599 205.38 23.8599C207.77 23.8599 208.28 26.0099 208.28 29.5999V40.7999H212.92V27.8899C212.92 22.5799 210.97 20.4399 207.18 20.4399V20.4299Z" fill="#F2F2F2"/>
<path d="M219.01 32.3699C225.6 32.4499 231.65 30.3099 231.65 25.4699C231.65 22.0699 228.68 20.4299 224.82 20.4299C218.66 20.4299 214.13 24.7199 214.13 31.5399C214.13 38.3599 218.5 41.3399 224.1 41.3399C226.64 41.3399 229.11 40.7499 230.99 39.4099C231.21 39.2599 231.33 38.9999 231.34 38.7299L231.37 37.3899C231.38 36.7299 230.68 36.3299 230.09 36.6399C228.45 37.5099 226.62 37.8699 225 37.8699C221.31 37.8699 219.4 35.8699 219 32.3599L219.01 32.3699ZM224.62 23.2799C225.91 23.2799 227.59 23.6699 227.59 25.6199C227.59 28.6999 223.33 29.8399 218.95 29.9499C219.24 25.6499 221.58 23.2799 224.61 23.2799H224.62Z" fill="#F2F2F2"/>
</svg>
