<?xml version="1.0" encoding="utf-8"?>
<!-- Generator: Adobe Illustrator 28.1.0, SVG Export Plug-In . SVG Version: 6.00 Build 0)  -->
<svg version="1.1" id="logos" xmlns="http://www.w3.org/2000/svg" xmlns:xlink="http://www.w3.org/1999/xlink" x="0px" y="0px"
	 viewBox="0 0 116.5 113.4" style="enable-background:new 0 0 116.5 113.4;" xml:space="preserve">
<style type="text/css">
	.st0{fill:#BB0A08;}
	.st1{fill:#262626;}
	.st2{fill:#F2F2F2;}
</style>
<g>
	<g>
		<g>
			<path class="st0" d="M58.2,17.8c0,0-9.6,14.5-9.6,19.8c0,5.3,4.3,9.6,9.6,9.6c5.3,0,9.6-4.3,9.6-9.6
				C67.9,32.3,58.2,17.8,58.2,17.8z M58.2,43c-3.1,0-5.9-2.2-6.5-5.3c-0.1-0.3,0.1-0.6,0.5-0.7c0.3-0.1,0.7,0.2,0.7,0.5
				c0.2,1,0.5,2,1.3,2.7c3.9,3.3,8.6,1.1,9.4-2.8c0.1-0.3,0.4-0.5,0.7-0.5c0.3,0.1,0.5,0.4,0.5,0.7C64.1,40.8,61.4,43,58.2,43z"/>
		</g>
		<g>
			<path class="st0" d="M30.5,52.5c-2.3,0-4.2,1-5.2,3.4v-8c0-0.4-0.3-0.6-0.6-0.6h-5.8c-0.4,0-0.6,0.3-0.6,0.6v20.5h7v-4.5
				c0-4,0.6-6.5,2-6.5c0.8,0,1,1,1,2.6v8.4h7v-9.9C35.3,54.7,34.1,52.5,30.5,52.5z"/>
			<path class="st0" d="M44.1,62.8c4.3-0.3,8.2-2.1,8.2-5.6c0-3.1-2.9-4.6-6.6-4.6c-5.3,0-9.3,3.2-9.3,8.8c0,5.9,4.5,7.7,9,7.7
				c2.5,0,4.5-0.5,6-1.5c0.2-0.1,0.3-0.3,0.3-0.5l0.2-3.2c0-0.5-0.5-0.8-0.9-0.6C49.6,63.8,48.2,64,47,64
				C45.6,64,44.7,63.7,44.1,62.8z M45.5,56.5c0.4,0,1,0.1,1,1c0,1.2-1.2,1.9-2.9,2.2C43.7,57.5,44.3,56.5,45.5,56.5z"/>
			<path class="st0" d="M74.9,52.5c-2.3,0-4.1,1.1-5,3.8c-0.3-2.4-1.8-3.8-4.5-3.8c-2.4,0-4.2,1.1-5,4.1l-0.3-2.9
				c0-0.3-0.3-0.6-0.6-0.6h-5.3c-0.4,0-0.6,0.3-0.6,0.6v14.6h7v-4.5c0-4,0-6.5,1.5-6.5c0.8,0,1,1,1,2.6v8.4h7v-4.5
				c0-4.1,0-6.5,1.5-6.5c0.8,0,1,1,1,2.6v8.4h7v-9.9C79.6,54.7,78.3,52.5,74.9,52.5z"/>
			<path class="st1" d="M30.6,91.9c-3.7,0-5.4-2.3-5.4-5.8c0-4.2,2.3-6.2,5.7-6.2c0.9,0,1.8,0.2,2.6,0.5c0.4,0.2,0.8-0.1,0.9-0.5
				l0.1-1.6c0-0.3-0.1-0.5-0.4-0.6c-1.2-0.5-2.7-0.7-4-0.7c-5.3,0-9,3.2-9,9.1c0,5.5,3.1,8.9,8.6,8.9c1.5,0,3.4-0.4,4.8-1.2
				c0.2-0.1,0.3-0.3,0.3-0.5v-1.4c0-0.5-0.5-0.8-0.9-0.6C32.9,91.6,31.9,91.9,30.6,91.9z"/>
			<path class="st1" d="M39.5,69.9c-1.7-0.4-3.2,0.8-3.2,2.4c0,1.4,1.1,2.5,2.6,2.5c1.6,0,2.8-1.5,2.4-3.2
				C41,70.8,40.4,70.1,39.5,69.9z M36.8,78v16.4h4V78c0-0.4-0.3-0.6-0.6-0.6h-2.7C37.1,77.4,36.8,77.6,36.8,78z"/>
			<path class="st1" d="M51.7,76.9c-5.2,0-8.5,3.5-8.5,9.1c0,5.6,3.3,8.9,8.5,8.9c5.2,0,8.5-3.3,8.5-9C60.1,80.4,57,76.9,51.7,76.9z
				 M51.7,92.4c-2.8,0-4.4-2.1-4.4-6.5c0-4.3,1.5-6.5,4.4-6.5c2.8,0,4.4,2.2,4.4,6.5C56,90.2,54.5,92.4,51.7,92.4z"/>
			<path class="st1" d="M72.4,76.9c-3,0-5.2,1.6-6.4,4.4l-0.2-3.3c0-0.3-0.3-0.6-0.6-0.6h-2.4c-0.4,0-0.6,0.3-0.6,0.6v16.4h4v-7.5
				c0-3.7,2.1-7,4.9-7c2.1,0,2.5,1.9,2.5,4.9v9.6h4V83.3C77.3,78.7,75.6,76.9,72.4,76.9z"/>
			<path class="st1" d="M83.8,87.1c5.7,0.1,10.9-1.8,10.9-5.9c0-2.9-2.6-4.3-5.9-4.3c-5.3,0-9.2,3.7-9.2,9.6c0,5.7,3.8,8.4,8.6,8.4
				c2.2,0,4.3-0.5,5.9-1.7c0.2-0.1,0.3-0.3,0.3-0.5l0-1.3c0-0.5-0.5-0.8-1-0.6c-1.4,0.8-3.1,1.1-4.5,1.1
				C85.8,91.9,84.1,90.2,83.8,87.1z M88.6,79.3c1.1,0,2.6,0.3,2.6,2c0,2.6-3.7,3.6-7.4,3.7C84,81.4,86,79.3,88.6,79.3z"/>
		</g>
	</g>
	<path class="st0" d="M89.5,52.5c-5.3,0-8.9,3-8.9,8.4s3.6,8,8.8,8c5.3,0,8.8-2.7,8.8-8.1C98.3,55.7,95,52.5,89.5,52.5z M89.5,65.1
		c-1.1,0-1.7-1-1.7-4.3c0-3.1,0.4-4.3,1.7-4.3c1.3,0,1.6,1.2,1.6,4.3C91.1,64,90.7,65.1,89.5,65.1z"/>
</g>
</svg>
