<?xml version="1.0" encoding="utf-8"?>
<svg viewBox="97.51 445.9902 1724.98 188.0696" width="1724.98" height="188.0696" xmlns="http://www.w3.org/2000/svg">
  <defs>
    <style>.cls-1{fill:#f3f2f1;}</style>
  </defs>
  <path class="cls-1" d="M1822.49,573a59,59,0,0,1-117.92,0c0-32.56,59-121.1,59-121.1S1822.49,540.48,1822.49,573Z" transform="matrix(1, 0, 0, 1, 0, -1.4210854715202004e-14)"/>
  <path class="cls-1" d="M252.75,632H218.27V551.58H132V632H97.51V448H132v79.15h86.27V448h34.48Z" transform="matrix(1, 0, 0, 1, 0, -1.4210854715202004e-14)"/>
  <path class="cls-1" d="M406,448v27.23H324.39v51h64.26V552.6H324.39v52H406V632h-116V448Z" transform="matrix(1, 0, 0, 1, 0, -1.4210854715202004e-14)"/>
  <path class="cls-1" d="M532,564.11q1.85,4.39,3.63,8.85,1.77-4.59,3.69-9t4.07-8.52l54.46-101.93a14.16,14.16,0,0,1,2.1-3.05,6.45,6.45,0,0,1,2.42-1.66,10.77,10.77,0,0,1,3-.63c1.1-.09,2.42-.13,3.94-.13h25.83V632H605V513.15q0-3.3.19-7.25c.12-2.63.32-5.3.57-8L550.12,602.22a14.62,14.62,0,0,1-5,5.54,12.89,12.89,0,0,1-7.13,2h-4.7a12.89,12.89,0,0,1-7.13-2,14.62,14.62,0,0,1-5-5.54L464.87,497.5c.34,2.8.57,5.53.7,8.21s.19,5.15.19,7.44V632H435.6V448h25.83c1.53,0,2.84,0,3.95.13a10.85,10.85,0,0,1,3,.63,7,7,0,0,1,2.48,1.66,12.93,12.93,0,0,1,2.16,3.05l55,102.18Q530.14,559.73,532,564.11Z" transform="matrix(1, 0, 0, 1, 0, -1.4210854715202004e-14)"/>
  <path class="cls-1" d="M848.77,540A102.06,102.06,0,0,1,842,577.47a88.87,88.87,0,0,1-19,29.84A86,86,0,0,1,793.67,627a106.23,106.23,0,0,1-76.16,0A86.47,86.47,0,0,1,688,607.31a88.39,88.39,0,0,1-19-29.84,107.52,107.52,0,0,1,0-74.94,88.29,88.29,0,0,1,19-29.84A86.32,86.32,0,0,1,717.51,453,99.63,99.63,0,0,1,755.62,446a98.37,98.37,0,0,1,38,7.12,87.27,87.27,0,0,1,29.4,19.66,88.21,88.21,0,0,1,19,29.78A102.06,102.06,0,0,1,848.77,540Zm-35.12,0a85.79,85.79,0,0,0-4-27.17,57.55,57.55,0,0,0-11.51-20.42,49.64,49.64,0,0,0-18.27-12.85,68.26,68.26,0,0,0-48.54,0,50.08,50.08,0,0,0-18.39,12.85,57.78,57.78,0,0,0-11.64,20.42,92.72,92.72,0,0,0,0,54.34,57.16,57.16,0,0,0,11.64,20.36,50.39,50.39,0,0,0,18.39,12.78,68.26,68.26,0,0,0,48.54,0,49.94,49.94,0,0,0,18.27-12.78,56.93,56.93,0,0,0,11.51-20.36A85.75,85.75,0,0,0,813.65,540Z" transform="matrix(1, 0, 0, 1, 0, -1.4210854715202004e-14)"/>
  <path class="cls-1" d="M1014.7,601.71a2.93,2.93,0,0,1,2.16.9l5.09,5.47a83.78,83.78,0,0,1-12.22,10.75A75.5,75.50,0,0,1,995.29,627a84.63,84.63,0,0,1-17.18,5.22A106.31,106.31,0,0,1,957.56,634a87.57,87.57,0,0,1-34.29-6.55,76.12,76.12,0,0,1-26.72-18.58,85.17,85.17,0,0,1-17.37-29.07,109.69,109.69,0,0,1-6.24-37.92,104.69,104.69,0,0,1,6.43-37.41,85.15,85.15,0,0,1,18.07-29.08,80.48,80.48,0,0,1,27.87-18.83,93.24,93.24,0,0,1,35.82-6.68,102.28,102.28,0,0,1,17.94,1.46,82.92,82.92,0,0,1,15.20,4.20,71.56,71.56,0,0,1,13.3,6.81,102.24,102.24,0,0,1,12.22,9.42l-3.95,5.72a3.55,3.55,0,0,1-3.18,1.53,5.44,5.44,0,0,1-2.93-1.34c-1.18-.89-2.69-2-4.51-3.31s-4-2.75-6.62-4.32a53.86,53.86,0,0,0-9.23-4.33A78.67,78.67,0,0,0,977,462.44a85.40,85.40,0,0,0-15.90-1.33A78.49,78.49,0,0,0,931,466.77a67.55,67.55,0,0,0-23.67,16.16,73.76,73.76,0,0,0-15.46,25.45,96.00,96.00,0,0,0-5.53,33.53q0,19.08,5.47,34.10a73.44,73.44,0,0,0,15.14,25.38,65.6,65.60,0,0,0,22.84,15.91,73.00,73.00,0,0,0,28.57,5.54,104.63,104.63,0,0,0,17.24-1.28,67.00,67.00,0,0,0,13.93-3.81,63.19,63.19,0,0,0,11.84-6.24,89.60,89.60,0,0,0,10.81-8.65,10.14,10.14,0,0,1,1.21-.83A2.74,2.74,0,0,1,1014.70,601.71Z" transform="matrix(1, 0, 0, 1, 0, -1.4210854715202004e-14)"/>
  <path class="cls-1" d="M1080.74,632h-13.11V451.94h13.11Z" transform="matrix(1, 0, 0, 1, 0, -1.4210854715202004e-14)"/>
  <path class="cls-1" d="M1299.6,541.91q0,20.87-6.24,37.85a83.94,83.94,0,0,1-17.56,29,77.81,77.81,0,0,1-27.1,18.57,95.93,95.93,0,0,1-69.73,0,77.76,77.76,0,0,1-27.11-18.57,84.67,84.67,0,0,1-17.62-29q-6.3-17-6.3-37.85a107.82,107.82,0,0,1,6.3-37.73,84.53,84.53,0,0,1,17.62-29A78.34,78.34,0,0,1,1179,456.53a89,89,0,0,1,34.74-6.62,90.39,90.39,0,0,1,35,6.55,77.45,77.45,0,0,1,27.1,18.64,84.58,84.58,0,0,1,17.56,29.08A108.76,108.76,0,0,1,1299.6,541.91Zm-13.49,0q0-18.84-5.22-33.85a72.94,72.94,0,0,0-14.7-25.45,63.07,63.07,0,0,0-22.84-16,76.72,76.72,0,0,0-29.64-5.53,75.57,75.57,0,0,0-29.33,5.53,64.38,64.38,0,0,0-22.91,16,72.52,72.52,0,0,0-14.89,25.45q-5.28,15-5.28,33.85t5.28,33.91a72.61,72.61,0,0,0,14.89,25.39,63.7,63.7,0,0,0,22.91,15.9,76.3,76.3,0,0,0,29.33,5.47,77.46,77.46,0,0,0,29.64-5.47,62.42,62.42,0,0,0,22.84-15.9,73,73,0,0,0,14.7-25.39Q1286.11,560.87,1286.11,541.91Z" transform="matrix(1, 0, 0, 1, 0, -1.4210854715202004e-14)"/>
  <path class="cls-1" d="M1351.13,452.39a5.94,5.94,0,0,1,2.16,2l116.56,156a72.71,72.71,0,0,1-.38-7.38v-151h11.45V632h-6.24a5.47,5.47,0,0,1-4.7-2.55L1352.91,473.20a71.25,71.25,0,0,1,.38,7.25V632H1342V451.94h6.36A7.08,7.08,0,0,1,1351.13,452.39Z" transform="matrix(1, 0, 0, 1, 0, -1.4210854715202004e-14)"/>
  <path class="cls-1" d="M1642.27,451.94v10.82h-94.80v72.79h78.89v10.56h-78.89v75.07h94.80V632H1534.36V451.94Z" transform="matrix(1, 0, 0, 1, 0, -1.4210854715202004e-14)"/>
</svg>