<?xml version="1.0" encoding="UTF-8"?>
<svg id="Layer_2" data-name="Layer 2" xmlns="http://www.w3.org/2000/svg" viewBox="0 0 1265.49 135.42">
  <defs>
    <style>
      .cls-1 {
        fill: #f2f2f2;
      }

      .cls-1, .cls-2 {
        stroke-width: 0px;
      }

      .cls-2 {
        fill: #bb0a08;
      }
    </style>
  </defs>
  <g id="Logos">
    <g>
      <g>
        <path class="cls-1" d="m111.78,133.96h-24.83v-57.91H24.83v57.91H0V1.47h24.83v56.99h62.12V1.47h24.83v132.49Z"/>
        <path class="cls-1" d="m222.1,1.47v19.61h-58.73v36.74h46.27v18.97h-46.27v37.48h58.73v19.7h-83.56V1.47h83.56Z"/>
        <path class="cls-1" d="m312.86,85.07c.88,2.11,1.76,4.23,2.61,6.37.85-2.2,1.74-4.37,2.66-6.5.92-2.14,1.89-4.18,2.93-6.14L360.27,5.41c.49-.92.99-1.65,1.51-2.2.52-.55,1.1-.95,1.74-1.19.64-.24,1.36-.4,2.15-.46.79-.06,1.74-.09,2.84-.09h18.6v132.49h-21.72V48.38c0-1.59.05-3.33.14-5.22.09-1.89.23-3.82.41-5.77l-40.04,75.13c-.92,1.71-2.11,3.04-3.57,3.99-1.47.95-3.18,1.42-5.13,1.42h-3.39c-1.96,0-3.67-.47-5.13-1.42-1.47-.95-2.66-2.27-3.57-3.99l-40.59-75.41c.24,2.02.41,3.99.5,5.91.09,1.92.14,3.71.14,5.36v85.58h-21.72V1.47h18.6c1.1,0,2.05.03,2.84.09.79.06,1.51.21,2.15.46.64.25,1.24.64,1.79,1.19s1.07,1.28,1.56,2.2l39.58,73.58c1.04,1.96,2,3.99,2.89,6.09Z"/>
        <path class="cls-1" d="m540.96,67.71c0,9.71-1.62,18.71-4.86,26.98-3.24,8.28-7.79,15.44-13.65,21.49-5.86,6.05-12.92,10.77-21.17,14.16-8.25,3.39-17.38,5.08-27.4,5.08s-19.17-1.7-27.44-5.08c-8.28-3.39-15.36-8.11-21.26-14.16-5.9-6.05-10.46-13.21-13.7-21.49-3.24-8.28-4.86-17.27-4.86-26.98s1.62-18.71,4.86-26.98c3.24-8.28,7.8-15.44,13.7-21.49,5.89-6.05,12.98-10.77,21.26-14.16,8.28-3.39,17.42-5.09,27.44-5.09s19.15,1.71,27.4,5.13c8.25,3.42,15.3,8.14,21.17,14.16,5.86,6.02,10.41,13.16,13.65,21.44,3.24,8.28,4.86,17.27,4.86,26.98Zm-25.29,0c0-7.27-.96-13.79-2.89-19.56-1.92-5.77-4.69-10.67-8.29-14.71-3.6-4.03-7.99-7.12-13.15-9.25-5.16-2.14-10.98-3.21-17.45-3.21s-12.31,1.07-17.5,3.21c-5.19,2.14-9.61,5.22-13.24,9.25-3.63,4.03-6.43,8.93-8.38,14.71-1.96,5.77-2.93,12.29-2.93,19.56s.98,13.79,2.93,19.56c1.95,5.77,4.75,10.66,8.38,14.66,3.63,4,8.05,7.07,13.24,9.21,5.19,2.14,11.02,3.21,17.5,3.21s12.29-1.07,17.45-3.21c5.16-2.14,9.54-5.21,13.15-9.21,3.6-4,6.37-8.89,8.29-14.66,1.92-5.77,2.89-12.29,2.89-19.56Z"/>
        <path class="cls-1" d="m660.44,112.15c.61,0,1.13.21,1.56.64l3.67,3.94c-2.69,2.87-5.62,5.45-8.8,7.74-3.18,2.29-6.64,4.25-10.4,5.86-3.76,1.62-7.88,2.87-12.37,3.76s-9.42,1.33-14.8,1.33c-8.98,0-17.21-1.57-24.69-4.72-7.48-3.15-13.9-7.6-19.24-13.38-5.35-5.77-9.52-12.75-12.51-20.94-2.99-8.19-4.49-17.29-4.49-27.3s1.54-18.81,4.63-26.94c3.08-8.12,7.42-15.1,13.01-20.94,5.59-5.83,12.28-10.35,20.07-13.56,7.79-3.21,16.39-4.81,25.79-4.81,4.7,0,9.01.35,12.92,1.05,3.91.7,7.56,1.71,10.95,3.02,3.39,1.31,6.58,2.95,9.57,4.9,2.99,1.96,5.93,4.21,8.8,6.78l-2.84,4.12c-.49.73-1.25,1.1-2.29,1.1-.55,0-1.25-.32-2.11-.96s-1.94-1.43-3.25-2.38c-1.31-.95-2.9-1.98-4.77-3.12-1.86-1.13-4.08-2.17-6.64-3.12-2.57-.95-5.53-1.74-8.89-2.38-3.36-.64-7.18-.96-11.45-.96-7.88,0-15.12,1.36-21.71,4.08-6.6,2.72-12.28,6.6-17.04,11.64-4.76,5.04-8.47,11.15-11.13,18.33-2.66,7.18-3.99,15.23-3.99,24.14s1.31,17.35,3.94,24.56c2.63,7.21,6.26,13.3,10.9,18.28,4.64,4.98,10.12,8.8,16.45,11.45s13.18,3.99,20.57,3.99c4.64,0,8.78-.31,12.42-.92,3.63-.61,6.98-1.53,10.03-2.75,3.05-1.22,5.89-2.72,8.52-4.49,2.62-1.77,5.22-3.85,7.79-6.23.3-.24.6-.44.87-.6.28-.15.6-.23.96-.23Z"/>
        <path class="cls-1" d="m707.99,133.96h-9.44V4.31h9.44v129.65Z"/>
        <path class="cls-1" d="m865.59,69.09c0,10.02-1.5,19.1-4.49,27.26-2.99,8.15-7.21,15.12-12.64,20.89-5.44,5.77-11.94,10.23-19.52,13.38-7.58,3.15-15.97,4.72-25.2,4.72s-17.44-1.57-25.01-4.72c-7.57-3.14-14.08-7.6-19.52-13.38-5.44-5.77-9.67-12.74-12.69-20.89-3.02-8.16-4.54-17.24-4.54-27.26s1.51-19.01,4.54-27.17c3.02-8.16,7.25-15.12,12.69-20.89,5.44-5.77,11.94-10.25,19.52-13.42,7.57-3.18,15.91-4.76,25.01-4.76s17.62,1.57,25.2,4.72c7.57,3.15,14.08,7.62,19.52,13.42,5.44,5.8,9.65,12.78,12.64,20.94,2.99,8.15,4.49,17.21,4.49,27.17Zm-9.71,0c0-9.04-1.25-17.16-3.76-24.37-2.5-7.21-6.03-13.32-10.58-18.33-4.55-5.01-10.03-8.84-16.45-11.5s-13.53-3.99-21.35-3.99-14.74,1.33-21.12,3.99c-6.38,2.66-11.88,6.49-16.49,11.5-4.61,5.01-8.19,11.12-10.72,18.33-2.54,7.21-3.8,15.33-3.8,24.37s1.27,17.24,3.8,24.42c2.53,7.18,6.11,13.27,10.72,18.28,4.61,5.01,10.11,8.83,16.49,11.45,6.38,2.63,13.42,3.94,21.12,3.94s14.93-1.31,21.35-3.94c6.41-2.62,11.9-6.44,16.45-11.45,4.55-5.01,8.08-11.1,10.58-18.28,2.5-7.18,3.76-15.32,3.76-24.42Z"/>
        <path class="cls-1" d="m902.69,4.63c.49.21,1.01.69,1.56,1.42l83.93,112.33c-.18-1.83-.28-3.6-.28-5.31V4.31h8.25v129.65h-4.49c-1.41,0-2.54-.61-3.39-1.83l-84.3-112.52c.18,1.83.28,3.57.28,5.22v109.13h-8.16V4.31h4.58c.85,0,1.53.11,2.02.32Z"/>
        <path class="cls-1" d="m1112.33,4.31v7.79h-68.26v52.41h56.81v7.61h-56.81v54.06h68.26v7.79h-77.7V4.31h77.7Z"/>
      </g>
      <g>
        <path class="cls-1" d="m1265.49,91.03c0,24-19.46,43.46-43.46,43.46s-43.46-19.46-43.46-43.46S1222.03,1.78,1222.03,1.78c0,0,43.46,65.25,43.46,89.25Z"/>
        <path class="cls-2" d="m1222.03,115.42c-14.19,0-26.56-10.08-29.4-23.96-.31-1.5.66-2.96,2.16-3.27,1.5-.31,2.96.66,3.27,2.16,2.32,11.32,12.4,19.54,23.97,19.54s21.66-8.22,23.97-19.54c.31-1.5,1.77-2.47,3.27-2.16,1.5.31,2.46,1.77,2.16,3.27-2.84,13.89-15.21,23.96-29.4,23.96Z"/>
      </g>
    </g>
  </g>
</svg>