<svg width="12" height="12" viewBox="0 0 12 12" fill="none" xmlns="http://www.w3.org/2000/svg">
<path d="M9.6661 7.33362C9.28806 7.33393 8.91576 7.42622 8.58135 7.60253C8.24694 7.77884 7.96045 8.03388 7.7466 8.34562L4.4921 6.87612C4.72326 6.31794 4.72415 5.69097 4.4946 5.13212L7.7446 3.65512C8.06153 4.1135 8.53226 4.44311 9.0714 4.58415C9.61053 4.72519 10.1824 4.66833 10.6832 4.42387C11.184 4.17942 11.5806 3.76357 11.801 3.25176C12.0215 2.73994 12.0512 2.16606 11.8848 1.63421C11.7184 1.10236 11.3668 0.647772 10.894 0.352901C10.4211 0.0580307 9.85819 -0.05759 9.30737 0.0270118C8.75656 0.111614 8.2543 0.390834 7.89172 0.814025C7.52913 1.23722 7.33023 1.77635 7.3311 2.33362C7.33322 2.46552 7.3466 2.597 7.3711 2.72662L3.9161 4.29662C3.58427 3.98573 3.16885 3.77854 2.72089 3.7005C2.27292 3.62247 1.81191 3.67698 1.3945 3.85735C0.977095 4.03772 0.621463 4.33609 0.371298 4.71581C0.121134 5.09552 -0.0126672 5.54004 -0.0136662 5.99475C-0.0146653 6.44946 0.117181 6.89456 0.365674 7.27537C0.614168 7.65618 0.968486 7.95611 1.3851 8.13831C1.80171 8.32051 2.26247 8.37705 2.71078 8.30099C3.15908 8.22492 3.57541 8.01955 3.9086 7.71012L7.3726 9.27413C7.34854 9.40363 7.33533 9.53492 7.3331 9.66663C7.333 10.1282 7.46979 10.5794 7.72616 10.9632C7.98253 11.3471 8.34697 11.6462 8.77338 11.8229C9.19979 11.9996 9.66902 12.0458 10.1217 11.9558C10.5744 11.8658 10.9903 11.6435 11.3166 11.3172C11.643 10.9908 11.8653 10.5749 11.9553 10.1222C12.0453 9.66954 11.9991 9.20031 11.8224 8.7739C11.6457 8.34749 11.3465 7.98305 10.9627 7.72668C10.5789 7.47031 10.1277 7.33353 9.6661 7.33362V7.33362ZM9.6661 1.00012C9.92986 1.00002 10.1877 1.07815 10.4071 1.22462C10.6264 1.37108 10.7974 1.57931 10.8984 1.82297C10.9995 2.06663 11.0259 2.33476 10.9745 2.59347C10.9231 2.85218 10.7962 3.08983 10.6097 3.27637C10.4232 3.46292 10.1856 3.58997 9.92694 3.64146C9.66825 3.69296 9.4001 3.66658 9.15641 3.56567C8.91271 3.46475 8.70442 3.29383 8.55787 3.07453C8.41132 2.85523 8.3331 2.59739 8.3331 2.33362C8.33336 1.98013 8.47387 1.64117 8.72379 1.39117C8.9737 1.14116 9.3126 1.00052 9.6661 1.00012V1.00012ZM2.3331 7.33362C2.06934 7.33372 1.81147 7.2556 1.59211 7.10913C1.37275 6.96267 1.20176 6.75444 1.10075 6.51078C0.999744 6.26712 0.973265 5.99898 1.02466 5.74028C1.07606 5.48157 1.20302 5.24392 1.3895 5.05737C1.57597 4.87083 1.81358 4.74378 2.07226 4.69228C2.33095 4.64079 2.5991 4.66717 2.84279 4.76808C3.08649 4.869 3.29478 5.03992 3.44133 5.25922C3.58788 5.47852 3.6661 5.73636 3.6661 6.00012C3.6657 6.35358 3.52515 6.69246 3.27527 6.94244C3.02538 7.19242 2.68656 7.33309 2.3331 7.33362ZM9.6661 11.0001C9.40236 11.0001 9.14454 10.9219 8.92525 10.7754C8.70595 10.6289 8.53504 10.4206 8.43411 10.1769C8.33318 9.93327 8.30677 9.66515 8.35822 9.40647C8.40968 9.1478 8.53668 8.91019 8.72317 8.7237C8.90967 8.5372 9.14727 8.4102 9.40595 8.35875C9.66462 8.30729 9.93274 8.3337 10.1764 8.43463C10.4201 8.53556 10.6283 8.70648 10.7749 8.92577C10.9214 9.14506 10.9996 9.40288 10.9996 9.66663C10.9993 10.0202 10.8588 10.3592 10.6087 10.6093C10.3587 10.8593 10.0197 10.9999 9.6661 11.0001V11.0001Z" fill="#374957"/>
</svg>
