<svg width="24" height="24" viewBox="0 0 24 24" fill="none" xmlns="http://www.w3.org/2000/svg">
<g clip-path="url(#clip0_1464_569)">
<path d="M7.68789 13.7251H6.52539C6.30039 13.7251 6.15039 13.8751 6.15039 14.1001V15.2251C6.15039 15.4501 6.30039 15.6001 6.52539 15.6001H7.68789C7.91289 15.6001 8.06289 15.4501 8.06289 15.2251V14.1001C8.06289 13.9126 7.87539 13.7251 7.68789 13.7251Z" fill="#BB0A08"/>
<path d="M12.5629 13.7251H11.4004C11.1754 13.7251 11.0254 13.8751 11.0254 14.1001V15.2251C11.0254 15.4501 11.1754 15.6001 11.4004 15.6001H12.5629C12.7879 15.6001 12.9379 15.4501 12.9379 15.2251V14.1001C12.9379 13.9126 12.7879 13.7251 12.5629 13.7251Z" fill="#BB0A08"/>
<path d="M17.475 13.7251H16.3125C16.0875 13.7251 15.9375 13.8751 15.9375 14.1001V15.2251C15.9375 15.4501 16.0875 15.6001 16.3125 15.6001H17.475C17.7 15.6001 17.85 15.4501 17.85 15.2251V14.1001C17.85 13.9126 17.7 13.7251 17.475 13.7251Z" fill="#BB0A08"/>
<path d="M7.68789 18.5625H6.52539C6.30039 18.5625 6.15039 18.7125 6.15039 18.9375V20.0625C6.15039 20.2875 6.30039 20.4375 6.52539 20.4375H7.68789C7.91289 20.4375 8.06289 20.2875 8.06289 20.0625V18.9375C8.06289 18.75 7.87539 18.5625 7.68789 18.5625Z" fill="#BB0A08"/>
<path d="M12.5629 18.5625H11.4004C11.1754 18.5625 11.0254 18.7125 11.0254 18.9375V20.0625C11.0254 20.2875 11.1754 20.4375 11.4004 20.4375H12.5629C12.7879 20.4375 12.9379 20.2875 12.9379 20.0625V18.9375C12.9379 18.75 12.7879 18.5625 12.5629 18.5625Z" fill="#BB0A08"/>
<path d="M17.475 18.5625H16.3125C16.0875 18.5625 15.9375 18.7125 15.9375 18.9375V20.0625C15.9375 20.2875 16.0875 20.4375 16.3125 20.4375H17.475C17.7 20.4375 17.85 20.2875 17.85 20.0625V18.9375C17.85 18.75 17.7 18.5625 17.475 18.5625Z" fill="#BB0A08"/>
<path d="M21.0002 5.77519H12.8627V5.0627C13.7252 4.72519 14.3252 3.9002 14.3252 2.9252C14.3252 1.6502 13.2752 0.637695 12.0002 0.637695C10.7252 0.637695 9.67519 1.6502 9.67519 2.9252C9.67519 3.9002 10.2752 4.72519 11.1377 5.0627V5.77519H3.0002C1.7252 5.77519 0.637695 6.82519 0.637695 8.13769V21.0002C0.637695 22.2752 1.6877 23.3627 3.0002 23.3627H21.0002C22.2752 23.3627 23.3627 22.3127 23.3627 21.0002V8.10019C23.3627 6.82519 22.2752 5.77519 21.0002 5.77519ZM12.0002 2.3252C12.3377 2.3252 12.6377 2.5877 12.6377 2.9252C12.6377 3.2627 12.3752 3.5252 12.0002 3.5252C11.6252 3.5252 11.3627 3.2627 11.3627 2.9252C11.3627 2.5877 11.6627 2.3252 12.0002 2.3252ZM3.0002 7.46269H21.0002C21.3752 7.46269 21.6752 7.76269 21.6752 8.13769V10.4627H2.3627V8.13769C2.3627 7.72519 2.6252 7.46269 3.0002 7.46269ZM21.0002 21.6752H3.0002C2.6252 21.6752 2.3252 21.3752 2.3252 21.0002V12.1127H21.6377V21.0002C21.6752 21.3752 21.3752 21.6752 21.0002 21.6752Z" fill="#BB0A08"/>
</g>
<defs>
<clipPath id="clip0_1464_569">
<rect width="24" height="24" fill="white"/>
</clipPath>
</defs>
</svg>
