<svg width="35" height="56" viewBox="0 0 35 56" fill="none" xmlns="http://www.w3.org/2000/svg">
<g clip-path="url(#clip0_2651_3286)">
<path d="M34.5689 34.1794C34.7311 34.9049 34.8469 35.5875 34.9096 36.219L34.4121 36.2685C34.4466 36.6159 34.4641 36.9439 34.4641 37.2516C34.4641 37.5782 34.4556 37.9026 34.4387 38.2247L34.938 38.2508C34.9028 38.9236 34.8323 39.5867 34.7283 40.238L34.2345 40.1591C34.1313 40.8053 33.9944 41.4395 33.8256 42.0597L34.308 42.191C34.1318 42.8385 33.9218 43.4713 33.6801 44.0872L33.2146 43.9045C32.9765 44.5112 32.7068 45.1011 32.4077 45.6718L32.8505 45.904C32.5398 46.4968 32.1981 47.0697 31.8277 47.6203L31.4129 47.3412C31.05 47.8806 30.6588 48.3979 30.2416 48.8909L30.6233 49.2139C30.1919 49.7236 29.7334 50.2079 29.2502 50.6645L28.9068 50.3011C28.4356 50.7464 27.9402 51.1644 27.4231 51.5529L27.7234 51.9527C27.1908 52.3527 26.6357 52.7224 26.0603 53.0592L25.8078 52.6277C25.2505 52.9539 24.6738 53.2483 24.0799 53.5086L24.2807 53.9665C23.6731 54.2329 23.048 54.4646 22.4076 54.6593L22.2621 54.1809C21.6478 54.3677 21.0189 54.5194 20.3778 54.6338L20.4656 55.126C19.8158 55.242 19.1537 55.3207 18.4815 55.36L18.4523 54.8608C18.1313 54.8796 17.8079 54.8891 17.4823 54.8891C17.1567 54.8891 16.8332 54.8796 16.5122 54.8608L16.483 55.36C15.8108 55.3207 15.1487 55.242 14.4989 55.126L14.5867 54.6338C13.9456 54.5195 13.3167 54.3678 12.7023 54.181L12.5569 54.6593C11.9165 54.4646 11.2914 54.2329 10.6838 53.9666L10.8845 53.5087C10.2907 53.2484 9.71395 52.9539 9.15665 52.6277L8.90407 53.0592C8.32869 52.7224 7.77355 52.3528 7.24099 51.9528L7.54128 51.553C7.02411 51.1645 6.52875 50.7465 6.05753 50.3012L5.71412 50.6647C5.23087 50.208 4.77239 49.7237 4.34102 49.214L4.72267 48.891C4.30546 48.3981 3.91427 47.8807 3.55137 47.3413L3.13651 47.6204C2.76612 47.0698 2.42442 46.4969 2.11366 45.9041L2.55652 45.6719C2.25735 45.1012 1.98764 44.5113 1.74953 43.9046L1.28409 44.0873C1.04238 43.4714 0.832353 42.8386 0.656116 42.1911L1.13856 42.0598C0.96974 41.4395 0.832757 40.8053 0.729584 40.1592L0.235839 40.238C0.13184 39.5867 0.0612894 38.9236 0.0260798 38.2509L0.525397 38.2247C0.50854 37.9026 0.5 37.5782 0.5 37.2516C0.5 36.9439 0.51751 36.6159 0.552032 36.2685L0.0544832 36.219C0.117236 35.5875 0.23296 34.9049 0.395204 34.1794L0.883152 34.2885C1.02215 33.667 1.19661 33.0107 1.40276 32.3248L0.923923 32.1809C1.11537 31.5439 1.3331 30.884 1.57378 30.2053L2.04503 30.3724C2.26646 29.748 2.50779 29.1067 2.76646 28.452L2.30144 28.2683C2.5496 27.6402 2.81331 27.0005 3.09026 26.3521L3.55007 26.5485C3.81583 25.9264 4.09401 25.2959 4.38256 24.6596L3.9272 24.4531C4.20962 23.8303 4.50178 23.2023 4.80178 22.5717L5.2533 22.7865C5.54674 22.1696 5.84778 21.5499 6.15464 20.9297L5.70649 20.708C6.01212 20.0902 6.3234 19.4722 6.63856 18.8561L7.0837 19.0838C7.39793 18.4695 7.71607 17.8571 8.03637 17.2487L7.59394 17.0158C7.91754 16.4011 8.24328 15.7907 8.56933 15.1869L9.00929 15.4244C9.33965 14.8126 9.67038 14.2075 9.99957 13.6115L9.56189 13.3698C9.90166 12.7546 10.2398 12.1492 10.5741 11.5562L11.0097 11.8017C11.356 11.1875 11.6983 10.5866 12.0342 10.0018L11.6007 9.75274C11.9543 9.13735 12.3009 8.53995 12.6378 7.96396L13.0694 8.21639C13.4335 7.59377 13.7863 6.9962 14.1243 6.42802L13.6946 6.17238C14.0677 5.54532 14.4228 4.95401 14.7553 4.40425L15.1831 4.66304C15.577 4.01181 15.9393 3.41903 16.2621 2.89442L15.8363 2.63235C16.2867 1.90062 16.6607 1.30113 16.9378 0.860083L17.3612 1.12608C17.4039 1.05808 17.4443 0.993875 17.4823 0.933547C17.5203 0.993875 17.5607 1.05808 17.6034 1.12608L18.0268 0.860088C18.3039 1.30113 18.6779 1.90063 19.1282 2.63236L18.7024 2.89442C19.0253 3.41904 19.3875 4.01182 19.7814 4.66305L20.2092 4.40427C20.5417 4.95403 20.8968 5.54534 21.2698 6.1724L20.8401 6.42803C21.1781 6.99621 21.5309 7.59379 21.8951 8.21641L22.3267 7.96398C22.6635 8.53998 23.0101 9.13738 23.3637 9.75277L22.9302 10.0019C23.2661 10.5866 23.6084 11.1875 23.9547 11.8018L24.3903 11.5562C24.7246 12.1492 25.0627 12.7546 25.4025 13.3698L24.9648 13.6115C25.294 14.2075 25.6247 14.8126 25.9551 15.4245L26.395 15.1869C26.7211 15.7907 27.0468 16.4011 27.3704 17.0158L26.9279 17.2487C27.2482 17.8571 27.5664 18.4695 27.8806 19.0838L28.3257 18.8561C28.6409 19.4722 28.9522 20.0903 29.2578 20.708L28.8096 20.9297C29.1165 21.5499 29.4175 22.1696 29.7109 22.7865L30.1625 22.5717C30.4625 23.2024 30.7546 23.8303 31.037 24.4531L30.5817 24.6596C30.8702 25.2959 31.1484 25.9264 31.4141 26.5486L31.8739 26.3522C32.1509 27.0005 32.4146 27.6402 32.6627 28.2683L32.1977 28.4521C32.4564 29.1068 32.6977 29.748 32.9191 30.3724L33.3904 30.2053C33.631 30.884 33.8488 31.5439 34.0402 32.1809L33.5614 32.3248C33.7675 33.0107 33.942 33.667 34.081 34.2885L34.5689 34.1794Z" stroke="#BB0A08" stroke-dasharray="2 2"/>
</g>
<defs>
<clipPath id="clip0_2651_3286">
<rect width="35" height="55.4079" fill="white"/>
</clipPath>
</defs>
</svg>
