<svg width="664" height="667" viewBox="0 0 664 667" fill="none" xmlns="http://www.w3.org/2000/svg">
<g clip-path="url(#clip0_3279_1087)">
<path d="M363.807 0C271.76 0 197.141 74.6193 197.141 166.667C197.141 185.076 212.064 200 230.474 200C248.883 200 263.807 185.076 263.807 166.667C263.807 111.438 308.58 66.6667 363.807 66.6667H497.14C552.37 66.6667 597.14 111.438 597.14 166.667V500C597.14 555.23 552.37 600 497.14 600H363.807C308.58 600 263.807 555.23 263.807 500C263.807 481.59 248.883 466.667 230.474 466.667C212.064 466.667 197.141 481.59 197.141 500C197.141 592.047 271.76 666.667 363.807 666.667H497.14C589.187 666.667 663.807 592.047 663.807 500V166.667C663.807 74.6193 589.187 0 497.14 0H363.807Z" fill="#F3F2F1"/>
<path d="M33.333 366.657C14.923 366.657 1.30461e-06 351.734 2.91406e-06 333.324C4.52352e-06 314.914 14.923 299.99 33.333 299.99L33.333 366.657Z" fill="#F3F2F1"/>
<path d="M309.403 366.658C306.435 370.318 303.592 373.868 300.903 377.258C292.72 387.581 285.792 396.644 280.9 403.141C278.452 406.393 276.508 409.009 275.165 410.827L273.613 412.937L273.197 413.506L273.05 413.708C273.048 413.71 273.033 413.732 300 433.324L273.05 413.708C262.229 428.602 265.514 449.471 280.407 460.292C295.3 471.112 316.144 467.811 326.966 452.919L327.06 452.79L327.401 452.324L328.793 450.431C330.024 448.764 331.845 446.313 334.158 443.241C338.789 437.09 345.372 428.477 353.141 418.679C368.849 398.868 388.744 375.054 406.903 356.894L430.474 333.324L406.903 309.754C388.744 291.594 368.849 267.781 353.141 247.971C345.372 238.171 338.789 229.558 334.158 223.408C331.845 220.334 330.024 217.884 328.793 216.218L327.401 214.324L327.06 213.858L326.982 213.751C316.161 198.861 295.3 195.538 280.407 206.358C265.514 217.178 262.212 238.024 273.033 252.918L300 233.324C273.033 252.918 273.031 252.914 273.033 252.918L273.197 253.141L273.613 253.711L275.165 255.821C276.508 257.641 278.452 260.254 280.9 263.508C285.792 270.004 292.72 279.068 300.903 289.391C303.592 292.781 306.435 296.331 309.403 299.991L33.3336 299.991L33.3336 366.658L309.403 366.658Z" fill="#F3F2F1"/>
</g>
<defs>
<clipPath id="clip0_3279_1087">
<rect width="664" height="667" fill="white"/>
</clipPath>
</defs>
</svg>
