<svg width="664" height="667" viewBox="0 0 664 667" fill="none" xmlns="http://www.w3.org/2000/svg">
<path d="M363.807 0C271.76 0 197.141 74.6193 197.141 166.667C197.141 185.076 212.064 200 230.474 200C248.883 200 263.807 185.076 263.807 166.667C263.807 111.438 308.58 66.6667 363.807 66.6667H497.14C552.37 66.6667 597.14 111.438 597.14 166.667V500C597.14 555.23 552.37 600 497.14 600H363.807C308.58 600 263.807 555.23 263.807 500C263.807 481.59 248.883 466.667 230.474 466.667C212.064 466.667 197.141 481.59 197.141 500C197.141 592.047 271.76 666.667 363.807 666.667H497.14C589.187 666.667 663.807 592.047 663.807 500V166.667C663.807 74.6193 589.187 0 497.14 0H363.807Z" fill="#F3F2F1"/>
<path d="M397.141 300C415.551 300 430.474 314.923 430.474 333.333C430.474 351.743 415.551 366.667 397.141 366.667V300Z" fill="#F3F2F1"/>
<path d="M121.071 299.999C124.039 296.339 126.882 292.789 129.571 289.399C137.754 279.076 144.682 270.013 149.574 263.516C152.022 260.264 153.966 257.648 155.309 255.83L156.861 253.72L157.277 253.151L157.424 252.949C157.426 252.947 157.441 252.925 130.474 233.333L157.424 252.949C168.245 238.055 164.96 217.186 150.067 206.365C135.174 195.545 114.33 198.846 103.508 213.738L103.414 213.867L103.073 214.333L101.681 216.226C100.45 217.893 98.629 220.344 96.3157 223.416C91.6847 229.567 85.1017 238.18 77.3327 247.978C61.6247 267.789 41.73 291.603 23.5703 309.763L0 333.333L23.5703 356.903C41.73 375.063 61.6247 398.876 77.3327 418.686C85.1017 428.486 91.6847 437.099 96.3157 443.249C98.629 446.323 100.45 448.773 101.681 450.439L103.073 452.333L103.414 452.799L103.492 452.906C114.313 467.796 135.174 471.119 150.067 460.299C164.96 449.479 168.262 428.633 157.441 413.739L130.474 433.333C157.441 413.739 157.443 413.743 157.441 413.739L157.277 413.516L156.861 412.946L155.309 410.836C153.966 409.016 152.022 406.403 149.574 403.149C144.682 396.653 137.754 387.589 129.571 377.266C126.882 373.876 124.039 370.326 121.071 366.666H397.14V299.999H121.071Z" fill="#F3F2F1"/>
</svg>
