<svg width="24" height="24" viewBox="0 0 24 24" fill="none" xmlns="http://www.w3.org/2000/svg">
<path d="M12 0.674805C6.825 0.674805 2.625 4.7248 2.625 9.71231C2.625 13.4998 7.65 19.4998 10.6125 22.7248C10.9875 23.1373 11.475 23.3248 12 23.3248C12.525 23.3248 13.0125 23.0998 13.3875 22.7248C16.35 19.4998 21.375 13.4998 21.375 9.71231C21.375 4.7248 17.175 0.674805 12 0.674805ZM12.15 21.5998C12.075 21.6748 11.9625 21.6748 11.85 21.5998C8.2125 17.6248 4.3125 12.4498 4.3125 9.71231C4.3125 5.66231 7.7625 2.3623 12 2.3623C16.2375 2.3623 19.6875 5.66231 19.6875 9.71231C19.6875 12.4498 15.7875 17.6248 12.15 21.5998Z" fill="#BB0A08"/>
<path d="M11.9996 5.88721C9.74961 5.88721 7.91211 7.72471 7.91211 9.97471C7.91211 12.2247 9.74961 14.0997 11.9996 14.0997C14.2496 14.0997 16.0871 12.2622 16.0871 10.0122C16.0871 7.76221 14.2496 5.88721 11.9996 5.88721ZM11.9996 12.4122C10.6496 12.4122 9.59961 11.3247 9.59961 10.0122C9.59961 8.69971 10.6871 7.61221 11.9996 7.61221C13.3121 7.61221 14.3996 8.69971 14.3996 10.0122C14.3996 11.3247 13.3496 12.4122 11.9996 12.4122Z" fill="#BB0A08"/>
</svg>
