<svg width="54" height="54" viewBox="0 0 54 54" fill="none" xmlns="http://www.w3.org/2000/svg">
<circle cx="27" cy="27" r="27" fill="#D9D9D9"/>
<g clip-path="url(#clip0_2651_2925)">
<path d="M39.375 25.875H28.125V14.625C28.125 14.3266 28.0065 14.0405 27.7955 13.8295C27.5845 13.6185 27.2984 13.5 27 13.5V13.5C26.7016 13.5 26.4155 13.6185 26.2045 13.8295C25.9935 14.0405 25.875 14.3266 25.875 14.625V25.875H14.625C14.3266 25.875 14.0405 25.9935 13.8295 26.2045C13.6185 26.4155 13.5 26.7016 13.5 27V27C13.5 27.2984 13.6185 27.5845 13.8295 27.7955C14.0405 28.0065 14.3266 28.125 14.625 28.125H25.875V39.375C25.875 39.6734 25.9935 39.9595 26.2045 40.1705C26.4155 40.3815 26.7016 40.5 27 40.5C27.2984 40.5 27.5845 40.3815 27.7955 40.1705C28.0065 39.9595 28.125 39.6734 28.125 39.375V28.125H39.375C39.6734 28.125 39.9595 28.0065 40.1705 27.7955C40.3815 27.5845 40.5 27.2984 40.5 27C40.5 26.7016 40.3815 26.4155 40.1705 26.2045C39.9595 25.9935 39.6734 25.875 39.375 25.875Z" fill="#374957"/>
</g>
<defs>
<clipPath id="clip0_2651_2925">
<rect width="27" height="27" fill="white" transform="translate(13.5 13.5)"/>
</clipPath>
</defs>
</svg>
