<svg width="500" height="373" viewBox="0 0 500 373" fill="none" xmlns="http://www.w3.org/2000/svg">
<path d="M500 327.4H0V327.65H500V327.4Z" fill="#EBEBEB"/>
<path d="M449.899 343.49H416.779V343.74H449.899V343.49Z" fill="#EBEBEB"/>
<path d="M331.219 346.21H322.529V346.46H331.219V346.21Z" fill="#EBEBEB"/>
<path d="M415.78 334.21H396.59V334.46H415.78V334.21Z" fill="#EBEBEB"/>
<path d="M95.6509 335.89H52.4609V336.14H95.6509V335.89Z" fill="#EBEBEB"/>
<path d="M110.891 335.89H104.561V336.14H110.891V335.89Z" fill="#EBEBEB"/>
<path d="M225.151 340.11H131.471V340.36H225.151V340.11Z" fill="#EBEBEB"/>
<path d="M237.001 282.8H43.9109C42.3983 282.797 40.9485 282.195 39.8798 281.124C38.8112 280.054 38.2109 278.603 38.2109 277.09V5.66C38.2241 4.15603 38.8301 2.71798 39.8974 1.65822C40.9646 0.598458 42.4069 0.00257639 43.9109 0H237.001C238.515 0 239.968 0.601588 241.039 1.67242C242.109 2.74325 242.711 4.19561 242.711 5.71V277.09C242.711 278.604 242.109 280.057 241.039 281.128C239.968 282.198 238.515 282.8 237.001 282.8ZM43.9109 0.200001C42.4646 0.20265 41.0784 0.779065 40.0566 1.80273C39.0348 2.82639 38.4609 4.21365 38.4609 5.66V277.09C38.4609 278.536 39.0348 279.924 40.0566 280.947C41.0784 281.971 42.4646 282.547 43.9109 282.55H237.001C238.448 282.547 239.835 281.971 240.859 280.948C241.882 279.924 242.458 278.537 242.461 277.09V5.66C242.458 4.21273 241.882 2.82549 240.859 1.80212C239.835 0.77874 238.448 0.202644 237.001 0.200001H43.9109Z" fill="#EBEBEB"/>
<path d="M453.31 282.8H260.21C258.696 282.797 257.246 282.195 256.175 281.125C255.105 280.054 254.503 278.604 254.5 277.09V5.66C254.516 4.15511 255.124 2.71708 256.193 1.65759C257.262 0.598109 258.705 0.00254829 260.21 0H453.31C454.812 0.0052045 456.252 0.602249 457.317 1.66173C458.382 2.72121 458.987 4.15775 459 5.66V277.09C459 278.601 458.401 280.05 457.335 281.121C456.268 282.191 454.821 282.795 453.31 282.8ZM260.21 0.200001C258.763 0.202644 257.375 0.77874 256.352 1.80212C255.329 2.82549 254.753 4.21273 254.75 5.66V277.09C254.753 278.537 255.329 279.924 256.352 280.948C257.375 281.971 258.763 282.547 260.21 282.55H453.31C454.757 282.547 456.145 281.971 457.168 280.948C458.191 279.924 458.767 278.537 458.77 277.09V5.66C458.767 4.21273 458.191 2.82549 457.168 1.80212C456.145 0.77874 454.757 0.202644 453.31 0.200001H260.21Z" fill="#EBEBEB"/>
<path d="M66.7902 327.4H202.49L202.49 40.6099H66.7902L66.7902 327.4Z" fill="#E6E6E6"/>
<path d="M63.7805 327.4H199.48L199.48 40.6099H63.7805L63.7805 327.4Z" fill="#F5F5F5"/>
<path d="M194.07 321.32L194.07 46.6899L69.2003 46.6899L69.2003 321.32H194.07Z" fill="#FAFAFA"/>
<path d="M165.309 321.32L133.669 46.6899H97.9492L129.589 321.32H165.309Z" fill="white"/>
<path d="M71.4805 321.32L71.4805 46.6899H69.2005L69.2005 321.32H71.4805Z" fill="#E6E6E6"/>
<path d="M66.0202 78.6401L197.24 78.6401V70.4801L66.0202 70.4801V78.6401Z" fill="#F5F5F5"/>
<path d="M274.23 327.4V161H219.44V327.4H274.23Z" fill="#F0F0F0"/>
<path d="M271.221 214.63V165.86H222.451V214.63H271.221Z" fill="#F5F5F5"/>
<path d="M271.221 267.78V219.01H222.451V267.78H271.221Z" fill="#F5F5F5"/>
<path d="M271.221 320.93V272.16H222.451V320.93H271.221Z" fill="#F5F5F5"/>
<path d="M257.63 165.22H236C235.994 165.885 236.12 166.545 236.371 167.161C236.622 167.776 236.994 168.336 237.464 168.806C237.935 169.276 238.494 169.648 239.11 169.899C239.726 170.151 240.385 170.277 241.05 170.27H252.53C253.197 170.275 253.859 170.149 254.477 169.898C255.094 169.646 255.657 169.275 256.131 168.806C256.605 168.337 256.981 167.778 257.238 167.163C257.496 166.547 257.629 165.887 257.63 165.22Z" fill="#E6E6E6"/>
<path d="M257.63 218.37H236C236 219.71 236.532 220.996 237.479 221.945C238.425 222.893 239.71 223.427 241.05 223.43H252.53C253.197 223.434 253.859 223.306 254.477 223.054C255.095 222.801 255.657 222.429 256.131 221.959C256.605 221.489 256.981 220.93 257.238 220.314C257.496 219.698 257.629 219.038 257.63 218.37Z" fill="#E6E6E6"/>
<path d="M257.63 271.52H236C236 272.86 236.532 274.146 237.479 275.094C238.425 276.043 239.71 276.577 241.05 276.58H252.53C253.197 276.584 253.859 276.456 254.477 276.204C255.095 275.951 255.657 275.579 256.131 275.109C256.605 274.639 256.981 274.08 257.238 273.464C257.496 272.848 257.629 272.188 257.63 271.52Z" fill="#E6E6E6"/>
<path d="M301.59 327.4V161H274.22V327.4H301.59Z" fill="#F5F5F5"/>
<path d="M420.49 323.31H435.68V198.03H420.49V323.31Z" fill="#F0F0F0"/>
<path d="M287.72 327.4H433.58V323.31H287.72V327.4Z" fill="#F0F0F0"/>
<path d="M420.489 198.03H285.609V323.31H420.489V198.03Z" fill="#FAFAFA"/>
<path d="M312.001 271.24H394.061C397.935 271.24 401.652 269.701 404.391 266.961C407.131 264.221 408.671 260.505 408.671 256.63C408.671 252.755 407.131 249.039 404.391 246.299C401.652 243.559 397.935 242.02 394.061 242.02H312.001C308.126 242.02 304.41 243.559 301.67 246.299C298.93 249.039 297.391 252.755 297.391 256.63C297.391 260.505 298.93 264.221 301.67 266.961C304.41 269.701 308.126 271.24 312.001 271.24ZM394.081 243C395.871 243 397.643 243.353 399.297 244.038C400.95 244.723 402.453 245.726 403.718 246.992C404.984 248.258 405.988 249.76 406.673 251.414C407.358 253.068 407.711 254.84 407.711 256.63C407.711 258.42 407.358 260.192 406.673 261.846C405.988 263.5 404.984 265.002 403.718 266.268C402.453 267.534 400.95 268.538 399.297 269.223C397.643 269.907 395.871 270.26 394.081 270.26H312.001C308.386 270.26 304.919 268.824 302.363 266.268C299.807 263.712 298.371 260.245 298.371 256.63C298.371 253.015 299.807 249.548 302.363 246.992C304.919 244.436 308.386 243 312.001 243H394.081Z" fill="#F0F0F0"/>
<path d="M312.001 307.59H394.061C397.935 307.59 401.652 306.051 404.391 303.311C407.131 300.571 408.671 296.855 408.671 292.98C408.671 289.105 407.131 285.389 404.391 282.649C401.652 279.909 397.935 278.37 394.061 278.37H312.001C308.126 278.37 304.41 279.909 301.67 282.649C298.93 285.389 297.391 289.105 297.391 292.98C297.391 296.855 298.93 300.571 301.67 303.311C304.41 306.051 308.126 307.59 312.001 307.59ZM394.061 279.35C395.881 279.301 397.693 279.617 399.389 280.279C401.085 280.942 402.631 281.938 403.936 283.208C405.241 284.478 406.278 285.996 406.987 287.674C407.695 289.352 408.06 291.154 408.06 292.975C408.06 294.796 407.695 296.599 406.987 298.276C406.278 299.954 405.241 301.473 403.936 302.743C402.631 304.013 401.085 305.008 399.389 305.671C397.693 306.334 395.881 306.649 394.061 306.6H312.001C310.18 306.649 308.369 306.334 306.672 305.671C304.976 305.008 303.43 304.013 302.125 302.743C300.82 301.473 299.783 299.954 299.075 298.276C298.366 296.599 298.001 294.796 298.001 292.975C298.001 291.154 298.366 289.352 299.075 287.674C299.783 285.996 300.82 284.478 302.125 283.208C303.43 281.938 304.976 280.942 306.672 280.279C308.369 279.617 310.18 279.301 312.001 279.35H394.061Z" fill="#F0F0F0"/>
<path d="M340.669 253.48H365.429C366.237 253.477 367.012 253.155 367.583 252.584C368.154 252.012 368.477 251.238 368.479 250.43C368.477 249.622 368.154 248.848 367.583 248.276C367.012 247.705 366.237 247.383 365.429 247.38H340.669C339.861 247.383 339.087 247.705 338.515 248.276C337.944 248.848 337.622 249.622 337.619 250.43C337.622 251.238 337.944 252.012 338.515 252.584C339.087 253.155 339.861 253.477 340.669 253.48Z" fill="#EBEBEB"/>
<path d="M312.001 234.89H394.061C397.935 234.89 401.652 233.351 404.391 230.611C407.131 227.871 408.671 224.155 408.671 220.28C408.671 216.405 407.131 212.689 404.391 209.949C401.652 207.209 397.935 205.67 394.061 205.67H312.001C308.126 205.67 304.41 207.209 301.67 209.949C298.93 212.689 297.391 216.405 297.391 220.28C297.391 224.155 298.93 227.871 301.67 230.611C304.41 233.351 308.126 234.89 312.001 234.89ZM394.061 206.65C397.676 206.65 401.142 208.086 403.698 210.642C406.255 213.198 407.691 216.665 407.691 220.28C407.691 223.895 406.255 227.362 403.698 229.918C401.142 232.474 397.676 233.91 394.061 233.91H312.001C308.386 233.91 304.919 232.474 302.363 229.918C299.807 227.362 298.371 223.895 298.371 220.28C298.371 216.665 299.807 213.198 302.363 210.642C304.919 208.086 308.386 206.65 312.001 206.65H394.061Z" fill="#F0F0F0"/>
<path d="M340.669 217.13H365.429C366.237 217.127 367.012 216.805 367.583 216.234C368.154 215.662 368.477 214.888 368.479 214.08C368.466 213.28 368.139 212.517 367.568 211.956C366.998 211.394 366.229 211.08 365.429 211.08H340.669C339.869 211.08 339.101 211.394 338.53 211.956C337.959 212.517 337.632 213.28 337.619 214.08C337.622 214.888 337.944 215.662 338.515 216.234C339.087 216.805 339.861 217.127 340.669 217.13Z" fill="#EBEBEB"/>
<path d="M340.669 289.82H365.429C366.229 289.82 366.998 289.505 367.568 288.944C368.139 288.383 368.466 287.62 368.479 286.82C368.463 286.02 368.136 285.259 367.566 284.698C366.996 284.138 366.229 283.822 365.429 283.82H340.669C339.87 283.822 339.103 284.138 338.533 284.698C337.963 285.259 337.635 286.02 337.619 286.82C337.632 287.62 337.959 288.383 338.53 288.944C339.101 289.505 339.869 289.82 340.669 289.82Z" fill="#EBEBEB"/>
<path d="M282.83 198.03L420.48 198.03V191.66L282.83 191.66V198.03Z" fill="#F0F0F0"/>
<path d="M438.66 191.67H420.49V198.04H438.66V191.67Z" fill="#E6E6E6"/>
<path d="M322.001 91.3902C325.071 92.9302 333.391 91.2702 330.621 96.9002C329.025 99.8494 327.118 102.619 324.931 105.16C321.831 108.99 322.421 113.16 326.081 114.64C326.866 114.909 327.559 115.395 328.081 116.04C329.771 118.46 325.791 121.7 323.831 124.12C321.871 126.54 321.091 128.92 322.531 130.72C324.131 132.72 327.451 131.97 330.091 132.57C336.431 134.02 329.911 142.77 330.581 147.26C331.041 150.34 333.581 151.2 336.931 151.63C339.701 151.99 343.391 152.24 343.541 155.07C343.681 157.53 340.481 160.31 339.641 162.89C339.242 164 339.091 165.184 339.198 166.359C339.305 167.533 339.668 168.671 340.261 169.69C340.823 170.55 341.558 171.283 342.419 171.844C343.279 172.406 344.247 172.782 345.261 172.95C348.401 173.61 353.151 172.95 353.381 176.47C353.481 178.05 352.381 179.47 353.141 180.91C353.562 181.518 354.11 182.026 354.747 182.401C355.384 182.776 356.095 183.008 356.831 183.08C359.838 183.539 362.901 183.485 365.891 182.92C369.581 182.24 375.031 178.99 373.031 175.86C372.686 175.411 372.256 175.035 371.765 174.754C371.274 174.472 370.732 174.291 370.171 174.22C369.291 174.04 366.711 174.32 366.381 173.72C366.051 173.12 366.941 170.81 366.971 169.98C367.062 167.675 366.698 165.375 365.901 163.21C364.882 160.38 363.257 157.807 361.141 155.67C360.261 154.78 358.871 154.13 358.691 152.84C358.511 151.55 359.321 150.13 360.221 148.84C361.631 146.84 363.821 144.96 364.611 142.84C365.851 139.5 362.841 138.44 360.051 137.68C357.531 136.99 354.211 136.11 355.051 133.05C355.671 130.84 358.461 129.05 359.291 126.87C360.421 123.98 357.681 123.87 355.731 122.87C353.181 121.53 352.541 119.13 353.461 116.1C354.991 111.1 364.161 104.03 359.461 100.78C358.271 99.9502 357.161 99.6802 356.461 98.4302C355.761 97.1802 355.581 95.4302 354.581 94.2502C353.001 92.3402 349.731 92.0202 348.031 90.2502C344.521 86.6102 352.091 80.1602 345.181 78.6202C343.722 78.4324 342.34 77.8556 341.181 76.9502C340.551 76.3602 340.031 73.5102 339.321 73.3102C336.151 72.4302 330.441 78.5802 328.641 80.4702C326.451 82.7502 318.361 89.5502 322.001 91.3902Z" fill="#E0E0E0"/>
<path d="M376.39 176.21C374.51 172.72 366.28 169.21 371.74 165.21C374.685 163.206 377.853 161.551 381.18 160.28C385.96 158.28 387.66 153.68 385.24 149.87C384.684 149.069 384.34 148.14 384.24 147.17C384.04 143.65 389.29 142.81 392.31 141.54C395.33 140.27 397.31 138.33 396.98 135.59C396.64 132.59 393.32 131.25 391.31 129C386.49 123.58 396.93 118.67 398.74 113.65C399.98 110.21 398.24 107.78 395.48 105.23C393.23 103.14 390.1 100.6 391.48 97.5999C392.68 94.9999 396.99 94.1399 399.11 92.0199C400.088 91.0614 400.866 89.918 401.398 88.6562C401.93 87.3944 402.206 86.0394 402.21 84.6699C402.162 82.2705 401.217 79.9762 399.56 78.2399C397.14 75.6099 392.56 73.3599 394.27 69.5899C395.03 67.9099 396.76 67.1599 396.86 65.1899C396.83 64.3369 396.629 63.4985 396.27 62.7241C395.911 61.9496 395.401 61.2546 394.77 60.6799C392.428 58.3848 389.691 56.5317 386.69 55.2099C383.07 53.6099 376.52 53.5599 376.61 58.0099C376.723 59.3201 377.305 60.5454 378.25 61.4599C378.94 62.1999 381.36 63.5099 381.33 64.3299C381.3 65.1499 379.33 66.9599 378.8 67.7899C377.475 70.1485 376.571 72.7205 376.13 75.3899C375.511 78.9287 375.569 82.5527 376.3 86.0699C376.59 87.5199 377.48 89.0699 376.94 90.4899C376.4 91.9099 374.94 92.8699 373.47 93.5999C371.16 94.7599 368.21 95.3499 366.38 97.0299C363.49 99.6799 365.58 102.64 367.64 105.15C369.5 107.42 371.95 110.38 369.56 112.99C367.83 114.87 364.4 114.99 362.56 116.68C360.02 118.95 362.37 120.76 363.56 123.04C365.08 126.04 364.37 128.84 361.93 131.37C357.93 135.55 346.03 137.09 348.44 143.37C349.05 144.96 349.87 145.93 349.84 147.65C349.81 149.37 349.02 151.25 349.26 153.1C349.63 156.04 352.34 158.4 352.9 161.27C354.04 167.18 343.9 169.09 349.18 174.95C350.413 176.106 351.329 177.559 351.84 179.17C352.09 180.17 351.01 183.4 351.53 184.05C353.86 186.92 362.19 184.18 364.79 183.35C367.86 182.3 378.64 180.36 376.39 176.21Z" fill="#F5F5F5"/>
<path d="M397.469 168.34C397.469 168.34 396.469 191.67 358.289 191.67C320.109 191.67 319.109 168.34 319.109 168.34H397.469Z" fill="#F0F0F0"/>
<path d="M249.999 372.56C357.082 372.56 443.889 367.492 443.889 361.24C443.889 354.988 357.082 349.92 249.999 349.92C142.917 349.92 56.1094 354.988 56.1094 361.24C56.1094 367.492 142.917 372.56 249.999 372.56Z" fill="#F5F5F5"/>
<g opacity="0.2">
<path d="M360.73 352.87L297.04 235.15L233.35 352.87H360.73Z" fill="#D87C7F"/>
<path d="M360.73 153.72L297.04 271.43L233.35 153.72H360.73Z" fill="#D87C7F"/>
</g>
<path d="M308.71 223.22L299.39 240.44C299.161 240.864 298.822 241.219 298.408 241.465C297.995 241.712 297.522 241.843 297.04 241.843C296.558 241.843 296.085 241.712 295.672 241.465C295.258 241.219 294.919 240.864 294.69 240.44L285.37 223.22C284.53 221.664 284.108 219.916 284.147 218.147C284.186 216.379 284.683 214.651 285.59 213.133C286.498 211.614 287.784 210.358 289.323 209.486C290.862 208.614 292.601 208.157 294.37 208.16H299.76C301.525 208.166 303.257 208.629 304.79 209.504C306.322 210.38 307.601 211.637 308.503 213.154C309.404 214.671 309.897 216.396 309.933 218.16C309.97 219.924 309.548 221.667 308.71 223.22Z" fill="#D87C7F"/>
<path d="M298.049 323.15L326.999 335.05C327.564 335.288 328.029 335.714 328.318 336.255C328.606 336.796 328.699 337.419 328.582 338.021C328.465 338.623 328.144 339.166 327.674 339.559C327.203 339.952 326.612 340.172 325.999 340.18H268.129C267.516 340.172 266.924 339.952 266.454 339.559C265.984 339.166 265.663 338.623 265.545 338.021C265.428 337.419 265.521 336.796 265.81 336.255C266.098 335.714 266.564 335.288 267.129 335.05L295.999 323.15C296.323 323.014 296.672 322.944 297.024 322.944C297.376 322.944 297.724 323.014 298.049 323.15Z" fill="#D87C7F"/>
<path d="M297.04 300.51C299.089 300.51 300.75 298.849 300.75 296.8C300.75 294.751 299.089 293.09 297.04 293.09C294.991 293.09 293.33 294.751 293.33 296.8C293.33 298.849 294.991 300.51 297.04 300.51Z" fill="#D87C7F"/>
<path d="M297.039 259.96C298.094 259.96 298.949 259.105 298.949 258.05C298.949 256.995 298.094 256.14 297.039 256.14C295.984 256.14 295.129 256.995 295.129 258.05C295.129 259.105 295.984 259.96 297.039 259.96Z" fill="#D87C7F"/>
<path d="M297.039 278.69C298.238 278.69 299.209 277.719 299.209 276.52C299.209 275.322 298.238 274.35 297.039 274.35C295.841 274.35 294.869 275.322 294.869 276.52C294.869 277.719 295.841 278.69 297.039 278.69Z" fill="#D87C7F"/>
<path d="M360.409 347.06H233.669C232.131 347.065 230.657 347.679 229.57 348.768C228.483 349.857 227.872 351.332 227.869 352.87C227.874 354.407 228.487 355.879 229.574 356.965C230.66 358.052 232.133 358.665 233.669 358.67H360.409C361.946 358.665 363.418 358.052 364.505 356.965C365.591 355.879 366.204 354.407 366.209 352.87C366.207 351.332 365.595 349.857 364.508 348.768C363.421 347.679 361.948 347.065 360.409 347.06Z" fill="#D87C7F"/>
<path d="M360.409 147.92H233.669C232.133 147.925 230.66 148.538 229.574 149.625C228.487 150.711 227.874 152.183 227.869 153.72C227.874 155.257 228.487 156.729 229.574 157.815C230.66 158.902 232.133 159.515 233.669 159.52H360.409C361.946 159.515 363.418 158.902 364.505 157.815C365.591 156.729 366.204 155.257 366.209 153.72C366.204 152.183 365.591 150.711 364.505 149.625C363.418 148.538 361.946 147.925 360.409 147.92Z" fill="#D87C7F"/>
<path d="M194.63 350.68L187.58 348.39L191.96 331.76L199.01 334.05L194.63 350.68Z" fill="#FF8B7B"/>
<path d="M187.47 347.45L195.39 350.02C195.524 350.06 195.637 350.149 195.706 350.27C195.775 350.392 195.794 350.535 195.76 350.67L194.11 357.07C194.004 357.4 193.773 357.674 193.465 357.833C193.158 357.992 192.8 358.024 192.47 357.92C189.73 356.98 188.47 356.39 184.98 355.26C182.83 354.56 175.77 352.74 172.81 351.78C169.85 350.82 170.88 347.92 172.22 348.06C178.22 348.69 183.62 348.41 186.12 347.49C186.553 347.328 187.028 347.313 187.47 347.45Z" fill="#263238"/>
<path opacity="0.2" d="M199.009 334.06L191.959 331.76L189.699 340.34L196.759 342.63L199.009 334.06Z" fill="black"/>
<path d="M218.279 165.72C218.279 165.72 205.629 224.27 202.659 245.32C199.409 268.37 187.199 337.59 187.199 337.59L200.289 341.21C200.289 341.21 218.429 274.08 223.729 251.67C229.479 227.34 244.729 165.67 244.729 165.67L218.279 165.72Z" fill="#D87C7F"/>
<path opacity="0.3" d="M233.92 184.92C228.92 196.26 226.45 220.92 228.39 232.27C231.93 217.72 236.19 200.42 239.48 187.11C238.37 183.25 236.53 179 233.92 184.92Z" fill="black"/>
<path d="M200.62 341.47L186.6 337.61L186.88 331.9L202.66 337.35L200.62 341.47Z" fill="#263238"/>
<path d="M184.57 347.87C185.222 348.06 185.893 348.181 186.57 348.23C186.604 348.232 186.637 348.224 186.666 348.208C186.696 348.192 186.72 348.169 186.737 348.139C186.754 348.11 186.762 348.077 186.761 348.044C186.759 348.01 186.749 347.978 186.73 347.95C186.55 347.72 185 345.71 184.03 345.77C183.918 345.775 183.81 345.809 183.716 345.869C183.621 345.929 183.543 346.012 183.49 346.11C183.39 346.255 183.33 346.424 183.316 346.599C183.302 346.775 183.334 346.951 183.41 347.11C183.694 347.493 184.105 347.763 184.57 347.87ZM186.16 347.87C184.82 347.71 183.9 347.37 183.68 346.94C183.634 346.838 183.616 346.726 183.629 346.615C183.641 346.504 183.683 346.399 183.75 346.31C183.775 346.262 183.813 346.221 183.858 346.191C183.904 346.161 183.956 346.144 184.01 346.14C184.53 346.08 185.51 347.06 186.16 347.84V347.87Z" fill="#263238"/>
<path d="M186.5 348.22H186.58C186.609 348.213 186.636 348.2 186.659 348.181C186.682 348.162 186.699 348.137 186.71 348.11C186.71 348.03 187.56 346.05 187.07 345.11C187.009 344.991 186.921 344.889 186.814 344.811C186.706 344.733 186.582 344.681 186.45 344.66C186.308 344.617 186.156 344.624 186.018 344.678C185.88 344.732 185.765 344.832 185.69 344.96C185.28 345.68 185.85 347.49 186.42 348.14L186.5 348.22ZM186.5 345.05C186.567 345.069 186.629 345.102 186.683 345.147C186.736 345.192 186.779 345.247 186.81 345.31C186.978 346.115 186.883 346.952 186.54 347.7C186.056 346.951 185.874 346.047 186.03 345.17C186.03 345.08 186.17 344.98 186.42 345.03L186.5 345.05Z" fill="#263238"/>
<path d="M231.739 110.13C231.359 111.03 231.039 111.71 230.689 112.47C230.339 113.23 229.959 113.93 229.589 114.65C228.849 116.1 228.069 117.51 227.259 118.92C225.623 121.751 223.82 124.483 221.859 127.1C219.852 129.806 217.628 132.345 215.209 134.69C212.632 137.227 209.71 139.388 206.529 141.11L206.279 141.24C205.874 141.449 205.444 141.604 204.999 141.7C202.721 142.174 200.362 142.081 198.129 141.43C196.273 140.875 194.508 140.053 192.889 138.99C190.172 137.163 187.734 134.954 185.649 132.43C183.712 130.128 181.951 127.685 180.379 125.12C178.827 122.599 177.447 119.977 176.249 117.27C175.94 116.554 175.9 115.751 176.136 115.008C176.372 114.265 176.867 113.631 177.532 113.224C178.197 112.817 178.986 112.663 179.755 112.791C180.524 112.919 181.222 113.32 181.719 113.92L181.819 114.04C183.469 116.04 185.259 118.17 187.059 120.11C188.813 122.041 190.676 123.871 192.639 125.59C194.374 127.162 196.303 128.507 198.379 129.59C199.155 129.989 199.988 130.266 200.849 130.41C201.331 130.499 201.828 130.458 202.289 130.29L200.759 130.88C202.826 129.486 204.71 127.84 206.369 125.98C208.175 123.952 209.845 121.807 211.369 119.56C212.949 117.26 214.449 114.85 215.859 112.37C216.579 111.14 217.269 109.89 217.919 108.62L218.919 106.73C219.229 106.12 219.569 105.42 219.809 104.93L219.869 104.79C220.598 103.251 221.901 102.06 223.499 101.473C225.097 100.885 226.861 100.948 228.413 101.647C229.965 102.347 231.181 103.627 231.799 105.213C232.417 106.799 232.389 108.565 231.719 110.13H231.739Z" fill="#263238"/>
<path opacity="0.3" d="M215.39 123.71C218.53 115.37 225.2 115.23 228.09 117.44C227.88 117.83 227.66 118.22 227.44 118.61C225.871 121.34 224.152 123.981 222.29 126.52C220.379 129.132 218.276 131.599 216 133.9C215.28 134.61 214.54 135.31 213.77 135.99C213.505 131.83 214.055 127.659 215.39 123.71Z" fill="black"/>
<path d="M176 117.79L169.5 118.03L171.12 111.08C173.358 111.191 175.579 111.526 177.75 112.08C178.145 112.199 178.507 112.41 178.805 112.696C179.104 112.981 179.331 113.333 179.468 113.722C179.606 114.112 179.649 114.528 179.596 114.938C179.542 115.347 179.393 115.738 179.16 116.08C178.808 116.596 178.338 117.022 177.788 117.319C177.238 117.617 176.625 117.778 176 117.79Z" fill="#FF8B7B"/>
<path d="M179.64 111.92C179.002 111.414 178.272 111.037 177.49 110.81C176.95 113.65 173.49 118.44 173.49 118.44H176.2C176.549 118.441 176.894 118.365 177.21 118.218C177.526 118.071 177.806 117.857 178.03 117.59L179.93 115.31C180.138 115.07 180.296 114.791 180.395 114.489C180.493 114.188 180.53 113.869 180.503 113.553C180.475 113.237 180.385 112.93 180.237 112.649C180.089 112.368 179.886 112.12 179.64 111.92Z" fill="#D87C7F"/>
<path d="M164.52 114.83L166.34 109.93L171.1 111.09L169.48 118.03L164.52 114.83Z" fill="#FF8B7B"/>
<path d="M246.25 353.92H238.84L238.58 336.75H245.99L246.25 353.92Z" fill="#FF8B7B"/>
<path d="M238.45 353.06H246.78C246.849 353.057 246.919 353.068 246.984 353.093C247.049 353.117 247.109 353.154 247.16 353.201C247.212 353.248 247.253 353.305 247.282 353.369C247.311 353.432 247.327 353.5 247.33 353.57L247.73 360.16C247.73 360.507 247.593 360.839 247.35 361.086C247.107 361.333 246.776 361.475 246.43 361.48C243.53 361.43 242.15 361.26 238.43 361.26C236.18 361.26 228.65 361.49 225.54 361.49C222.43 361.49 222.54 358.41 223.83 358.13C229.75 356.89 235.03 355.13 237.12 353.52C237.496 353.216 237.966 353.053 238.45 353.06Z" fill="#263238"/>
<path opacity="0.2" d="M246 336.76H238.58L238.72 345.61H246.13L246 336.76Z" fill="black"/>
<path d="M232.739 165.72C232.739 165.72 229.909 230.13 231.109 251.36C232.429 274.6 235.189 343.47 235.189 343.47H248.769C248.769 343.47 252.189 276.47 253.009 253.47C253.899 228.47 257.929 165.72 257.929 165.72H232.739Z" fill="#D87C7F"/>
<path d="M249.319 343.47H234.649L233.529 338.01L249.719 338.82L249.319 343.47Z" fill="#263238"/>
<path d="M235.819 354.35C236.493 354.333 237.163 354.246 237.819 354.09C237.85 354.079 237.879 354.061 237.901 354.036C237.924 354.012 237.94 353.982 237.949 353.95C237.952 353.918 237.948 353.886 237.936 353.856C237.923 353.826 237.904 353.8 237.879 353.78C237.639 353.61 235.539 352.18 234.629 352.54C234.528 352.581 234.438 352.646 234.368 352.729C234.298 352.813 234.25 352.913 234.229 353.02C234.183 353.182 234.179 353.354 234.218 353.518C234.256 353.682 234.336 353.834 234.449 353.96C234.842 354.254 235.33 354.392 235.819 354.35ZM237.319 353.84C235.989 354.1 235.019 354.06 234.669 353.72C234.597 353.636 234.548 353.534 234.527 353.426C234.506 353.317 234.513 353.205 234.549 353.1C234.556 353.046 234.577 352.996 234.611 352.954C234.644 352.912 234.688 352.879 234.739 352.86C235.229 352.67 236.459 353.29 237.319 353.84Z" fill="#263238"/>
<path d="M237.76 354.09C237.786 354.098 237.814 354.098 237.84 354.09C237.865 354.075 237.886 354.055 237.902 354.031C237.918 354.006 237.927 353.979 237.93 353.95C237.93 353.86 238.1 351.73 237.35 351.01C237.255 350.917 237.139 350.846 237.013 350.805C236.886 350.763 236.752 350.751 236.62 350.77C236.474 350.775 236.333 350.829 236.221 350.924C236.109 351.018 236.031 351.147 236 351.29C235.82 352.1 236.93 353.65 237.67 354.09C237.699 354.099 237.731 354.099 237.76 354.09ZM236.76 351.09C236.829 351.088 236.897 351.1 236.961 351.126C237.024 351.152 237.082 351.191 237.13 351.24C237.543 351.953 237.715 352.781 237.62 353.6C236.98 353.05 236.24 351.87 236.35 351.34C236.35 351.24 236.43 351.12 236.68 351.09H236.76Z" fill="#263238"/>
<path d="M261.64 105.94C261.751 105.315 261.735 104.673 261.592 104.055C261.449 103.436 261.183 102.853 260.81 102.339C260.436 101.826 259.963 101.393 259.418 101.066C258.874 100.74 258.269 100.527 257.64 100.44H257.56C255.17 100.09 252.17 99.7298 249.23 99.5898C243.618 99.2696 237.992 99.2696 232.38 99.5898C229.79 99.8298 227.26 100.26 225.24 100.65H225.16C223.897 100.905 222.728 101.5 221.778 102.37C220.828 103.241 220.134 104.354 219.77 105.59C217.35 113.74 214.46 130.38 218.24 165.71H257.89C258.17 162.17 257.38 150.65 257.96 135.98C258.539 125.898 259.769 115.864 261.64 105.94Z" fill="#263238"/>
<path opacity="0.3" d="M261.26 108.12C260.44 112.86 259.43 119.31 258.73 126.12C258.73 126.12 255.11 119.02 254.45 112.95C253.79 106.88 259 106.42 261.26 108.12Z" fill="black"/>
<g opacity="0.2">
<path d="M234.669 109.06C234.587 109.056 234.508 109.026 234.444 108.973C234.381 108.921 234.336 108.849 234.317 108.769C234.298 108.689 234.305 108.605 234.338 108.529C234.371 108.454 234.427 108.391 234.499 108.35L246.859 101.94C246.947 101.897 247.048 101.89 247.141 101.92C247.234 101.95 247.312 102.014 247.359 102.1C247.405 102.189 247.414 102.293 247.384 102.388C247.354 102.484 247.287 102.563 247.199 102.61L234.839 109C234.787 109.031 234.729 109.051 234.669 109.06Z" fill="white"/>
<path d="M240.329 109.64C240.281 109.642 240.232 109.633 240.187 109.614C240.142 109.595 240.102 109.567 240.069 109.53L233.289 102.8C233.223 102.728 233.186 102.634 233.186 102.535C233.186 102.437 233.223 102.342 233.289 102.27C233.36 102.201 233.455 102.163 233.554 102.163C233.653 102.163 233.748 102.201 233.819 102.27L240.589 109.01C240.658 109.081 240.697 109.176 240.697 109.275C240.697 109.374 240.658 109.469 240.589 109.54C240.555 109.573 240.514 109.599 240.469 109.616C240.425 109.634 240.377 109.642 240.329 109.64Z" fill="white"/>
<path d="M249.259 99.58C243.65 99.2598 238.028 99.2598 232.419 99.58H232.139C232.003 100.095 231.971 100.631 232.045 101.158C232.118 101.686 232.297 102.193 232.569 102.65C233.509 104.15 235.479 104.99 238.439 105.15H239.549C247.549 105.15 250.639 100.29 250.769 100.08L251.049 99.63L249.259 99.58Z" fill="white"/>
</g>
<path d="M233.219 99.5197C238.119 98.3597 238.979 95.3297 238.649 91.9997C238.572 91.1657 238.441 90.3373 238.259 89.5197L244.399 84.4197L248.909 80.6797C247.659 86.1097 246.249 95.9997 249.909 99.6197C249.909 99.6197 246.909 104.62 238.479 104.18C231.409 103.79 233.219 99.5197 233.219 99.5197Z" fill="#FF8B7B"/>
<path opacity="0.2" d="M238.26 89.5199C238.442 90.3376 238.572 91.1659 238.65 91.9999C240.94 91.5399 244 89.0999 244.32 86.7599C244.432 85.9852 244.459 85.2005 244.4 84.4199L238.26 89.5199Z" fill="black"/>
<path d="M234.999 63.5C231.669 65.5 232.199 70.5 231.299 74.08C233.419 74.29 236.759 70.52 236.759 70.52L238.759 64.79L234.999 63.5Z" fill="#263238"/>
<path d="M252.709 73.5599C250.579 80.6199 249.709 84.8499 245.189 87.7999C243.735 88.772 242.043 89.3282 240.296 89.4082C238.55 89.4882 236.814 89.089 235.278 88.2539C233.741 87.4188 232.462 86.1795 231.58 84.67C230.697 83.1606 230.243 81.4385 230.269 79.6899C230.269 72.9599 233.729 62.5399 241.449 61.0999C243.113 60.7443 244.841 60.8327 246.46 61.3561C248.079 61.8796 249.532 62.8197 250.673 64.0821C251.813 65.3445 252.602 66.8849 252.959 68.5484C253.317 70.212 253.23 71.9404 252.709 73.5599Z" fill="#FF8B7B"/>
<path d="M246.059 79.5498C251.059 73.7498 244.809 70.8898 249.919 66.8598C244.169 67.1298 234.699 66.7198 233.009 62.7798C231.319 58.8398 236.519 53.4998 240.849 52.9998C245.849 52.4198 244.769 58.6098 244.769 58.6098C244.769 58.6098 263.899 57.4198 257.829 65.6098C262.429 65.3298 261.159 72.7698 253.159 79.0498C251.149 79.7198 246.059 79.5498 246.059 79.5498Z" fill="#263238"/>
<path d="M256.68 65.7099C256.68 65.7099 260.62 64.5399 260.49 61.4199C261.91 62.3999 262.06 65.3799 256.68 65.7099Z" fill="#263238"/>
<path d="M253.88 80.9297C252.729 82.3513 251.121 83.3302 249.33 83.6997C247.06 84.1097 246.53 82.0097 247.66 79.9597C248.66 78.1197 251.09 75.6897 253.13 76.1997C255.17 76.7097 255.33 79.1397 253.88 80.9297Z" fill="#FF8B7B"/>
<path d="M241.319 73.3797C241.179 73.9597 240.759 74.3797 240.369 74.2897C239.979 74.1997 239.789 73.6797 239.929 73.0997C240.069 72.5197 240.489 72.0997 240.869 72.1797C241.249 72.2597 241.459 72.7897 241.319 73.3797Z" fill="#263238"/>
<path d="M234.689 72.0499C234.549 72.6299 234.129 73.0499 233.749 72.9699C233.369 72.8899 233.159 72.3599 233.299 71.7799C233.439 71.1999 233.859 70.7799 234.239 70.8599C234.619 70.9399 234.829 71.4699 234.689 72.0499Z" fill="#263238"/>
<path d="M236.73 72.7598C235.602 74.4061 234.256 75.8928 232.73 77.1798C233.07 77.5463 233.487 77.8338 233.95 78.0221C234.413 78.2104 234.911 78.295 235.41 78.2698L236.73 72.7598Z" fill="#FF5652"/>
<path d="M237.45 80.3098C238.142 80.3748 238.841 80.2984 239.503 80.0852C240.164 79.8721 240.776 79.5266 241.3 79.0698C241.317 79.0548 241.331 79.0363 241.34 79.0156C241.349 78.9949 241.354 78.9725 241.354 78.9498C241.354 78.9271 241.349 78.9046 241.34 78.8839C241.331 78.8633 241.317 78.8448 241.3 78.8298C241.267 78.7974 241.222 78.7793 241.175 78.7793C241.129 78.7793 241.084 78.7974 241.05 78.8298C240.475 79.3185 239.795 79.6675 239.063 79.8497C238.331 80.0318 237.567 80.0421 236.83 79.8798C236.808 79.8755 236.785 79.8757 236.763 79.8804C236.74 79.8852 236.719 79.8944 236.701 79.9074C236.682 79.9205 236.666 79.9372 236.654 79.9565C236.642 79.9758 236.634 79.9973 236.63 80.0198C236.621 80.0661 236.631 80.1141 236.657 80.1534C236.683 80.1927 236.724 80.2201 236.77 80.2298L237.45 80.3098Z" fill="#263238"/>
<path d="M243.88 71.7596C243.935 71.778 243.995 71.778 244.05 71.7596C244.092 71.7413 244.13 71.7147 244.161 71.6814C244.193 71.6481 244.217 71.6088 244.233 71.5659C244.249 71.5229 244.256 71.4772 244.254 71.4314C244.252 71.3857 244.24 71.3409 244.22 71.2996C244.005 70.7883 243.668 70.3381 243.237 69.9891C242.806 69.6402 242.295 69.4033 241.75 69.2996C241.658 69.2881 241.564 69.3129 241.49 69.3689C241.415 69.4248 241.365 69.5076 241.35 69.5996C241.345 69.6457 241.348 69.6923 241.361 69.7369C241.373 69.7815 241.395 69.8232 241.424 69.8594C241.452 69.8957 241.488 69.9259 241.529 69.9483C241.569 69.9706 241.614 69.9847 241.66 69.9896C242.084 70.0791 242.479 70.2694 242.814 70.5445C243.148 70.8196 243.411 71.1712 243.58 71.5696C243.609 71.6245 243.653 71.6709 243.705 71.7042C243.758 71.7375 243.818 71.7566 243.88 71.7596Z" fill="#263238"/>
<path d="M233.05 68.0698C233.104 68.0894 233.162 68.0941 233.219 68.0835C233.275 68.073 233.327 68.0475 233.37 68.0098C233.716 67.7224 234.123 67.5194 234.561 67.4169C234.998 67.3145 235.453 67.3155 235.89 67.4198C235.934 67.4342 235.981 67.4399 236.027 67.4364C236.073 67.4329 236.118 67.4204 236.159 67.3995C236.201 67.3786 236.238 67.3497 236.268 67.3146C236.298 67.2795 236.321 67.2388 236.335 67.1948C236.35 67.1508 236.355 67.1044 236.352 67.0582C236.348 67.0121 236.336 66.967 236.315 66.9257C236.294 66.8844 236.265 66.8476 236.23 66.8174C236.195 66.7872 236.154 66.7643 236.11 66.7498C235.563 66.6146 234.992 66.6083 234.442 66.7316C233.892 66.8548 233.378 67.1041 232.94 67.4598C232.868 67.517 232.82 67.6006 232.809 67.6924C232.798 67.7842 232.824 67.8768 232.88 67.9498C232.921 68.0088 232.981 68.0514 233.05 68.0698Z" fill="#263238"/>
<path d="M262 103.09L262.83 104.22L263.58 105.28C264.08 105.99 264.53 106.7 265 107.41C265.91 108.84 266.77 110.29 267.6 111.75C269.263 114.669 270.772 117.673 272.12 120.75C272.82 122.27 273.42 123.85 274.06 125.4C274.7 126.95 275.24 128.56 275.73 130.18C276.783 133.404 277.651 136.686 278.33 140.01L278.41 140.39C278.556 141.061 278.569 141.755 278.447 142.431C278.326 143.107 278.071 143.752 277.7 144.33C276.411 146.307 274.883 148.118 273.15 149.72C271.367 151.353 269.343 152.703 267.15 153.72C264.984 154.729 262.666 155.371 260.29 155.62C259.127 155.74 257.956 155.76 256.79 155.68C256.21 155.68 255.63 155.57 255.05 155.48L254.17 155.31L253.17 155.06C253.052 155.031 252.95 154.958 252.887 154.855C252.823 154.752 252.803 154.628 252.83 154.51L254.21 148.71C254.21 148.66 254.47 148.65 254.63 148.61L255.18 148.5C255.56 148.42 255.93 148.33 256.31 148.23C257.05 148.029 257.776 147.775 258.48 147.47C259.843 146.91 261.119 146.16 262.27 145.24C264.521 143.387 266.321 141.044 267.53 138.39L266.9 142.71C266.04 139.88 265.13 137.08 264.03 134.31C262.93 131.54 261.73 128.82 260.42 126.14C259.11 123.46 257.71 120.81 256.2 118.23C255.46 116.94 254.68 115.67 253.9 114.41L252.71 112.55L252.12 111.65L251.57 110.85L251.37 110.55C250.38 109.14 249.992 107.395 250.289 105.699C250.586 104.003 251.545 102.494 252.955 101.505C254.364 100.516 256.109 100.127 257.805 100.424C259.502 100.721 261.01 101.68 262 103.09Z" fill="#263238"/>
<path d="M248.779 154.48L246.629 158L255.959 157.63C255.959 157.63 258.409 151.35 255.069 150.36L253.769 150.71C251.69 151.292 249.907 152.639 248.779 154.48Z" fill="#FF8B7B"/>
<path d="M252.62 149.55C251.948 150.004 251.37 150.585 250.92 151.26C253.46 152.64 257 157.34 257 157.34L257.82 154.76C257.924 154.427 257.954 154.075 257.907 153.73C257.861 153.384 257.739 153.053 257.55 152.76L256 150.26C255.83 149.984 255.607 149.747 255.342 149.561C255.078 149.375 254.779 149.245 254.463 149.178C254.146 149.112 253.82 149.111 253.503 149.174C253.186 149.238 252.886 149.366 252.62 149.55Z" fill="#D87C7F"/>
<path d="M247.449 163.42L255.139 162.74L255.959 157.63L246.629 158L247.449 163.42Z" fill="#FF8B7B"/>
<path d="M153.061 41.3402L152.551 40.4802C154.017 39.6111 155.545 38.8491 157.121 38.2002L157.501 39.1302C155.968 39.7557 154.484 40.4944 153.061 41.3402Z" fill="#D87C7F"/>
<path d="M138.461 59.0003L137.461 58.6603C139.832 52.0963 144.12 46.3963 149.771 42.3003L150.361 43.1103C144.889 47.092 140.742 52.6289 138.461 59.0003Z" fill="#D87C7F"/>
<path d="M170.202 101.17C187.201 101.17 200.982 87.3897 200.982 70.3904C200.982 53.391 187.201 39.6104 170.202 39.6104C153.203 39.6104 139.422 53.391 139.422 70.3904C139.422 87.3897 153.203 101.17 170.202 101.17Z" fill="#D87C7F"/>
<path opacity="0.6" d="M195.91 70.3903C195.908 76.3885 193.809 82.1972 189.976 86.8109C186.143 91.4247 180.818 94.5531 174.922 95.6547C169.026 96.7562 162.93 95.7616 157.69 92.8429C152.45 89.9242 148.395 85.2652 146.228 79.6724C144.06 74.0796 143.916 67.9049 145.821 62.2172C147.726 56.5296 151.559 51.6869 156.658 48.5276C161.757 45.3682 167.8 44.0909 173.741 44.9168C179.682 45.7428 185.147 48.62 189.19 53.0503C189.198 53.0467 189.207 53.0449 189.215 53.0449C189.224 53.0449 189.232 53.0467 189.24 53.0503C193.551 57.7943 195.931 63.9801 195.91 70.3903Z" fill="white"/>
<path d="M195.912 70.3904C195.911 75.388 194.455 80.2772 191.72 84.46C188.985 88.6428 185.09 91.9378 180.512 93.9419C175.934 95.9461 170.871 96.5726 165.942 95.7447C161.014 94.9168 156.434 92.6704 152.762 89.2804C148.272 84.3881 145.849 77.9486 146.001 71.3102C146.152 64.6719 148.866 58.3496 153.575 53.6673C158.283 48.985 164.62 46.3059 171.259 46.1909C177.898 46.0759 184.324 48.534 189.192 53.0504C189.199 53.0468 189.208 53.0449 189.217 53.0449C189.225 53.0449 189.234 53.0468 189.242 53.0504C193.553 57.7944 195.932 63.9802 195.912 70.3904Z" fill="white"/>
<path d="M170.2 71.8904C170.003 71.8908 169.808 71.8521 169.626 71.7766C169.444 71.701 169.279 71.5902 169.14 71.4504L156.6 58.9104C156.453 58.7731 156.335 58.6075 156.253 58.4235C156.171 58.2395 156.127 58.0408 156.123 57.8394C156.12 57.638 156.157 57.438 156.232 57.2512C156.308 57.0644 156.42 56.8948 156.562 56.7523C156.705 56.6099 156.874 56.4976 157.061 56.4222C157.248 56.3467 157.448 56.3097 157.65 56.3132C157.851 56.3168 158.05 56.3609 158.234 56.4428C158.418 56.5248 158.583 56.643 158.72 56.7904L170.2 68.2704L176.83 61.6404C177.115 61.3754 177.491 61.2312 177.88 61.238C178.268 61.2449 178.639 61.4023 178.914 61.6772C179.189 61.952 179.346 62.3228 179.353 62.7114C179.36 63.1 179.215 63.4761 178.95 63.7604L171.26 71.4504C170.979 71.7309 170.598 71.889 170.2 71.8904Z" fill="#263238"/>
</svg>
