<svg width="280" height="208" viewBox="0 0 280 208" fill="none" xmlns="http://www.w3.org/2000/svg">
<path d="M158.171 28.0224C162.135 33.1184 167.584 36.8144 172.518 40.9752C192.717 58.016 207.031 82.9472 207.831 109.362C208.632 135.778 194.419 162.982 170.586 174.401C148.746 184.856 119.323 185.231 99.3201 171.601C90.0577 165.323 78.9585 155.378 75.0385 143.394C71.3369 132.126 52.6833 75.7344 128.799 35.9296C147.721 26.0344 148.723 13.6024 152.425 17.1248C154.038 18.6368 154.032 22.708 158.171 28.0224Z" fill="#D87C7F"/>
<path opacity="0.9" d="M158.171 28.0224C162.135 33.1184 167.584 36.8144 172.518 40.9752C192.717 58.016 207.031 82.9472 207.831 109.362C208.632 135.778 194.419 162.982 170.586 174.401C148.746 184.856 119.323 185.231 99.3201 171.601C90.0577 165.323 78.9585 155.378 75.0385 143.394C71.3369 132.126 52.6833 75.7344 128.799 35.9296C147.721 26.0344 148.723 13.6024 152.425 17.1248C154.038 18.6368 154.032 22.708 158.171 28.0224Z" fill="white"/>
<path d="M137.3 207.239C197.266 207.239 245.878 204.401 245.878 200.9C245.878 197.398 197.266 194.56 137.3 194.56C77.3339 194.56 28.7217 197.398 28.7217 200.9C28.7217 204.401 77.3339 207.239 137.3 207.239Z" fill="#F5F5F5"/>
<path d="M142.709 150.713C142.709 150.713 142.709 163.206 153.473 169.193C164.236 175.179 199.337 149.682 198.715 150.713C198.093 151.743 142.709 150.713 142.709 150.713Z" fill="#263238"/>
<path opacity="0.2" d="M142.709 150.713C142.709 150.713 142.709 163.206 153.473 169.193C164.236 175.179 199.337 149.682 198.715 150.713C198.093 151.743 142.709 150.713 142.709 150.713Z" fill="white"/>
<path d="M153.81 96.8235C145.068 97.1091 135.649 97.3835 126.93 97.6747C125.065 95.3283 124.117 92.3842 124.261 89.3905C124.405 86.3967 125.632 83.5574 127.714 81.4011C128.619 80.4714 129.701 79.731 130.895 79.2227C135.291 77.2963 141.126 78.1811 145.203 80.8523C149.543 83.7027 152.236 88.6923 153.345 93.8499C153.557 94.8314 153.712 95.8242 153.81 96.8235Z" fill="#D87C7F"/>
<path opacity="0.5" d="M153.81 96.8235C145.068 97.1091 135.649 97.3835 126.93 97.6747C125.065 95.3283 124.117 92.3842 124.261 89.3905C124.405 86.3967 125.632 83.5574 127.714 81.4011C128.619 80.4714 129.701 79.731 130.895 79.2227C135.291 77.2963 141.126 78.1811 145.203 80.8523C149.543 83.7027 152.236 88.6923 153.345 93.8499C153.557 94.8314 153.712 95.8242 153.81 96.8235Z" fill="white"/>
<path opacity="0.5" d="M153.345 93.8446L130.9 94.5558C129.166 92.3756 128.222 89.6722 128.222 86.8865C128.222 84.1009 129.166 81.3975 130.9 79.2174C135.296 77.291 141.131 78.1757 145.208 80.8469C149.52 83.6973 152.236 88.6814 153.345 93.8446Z" fill="white"/>
<path d="M208.392 147.61C208.391 149.226 207.748 150.776 206.604 151.919C205.461 153.061 203.91 153.703 202.294 153.703H148.797L121.044 102.121C120.549 101.212 120.289 100.194 120.288 99.1588C120.292 98.6241 120.362 98.092 120.495 97.574C120.792 96.4355 121.404 95.4039 122.261 94.5976C123.118 93.7913 124.184 93.2429 125.339 93.0156C125.74 92.9317 126.149 92.8904 126.56 92.8924H154C156.076 92.8941 158.107 93.4939 159.851 94.6202C161.595 95.7464 162.978 97.3513 163.833 99.2428L172.233 117.852L183.64 140.666C183.64 140.666 196.593 141.103 202.608 140.666C208.622 140.229 208.392 147.61 208.392 147.61Z" fill="#D87C7F"/>
<path opacity="0.5" d="M208.392 147.61C208.391 149.226 207.748 150.776 206.604 151.919C205.461 153.061 203.91 153.703 202.294 153.703H148.797L121.044 102.121C120.549 101.212 120.289 100.194 120.288 99.1588C120.292 98.6241 120.362 98.092 120.495 97.574C120.792 96.4355 121.404 95.4039 122.261 94.5976C123.118 93.7913 124.184 93.2429 125.339 93.0156C125.74 92.9317 126.149 92.8904 126.56 92.8924H154C156.076 92.8941 158.107 93.4939 159.851 94.6202C161.595 95.7464 162.978 97.3513 163.833 99.2428L172.233 117.852L183.64 140.666C183.64 140.666 196.593 141.103 202.608 140.666C208.622 140.229 208.392 147.61 208.392 147.61Z" fill="white"/>
<path opacity="0.5" d="M178.124 147.61C178.124 149.226 177.482 150.776 176.34 151.918C175.197 153.061 173.648 153.703 172.032 153.703H148.797L121.044 102.121C120.549 101.212 120.289 100.194 120.288 99.1588C120.292 98.6241 120.362 98.092 120.495 97.574C120.792 96.4356 121.404 95.4039 122.261 94.5976C123.118 93.7913 124.184 93.243 125.339 93.0156C127.119 93.2853 128.804 93.9965 130.239 95.0842C131.673 96.1719 132.813 97.6016 133.554 99.2428L141.954 117.852L153.361 140.666C153.361 140.666 166.308 141.103 172.323 140.666C178.337 140.229 178.124 147.61 178.124 147.61Z" fill="white"/>
<path d="M215.672 154.201H148.573C147.684 154.201 146.804 154.026 145.983 153.686C145.162 153.345 144.416 152.847 143.787 152.218C143.159 151.589 142.661 150.843 142.321 150.021C141.982 149.2 141.807 148.32 141.808 147.431C141.808 145.637 142.521 143.916 143.789 142.647C145.058 141.379 146.779 140.666 148.573 140.666H215.672C216.561 140.665 217.441 140.84 218.263 141.179C219.084 141.519 219.83 142.017 220.459 142.645C221.088 143.274 221.587 144.02 221.927 144.841C222.267 145.662 222.443 146.542 222.443 147.431C222.443 149.226 221.729 150.949 220.46 152.218C219.19 153.488 217.468 154.201 215.672 154.201Z" fill="#D87C7F"/>
<path opacity="0.5" d="M222.437 147.431C222.437 149.225 221.724 150.946 220.456 152.216C219.187 153.486 217.467 154.2 215.672 154.201H148.573C146.779 154.201 145.058 153.488 143.789 152.22C142.521 150.951 141.808 149.23 141.808 147.436C141.808 145.642 142.521 143.921 143.789 142.653C145.058 141.384 146.779 140.671 148.573 140.671H215.672C217.465 140.671 219.185 141.383 220.454 142.651C221.722 143.918 222.435 145.637 222.437 147.431Z" fill="white"/>
<path d="M250.465 170.587L228.322 143.321C227.637 142.476 226.754 141.814 225.752 141.392C224.75 140.97 223.659 140.802 222.577 140.901H194.442C192.74 140.755 191.048 141.275 189.722 142.352C188.36 143.457 187.493 145.058 187.311 146.802C187.129 148.546 187.648 150.291 188.753 151.653L210.901 178.925C211.519 179.687 212.299 180.302 213.184 180.724C214.07 181.147 215.038 181.366 216.019 181.367H245.279C246.534 181.38 247.767 181.035 248.834 180.373C249.9 179.711 250.756 178.759 251.302 177.628C251.847 176.498 252.06 175.235 251.915 173.988C251.769 172.742 251.272 171.562 250.481 170.587H250.465Z" fill="#D87C7F"/>
<path opacity="0.2" d="M220.197 179.888C219.523 180.436 218.748 180.845 217.917 181.093C217.085 181.34 216.212 181.422 215.349 181.332C214.486 181.243 213.649 180.984 212.886 180.571C212.122 180.158 211.448 179.599 210.901 178.925L188.753 151.653C187.648 150.291 187.129 148.546 187.311 146.802C187.493 145.058 188.36 143.457 189.722 142.352C190.395 141.804 191.17 141.395 192.002 141.147C192.834 140.899 193.707 140.818 194.57 140.908C195.434 140.998 196.271 141.257 197.034 141.671C197.797 142.085 198.471 142.646 199.018 143.32L221.165 170.587C221.713 171.261 222.123 172.036 222.37 172.869C222.618 173.701 222.699 174.575 222.61 175.439C222.52 176.302 222.26 177.14 221.846 177.904C221.432 178.667 220.872 179.342 220.197 179.888Z" fill="white"/>
<path opacity="0.5" d="M250.465 170.587L228.322 143.321C227.637 142.476 226.754 141.814 225.752 141.392C224.75 140.97 223.659 140.802 222.577 140.901H194.442C192.74 140.755 191.048 141.275 189.722 142.352C188.36 143.457 187.493 145.058 187.311 146.802C187.129 148.546 187.648 150.291 188.753 151.653L210.901 178.925C211.519 179.687 212.299 180.302 213.184 180.724C214.07 181.147 215.038 181.366 216.019 181.367H245.279C246.534 181.38 247.767 181.035 248.834 180.373C249.9 179.711 250.756 178.759 251.302 177.628C251.847 176.498 252.06 175.235 251.915 173.988C251.769 172.742 251.272 171.562 250.481 170.587H250.465Z" fill="white"/>
<path d="M126.408 196.84H121.709V201.538H126.408V196.84Z" fill="#263238"/>
<path d="M173.886 196.84H169.188V201.538H173.886V196.84Z" fill="#263238"/>
<path d="M168.733 196.84H164.034V201.538H168.733V196.84Z" fill="#263238"/>
<path d="M216.209 196.84H211.511V201.538H216.209V196.84Z" fill="#263238"/>
<path d="M198.94 196.84H127.68L141.948 168.073H198.94V196.84Z" fill="#263238"/>
<path opacity="0.2" d="M198.94 196.84H127.68L141.948 168.073H198.94V196.84Z" fill="white"/>
<path opacity="0.2" d="M169.22 196.84H127.68L141.948 168.073H169.22V196.84Z" fill="white"/>
<path d="M219.777 193.642H119.845L117.229 199.572H222.392L219.777 193.642Z" fill="#263238"/>
<path opacity="0.2" d="M176.225 193.642H119.845L117.229 199.572H175.352L176.225 193.642Z" fill="white"/>
<path d="M190.853 120.131H152.045C150.254 120.131 148.803 121.583 148.803 123.373V124.594C148.803 126.385 150.254 127.836 152.045 127.836H190.853C192.644 127.836 194.096 126.385 194.096 124.594V123.373C194.096 121.583 192.644 120.131 190.853 120.131Z" fill="#D87C7F"/>
<path opacity="0.5" d="M190.853 120.131H152.045C150.254 120.131 148.803 121.583 148.803 123.373V124.594C148.803 126.385 150.254 127.836 152.045 127.836H190.853C192.644 127.836 194.096 126.385 194.096 124.594V123.373C194.096 121.583 192.644 120.131 190.853 120.131Z" fill="white"/>
<path opacity="0.5" d="M194.09 123.961C194.09 122.94 193.684 121.96 192.961 121.237C192.239 120.515 191.259 120.109 190.237 120.109H152.656C151.634 120.109 150.654 120.515 149.931 121.237C149.209 121.96 148.803 122.94 148.803 123.961H194.09Z" fill="white"/>
<path d="M172.035 120.853C168.402 123.11 164.432 124.773 160.275 125.781L151.315 127.948C150.553 126.212 147.989 122.662 143.005 113.024C142.4 112.034 141.861 111.005 141.392 109.944C140.345 107.671 139.538 105.295 138.984 102.855C138.658 101.439 138.431 100.002 138.306 98.5538C138.308 98.5408 138.308 98.5276 138.306 98.5146C138.155 98.2076 138.066 97.8734 138.046 97.5316C138.026 97.1899 138.074 96.8475 138.187 96.5246C138.301 96.2017 138.478 95.9048 138.708 95.6513C138.938 95.3978 139.217 95.1927 139.527 95.0482H139.572C140.804 94.4322 142.372 93.6986 143.929 93.0826C146.911 91.8911 149.954 90.8593 153.045 89.9914C154.088 89.7405 155.144 89.5535 156.209 89.4314C156.941 89.3158 157.69 89.3849 158.388 89.6323C159.087 89.8797 159.712 90.2977 160.208 90.8482C162.397 93.161 167.208 102.278 172.035 120.853Z" fill="#263238"/>
<g opacity="0.7">
<path d="M168.373 108.488C166.183 108.942 163.803 109.328 161.995 109.608C161.698 108.583 161.244 107.57 160.875 106.578L166.878 104.361C167.367 105.63 167.865 107.006 168.373 108.488Z" fill="white"/>
</g>
<path d="M150.639 93.5363C146.209 95.3171 143.644 93.1667 143.644 93.1667C144.955 90.5123 142.379 85.4275 140.704 82.7227L143.829 83.9155L148.085 85.5395C148.139 86.018 148.221 86.493 148.331 86.9619C148.406 87.2991 148.511 87.629 148.645 87.9475V87.9979C149.205 89.3251 150.325 90.2379 152.621 90.0139C152.632 90.0251 154.396 92.0019 150.639 93.5363Z" fill="#B25B52"/>
<path opacity="0.2" d="M148.074 85.5394C148.127 86.018 148.21 86.493 148.32 86.9618C148.395 87.2991 148.5 87.629 148.634 87.9474V87.9978C147.312 88.1602 145.234 87.4098 144.618 86.2058C144.416 85.8089 144.255 85.3923 144.137 84.9626L148.074 85.5394Z" fill="black"/>
<path d="M146.851 78.5452C146.851 78.5452 148.738 79.5028 149.175 77.1956C147.294 75.9636 147.82 75.4148 147.081 74.0876C146.708 73.2911 146.126 72.6104 145.397 72.1174C144.669 71.6245 143.821 71.3378 142.942 71.2876L141.621 72.1276C137.359 75.9356 146.851 78.5452 146.851 78.5452Z" fill="#263238"/>
<path d="M136.594 79.0656C136.153 77.6628 136.288 76.1426 136.969 74.8393C137.65 73.536 138.82 72.5564 140.223 72.116C144.456 70.6768 149.132 74.8656 151.008 78.2256C151.51 79.0877 151.766 80.0705 151.75 81.0677C151.734 82.065 151.446 83.0389 150.917 83.8843C150.388 84.7298 149.638 85.4148 148.748 85.8653C147.858 86.3158 146.862 86.5148 145.867 86.4408C142.793 86.2448 141.163 84.3968 138.123 81.4848C137.412 80.8244 136.885 79.9908 136.594 79.0656Z" fill="#B25B52"/>
<path d="M149.518 79.5083C148.177 80.0017 146.891 80.6342 145.682 81.3955C146.085 81.8296 146.631 82.1029 147.22 82.1647C147.809 82.2265 148.401 82.0726 148.885 81.7315C149.251 81.5431 149.528 81.2194 149.659 80.8293C149.79 80.4392 149.763 80.0135 149.585 79.6427L149.518 79.5083Z" fill="#263238"/>
<path d="M147.866 81.3619C148.386 81.019 149.01 80.8685 149.63 80.9363C149.481 81.2696 149.224 81.5435 148.902 81.7147C148.385 82.0608 147.762 82.2117 147.144 82.1403C147.289 81.8063 147.544 81.5317 147.866 81.3619Z" fill="#FF5652"/>
<path d="M149.4 79.5586C149.434 79.6812 149.435 79.8106 149.403 79.9336C149.37 80.0567 149.306 80.1688 149.216 80.2586C148.405 80.7218 147.554 81.1098 146.673 81.4178C146.534 81.4777 146.382 81.4999 146.231 81.4822C146.081 81.4645 145.938 81.4075 145.816 81.317C146.958 80.6285 148.157 80.0402 149.4 79.5586Z" fill="white"/>
<path d="M142.155 85.3213L138.039 83.0813C138.52 81.2906 139.286 79.5889 140.307 78.0413L140.52 78.1477L142.155 85.3213Z" fill="#B25B52"/>
<path opacity="0.2" d="M142.155 85.3213L138.039 83.0813C138.52 81.2906 139.286 79.5889 140.307 78.0413L140.52 78.1477L142.155 85.3213Z" fill="black"/>
<path d="M140.306 78.0747C139.285 79.6223 138.519 81.324 138.038 83.1147L135.468 81.7147L137.478 76.6299L140.306 78.0747Z" fill="#263238"/>
<path d="M148.03 78.9709C148.282 78.8451 148.503 78.6656 148.678 78.445C148.853 78.2244 148.978 77.9681 149.043 77.6941C147.926 77.4798 146.843 77.1163 145.823 76.6133L148.03 78.9709Z" fill="#9D2724"/>
<path d="M138.665 82.3139C139.471 81.6307 141.101 82.1515 141.975 82.7283C142.955 83.3723 143.179 84.4083 142.103 84.7667C141.225 85.02 140.286 84.9586 139.449 84.5931C138.396 84.1395 137.864 82.9971 138.665 82.3139Z" fill="#B25B52"/>
<path d="M143.739 77.8224C143.907 77.6824 144.26 77.7888 144.467 78.0184C144.674 78.248 144.724 78.5784 144.556 78.7184C144.388 78.8584 144.086 78.7576 143.834 78.528C143.582 78.2984 143.565 77.968 143.739 77.8224Z" fill="#263238"/>
<path d="M146.511 75.1683C146.684 75.0227 147.003 75.1067 147.239 75.3587C147.474 75.6107 147.524 75.9187 147.351 76.0755C147.177 76.2323 146.858 76.1315 146.623 75.8795C146.387 75.6275 146.343 75.3083 146.511 75.1683Z" fill="#263238"/>
<path d="M145.126 74.4851C145.159 74.4905 145.192 74.4883 145.223 74.4786C145.254 74.4688 145.282 74.4519 145.306 74.4291C145.473 74.2338 145.682 74.0785 145.918 73.9748C146.153 73.8711 146.409 73.8216 146.666 73.8299C146.691 73.8339 146.717 73.8328 146.742 73.8267C146.766 73.8207 146.789 73.8098 146.81 73.7946C146.83 73.7795 146.847 73.7605 146.86 73.7386C146.873 73.7168 146.881 73.6926 146.885 73.6675C146.89 73.6151 146.875 73.5628 146.842 73.5212C146.81 73.4796 146.763 73.4518 146.711 73.4435C146.394 73.4276 146.078 73.485 145.786 73.6113C145.495 73.7375 145.236 73.9292 145.031 74.1715C144.995 74.21 144.974 74.2612 144.974 74.3143C144.974 74.3675 144.995 74.4186 145.031 74.4571C145.061 74.4727 145.093 74.4822 145.126 74.4851Z" fill="#263238"/>
<path d="M142.485 78.0019C142.514 77.9874 142.539 77.9661 142.559 77.9398C142.578 77.9135 142.591 77.883 142.597 77.8507C142.605 77.5933 142.673 77.3412 142.794 77.1139C142.915 76.8867 143.087 76.6905 143.297 76.5403C143.32 76.5287 143.34 76.5124 143.356 76.4925C143.372 76.4726 143.384 76.4496 143.391 76.4248C143.398 76.4 143.4 76.3741 143.396 76.3487C143.392 76.3233 143.383 76.2989 143.369 76.2771C143.342 76.2322 143.297 76.2 143.246 76.1874C143.195 76.1749 143.14 76.1829 143.095 76.2099C142.831 76.3928 142.614 76.6339 142.458 76.9145C142.303 77.1952 142.214 77.5079 142.199 77.8283C142.198 77.8548 142.201 77.8813 142.21 77.9064C142.219 77.9314 142.232 77.9545 142.25 77.9742C142.268 77.994 142.289 78.0101 142.313 78.0216C142.337 78.0331 142.363 78.0397 142.389 78.0411C142.424 78.0363 142.457 78.0228 142.485 78.0019Z" fill="#263238"/>
<path d="M239.641 153.938L238.672 157.27L234.444 154.924L233.251 154.263L232.428 153.804L234.948 150.405L235.457 150.791L236.583 151.637L239.641 153.938Z" fill="#B25B52"/>
<path d="M247.155 151.888C245.985 153.361 244.854 154.649 244.003 155.707C242.614 157.432 242.166 158.149 241.102 159.532C240.974 159.692 240.789 159.795 240.587 159.821C240.384 159.847 240.18 159.794 240.015 159.672L237.215 157.119C237.159 157.061 237.127 156.984 237.127 156.903C237.127 156.822 237.159 156.745 237.215 156.687L239.455 153.479C239.87 153.134 240.339 152.861 240.844 152.672C242.367 152.28 243.532 152.241 246.327 149.9C246.478 149.795 246.662 149.75 246.844 149.774C247.027 149.798 247.193 149.889 247.312 150.029C247.665 150.387 247.816 151.071 247.155 151.888Z" fill="#263238"/>
<path opacity="0.2" d="M236.382 151.48L234.187 154.795L233.251 154.263L235.458 150.791L236.382 151.48Z" fill="black"/>
<path d="M235.81 150.231L232.836 154.924C232.836 154.924 216.16 148.528 201.566 134.92L201.611 134.68C193.323 136.763 169.052 137.127 165.155 133C163.105 130.726 161.666 128.312 161.308 125.339L165.155 124.062C167.182 123.239 170.688 121.996 171.836 120.618C171.836 120.618 193.911 121.968 202.994 126.252C212.514 129.757 235.81 150.231 235.81 150.231Z" fill="#D87C7F"/>
<g opacity="0.1">
<path d="M235.81 150.231L232.836 154.924C232.836 154.924 216.16 148.528 201.566 134.92L201.611 134.68C193.323 136.763 169.052 137.127 165.155 133C163.105 130.726 161.666 128.312 161.308 125.339L165.155 124.062C167.182 123.239 170.688 121.996 171.836 120.618C171.836 120.618 193.911 121.968 202.994 126.252C212.514 129.757 235.81 150.231 235.81 150.231Z" fill="black"/>
</g>
<path d="M235.138 159.118L233.245 162.064L228.955 159.925L227.466 159.174L229.717 155.45V155.445L235.138 159.118Z" fill="#B25B52"/>
<path opacity="0.2" d="M231.184 156.436L228.995 159.835L228.955 159.924L227.466 159.174L229.717 155.45L231.184 156.436Z" fill="black"/>
<path d="M230.489 154.974L230.31 155.293L227.415 159.952L198.552 141.881C190.001 144.569 160.831 144.838 156.502 140.761C156.18 140.449 155.875 140.12 155.589 139.775C155.275 139.423 154.99 139.053 154.721 138.683C154.72 138.672 154.72 138.661 154.721 138.65C153.585 136.772 152.745 134.73 152.229 132.596C151.807 131.006 151.487 129.389 151.271 127.758C159.475 126.134 169.348 123.519 171.851 120.601L176.779 128.105C185.079 128.911 197.673 130.905 200.949 132.221C211.119 135.329 230.489 154.974 230.489 154.974Z" fill="#D87C7F"/>
<path d="M155.588 139.781C155.281 139.427 154.996 139.053 154.737 138.661C154.989 139.081 155.275 139.428 155.588 139.781Z" fill="#D87C7F"/>
<path d="M242.477 156.004C242.264 156.307 242.046 156.598 241.844 156.889L241.816 156.928L241.178 157.785L240.892 158.166C240.747 158.368 240.59 158.586 240.422 158.804L240.086 159.252L239.414 160.182C238.07 162.08 237.644 162.859 236.614 164.371C236.491 164.544 236.306 164.663 236.097 164.702C235.888 164.742 235.672 164.7 235.494 164.584L232.901 162.472L232.42 162.08C232.387 162.053 232.36 162.02 232.34 161.983C232.321 161.945 232.309 161.904 232.305 161.862C232.301 161.82 232.306 161.777 232.319 161.737C232.332 161.696 232.353 161.659 232.38 161.627L234.52 158.127C234.935 157.743 235.41 157.429 235.925 157.197C237.499 156.693 238.725 156.581 241.497 153.96C242.08 153.378 243.597 154.397 242.477 156.004Z" fill="#263238"/>
<path d="M154.704 138.644C153.421 136.846 152.551 134.786 152.156 132.613H152.212C152.727 134.74 153.568 136.774 154.704 138.644Z" fill="#D87C7F"/>
<path d="M156.575 120.131H117.767C115.977 120.131 114.525 121.583 114.525 123.373V124.594C114.525 126.385 115.977 127.836 117.767 127.836H156.575C158.366 127.836 159.818 126.385 159.818 124.594V123.373C159.818 121.583 158.366 120.131 156.575 120.131Z" fill="#D87C7F"/>
<path opacity="0.5" d="M156.575 120.131H117.767C115.977 120.131 114.525 121.583 114.525 123.373V124.594C114.525 126.385 115.977 127.836 117.767 127.836H156.575C158.366 127.836 159.818 126.385 159.818 124.594V123.373C159.818 121.583 158.366 120.131 156.575 120.131Z" fill="white"/>
<path opacity="0.5" d="M159.818 123.961C159.818 122.94 159.412 121.96 158.689 121.237C157.967 120.515 156.987 120.109 155.965 120.109H118.383C117.877 120.108 117.375 120.207 116.907 120.4C116.439 120.594 116.014 120.877 115.655 121.235C115.297 121.593 115.013 122.018 114.819 122.486C114.625 122.954 114.525 123.455 114.525 123.961H159.818Z" fill="white"/>
<path d="M151.76 120.724C146.456 121.189 143.214 120.96 137.928 120.937C133.347 120.937 132.697 120.937 132.697 119.459C132.697 117.779 133.089 114.895 133.089 113.232C135.15 113.36 136.981 113.584 139.014 113.232L138.768 115.892C144.53 115.746 146.468 117.454 151.76 118.076V120.724Z" fill="#B25B52"/>
<path opacity="0.2" d="M142.239 111.641C140.784 108.876 139.699 105.931 139.014 102.883L140.134 102.222L142.239 111.641Z" fill="black"/>
<path d="M138.924 95.4519C136.83 95.8327 135.178 97.5575 134.338 99.5119C133.498 101.466 132.815 112.526 132.787 112.089H132.07L131.566 115.881C134.26 115.802 137.681 115.556 140.369 115.477C140.369 115.477 140.487 113.081 140.369 111.91L139.658 111.972L141.148 101.976C141.398 100.37 141.267 98.7282 140.767 97.1823C140.694 96.9387 140.594 96.7039 140.47 96.4823C140.128 95.9615 139.568 95.3343 138.924 95.4519Z" fill="#263238"/>
<path d="M162.847 117.88C162.847 118.427 162.685 118.962 162.381 119.417C162.076 119.872 161.644 120.227 161.138 120.436C160.632 120.645 160.076 120.7 159.539 120.593C159.002 120.485 158.509 120.221 158.123 119.834C157.736 119.446 157.473 118.953 157.367 118.416C157.261 117.879 157.316 117.323 157.527 116.817C157.737 116.312 158.092 115.88 158.548 115.577C159.004 115.273 159.539 115.112 160.086 115.113C160.819 115.115 161.521 115.407 162.039 115.926C162.557 116.444 162.847 117.147 162.847 117.88Z" fill="#D87C7F"/>
<path d="M159.828 122.326C160.624 122.249 161.404 122.061 162.147 121.766C162.305 121.697 162.448 121.596 162.566 121.47C162.685 121.345 162.777 121.197 162.837 121.035C162.897 120.873 162.924 120.7 162.916 120.528C162.908 120.355 162.865 120.186 162.791 120.03C162.684 119.795 162.572 119.56 162.438 119.325C161.71 119.683 160.825 120.092 160.064 119.801C158.585 119.241 157.723 117.936 156.144 117.902L151.428 118.126C151.213 118.957 151.19 119.827 151.361 120.669C154.061 121.726 156.929 122.288 159.828 122.326Z" fill="#B25B52"/>
<path d="M160.49 109.334L157.214 111.423C157.214 111.423 153.725 113.103 152.594 112.257C152.11 111.654 151.712 110.987 151.413 110.275C151.309 110.07 151.27 109.838 151.302 109.611C151.334 109.383 151.435 109.171 151.592 109.003L153.832 107.049C154.321 106.631 154.942 106.401 155.585 106.399H159.779L160.49 109.334Z" fill="#B25B52"/>
<path d="M174.383 106.321C174.346 106.377 174.303 106.428 174.254 106.472C174.201 106.527 174.143 106.575 174.08 106.618C174.014 106.674 173.942 106.725 173.867 106.769C173.494 106.993 173.101 107.181 172.691 107.329C172.579 107.374 172.456 107.424 172.327 107.463C172.199 107.503 172.075 107.559 171.935 107.598C171.667 107.682 171.375 107.771 171.084 107.85L170.787 107.928L169.947 108.147H169.858C169.382 108.259 168.883 108.371 168.379 108.477C168.321 108.494 168.261 108.505 168.2 108.511C166.52 108.864 164.695 109.171 163.16 109.407C162.953 109.44 162.746 109.474 162.555 109.496L161.995 109.58C161.699 108.55 160.511 106.646 160.142 105.66L166.151 103.471L167.5 102.978C167.5 102.978 166.022 100.632 165.551 99.9875C165.081 99.3435 164.706 98.8283 164.28 98.2403C162.455 94.4323 161.144 91.7667 159.666 90.5403C158.96 89.8777 158.045 89.4817 157.079 89.4203C157.079 89.4203 160.248 88.7035 161.312 89.0283C162.371 89.406 163.345 89.9882 164.179 90.7419C167.339 93.2622 170.096 96.2496 172.355 99.6011C172.395 99.6627 172.451 99.7411 172.501 99.8307C172.708 100.144 172.91 100.464 173.1 100.783C174.075 102.373 175.323 104.977 174.383 106.321Z" fill="#263238"/>
<path opacity="0.2" d="M166.526 101.438L164.885 99.1533C164.325 97.9045 163.827 96.7957 163.339 95.8213L163.983 96.4373C165.362 97.7761 166.256 99.5353 166.526 101.438Z" fill="black"/>
<path d="M163.603 110.678C162.491 110.327 161.315 110.223 160.159 110.376C159.543 108.64 158.873 106.924 158.148 105.229C159.212 104.754 160.348 104.463 161.508 104.367C162.186 106.428 163.306 108.539 163.603 110.678Z" fill="#263238"/>
<path opacity="0.1" d="M163.603 110.678C162.491 110.327 161.315 110.223 160.159 110.376C159.543 108.64 158.873 106.924 158.148 105.229C159.212 104.754 160.348 104.463 161.508 104.367C162.186 106.428 163.306 108.539 163.603 110.678Z" fill="white"/>
<path d="M135.699 81.8716C134.624 81.1268 134.136 79.7716 133.985 78.4724C133.834 77.1732 135.223 76.9212 135.066 75.622C134.909 74.3228 134.394 72.9676 133.308 72.262C134.243 72.514 135.43 72.3124 136.276 72.7828C135.688 71.7944 134.754 71.0598 133.655 70.722C135.179 70.6083 136.711 70.7773 138.174 71.2204C138.073 70.1004 137.054 68.6164 136.388 67.698L140.078 69.938C140.443 69.0903 140.486 68.1389 140.201 67.2612C141.355 68.5044 143.864 71.1364 143.864 71.1364L144.424 72.1668C142.184 72.3908 142.66 73.5892 142.66 73.5892C142.66 73.5892 137.541 73.9588 135.699 81.8716Z" fill="#263238"/>
<path opacity="0.1" d="M132.07 112.101L140.38 111.921L140.369 115.489L131.566 115.892L132.07 112.101Z" fill="white"/>
<path d="M63.0034 194.04L67.013 196.173L67.3938 189.812L63.2722 189.582L63.0034 194.04Z" fill="#F7978D"/>
<path d="M67.1986 195.159L62.9482 193.25C62.8734 193.217 62.7896 193.21 62.7103 193.23C62.6311 193.25 62.561 193.297 62.5114 193.362L60.2714 196.402C60.1765 196.536 60.1381 196.701 60.1643 196.862C60.1905 197.024 60.2793 197.168 60.4114 197.265L60.529 197.332C62.0242 197.97 62.769 198.206 64.6618 199.046C65.7818 199.561 68.7442 201.022 70.3402 201.734C71.9362 202.445 72.8378 200.967 72.2498 200.53C69.6066 198.575 68.2962 196.929 67.7362 195.669C67.6291 195.436 67.4366 195.254 67.1986 195.159Z" fill="#263238"/>
<path opacity="0.2" d="M67.3936 189.817L67.3208 191.889L63.1992 191.643L63.272 189.582L67.3936 189.817Z" fill="black"/>
<path d="M74.0423 100.144C74.8767 105.111 73.4039 129.264 71.8023 139.943C69.6967 154.1 68.0951 191.195 68.0951 191.195L62.5903 190.769C62.5903 190.769 60.9103 151.871 62.2319 140.498C61.8455 125.826 60.7031 100.178 60.7031 100.178L74.0423 100.144Z" fill="#D87C7F"/>
<path opacity="0.1" d="M74.0423 100.144C74.8767 105.111 73.4039 129.264 71.8023 139.943C69.6967 154.1 68.0951 191.195 68.0951 191.195L62.5903 190.769C62.5903 190.769 60.9103 151.871 62.2319 140.498C61.8455 125.826 60.7031 100.178 60.7031 100.178L74.0423 100.144Z" fill="black"/>
<path opacity="0.2" d="M61.3701 116.166C61.2357 112.447 63.9237 109.194 64.8645 116.222C65.4581 120.702 63.9405 128.486 62.0309 133.974C61.8461 128.222 61.5997 121.822 61.3701 116.166Z" fill="black"/>
<path d="M32.8374 184.245L35.9622 186.233L38.7734 181.708L35.6486 179.72L32.8374 184.245Z" fill="#F7978D"/>
<path d="M36.4442 186.16L33.0058 182.996C32.9485 182.941 32.8723 182.911 32.793 182.911C32.7138 182.911 32.6375 182.941 32.5802 182.996L29.7802 185.477C29.714 185.542 29.6615 185.62 29.6256 185.706C29.5898 185.792 29.5713 185.885 29.5713 185.978C29.5713 186.071 29.5898 186.163 29.6256 186.249C29.6615 186.336 29.714 186.414 29.7802 186.479C30.9898 187.566 31.6282 188.019 33.1402 189.419C34.0698 190.27 35.1842 191.486 36.4666 192.673C37.749 193.86 38.9194 192.594 38.4882 191.984C36.545 189.234 36.9482 188.282 36.7354 186.832C36.7116 186.583 36.6097 186.348 36.4442 186.16Z" fill="#263238"/>
<path opacity="0.2" d="M38.7724 181.714L37.5068 183.741L34.3428 181.652L35.642 179.72L38.7724 181.714Z" fill="black"/>
<path d="M65.8271 105.851C65.8271 105.851 60.6303 137.211 57.6175 149.066C55.4391 157.6 38.7511 183.002 38.7511 183.002L34.4839 180.459C34.4839 180.459 40.2239 159.353 49.3407 148.192C49.9007 134.937 48.7807 113.086 54.0335 105.895L65.8271 105.851Z" fill="#D87C7F"/>
<path opacity="0.1" d="M65.8271 105.851C65.8271 105.851 60.6303 137.211 57.6175 149.066C55.4391 157.6 38.7511 183.002 38.7511 183.002L34.4839 180.459C34.4839 180.459 40.2239 159.353 49.3407 148.192C49.9007 134.937 48.7807 113.086 54.0335 105.895L65.8271 105.851Z" fill="black"/>
<path d="M73.7064 79.5081C75.588 77.6041 77.352 75.6441 79.0768 73.6113C80.8016 71.5785 82.476 69.5121 84.044 67.3169L84.3408 66.9081L84.66 66.4321C84.8672 66.1129 85.0576 65.7937 85.22 65.4745C85.5672 64.8305 85.8584 64.1697 86.1552 63.5481C86.6945 62.2838 87.1674 60.9922 87.572 59.6785C88.351 57.1119 88.9406 54.4915 89.336 51.8385C89.4102 51.5474 89.3658 51.2388 89.2125 50.9804C89.0592 50.7221 88.8095 50.5352 88.5184 50.4609C88.2273 50.3867 87.9186 50.4311 87.6603 50.5844C87.4019 50.7378 87.215 50.9874 87.1408 51.2785C86.2672 53.6921 85.332 56.1337 84.3408 58.4577C83.8368 59.6281 83.288 60.7649 82.7056 61.8457C82.4144 62.4057 82.1064 62.8985 81.7872 63.3857C81.6304 63.6321 81.4624 63.8617 81.3 64.0857L81.048 64.4049L80.7568 64.7689C79.1328 66.7401 77.3968 68.6889 75.7168 70.6041C74.0368 72.5193 72.2056 74.4345 70.4528 76.3049C70.2351 76.5207 70.0629 76.7779 69.9463 77.0614C69.8296 77.3448 69.7709 77.6487 69.7735 77.9552C69.7762 78.2617 69.8402 78.5645 69.9617 78.8459C70.0833 79.1273 70.26 79.3814 70.4813 79.5934C70.7027 79.8054 70.9642 79.971 71.2506 80.0803C71.5369 80.1896 71.8422 80.2405 72.1485 80.2299C72.4549 80.2194 72.756 80.1476 73.0341 80.0188C73.3122 79.89 73.5618 79.7069 73.768 79.4801L73.7064 79.5081Z" fill="#F7978D"/>
<path d="M87.1754 52.1018L86.8506 48.4114L90.8042 50.041C90.8042 50.041 90.3618 52.2306 88.7154 53.093L87.1754 52.1018Z" fill="#F7978D"/>
<path d="M71.9306 73.0007C71.4434 72.3343 78.8018 66.6279 78.8018 66.6279L80.0786 74.8375C80.0786 74.8375 78.6114 77.8671 76.4778 79.5191C74.3442 81.1711 71.0458 75.6327 71.9306 73.0007Z" fill="#D87C7F"/>
<path d="M89.785 46.1544L91.2242 47.2744C91.385 47.3973 91.5008 47.5699 91.5535 47.7653C91.6061 47.9608 91.5927 48.1682 91.5154 48.3552L90.8042 50.0352L86.8506 48.4056L88.5026 46.3112C88.6526 46.1215 88.8714 45.9986 89.1116 45.9692C89.3517 45.9398 89.5937 46.0064 89.785 46.1544Z" fill="#F7978D"/>
<path d="M76.5917 75.6887C76.6589 83.9711 75.0517 90.4279 74.3517 96.1231C74.2621 96.8455 74.1221 99.2367 74.8277 104.221C75.3078 108.311 75.5807 112.423 75.6453 116.541L49.6221 114.9C50.4789 103.739 55.9613 96.9799 55.9557 95.4455C55.9557 90.8199 55.4517 86.0879 53.4357 77.0271C53.2139 76.0239 53.3996 74.9736 53.9519 74.1072C54.5043 73.2409 55.3781 72.6294 56.3813 72.4071C56.4973 72.3784 56.6152 72.3579 56.7341 72.3455C57.8541 72.1999 59.0357 72.0711 60.2621 72.0095C63.013 71.8023 65.7752 71.7911 68.5277 71.9759C70.4653 72.1439 72.5429 72.4687 74.0269 72.7151C74.7345 72.8328 75.3786 73.1947 75.8472 73.738C76.3157 74.2812 76.5791 74.9714 76.5917 75.6887Z" fill="#D87C7F"/>
<path d="M72.2397 82.9691H71.9037L71.4613 81.6363C71.4417 81.5772 71.4365 81.5142 71.4461 81.4526C71.4557 81.3911 71.4798 81.3327 71.5165 81.2823C71.5532 81.232 71.6014 81.1911 71.657 81.163C71.7126 81.135 71.7742 81.1206 71.8365 81.1211H72.3069C72.3692 81.1206 72.4307 81.135 72.4863 81.163C72.542 81.1911 72.5901 81.232 72.6268 81.2823C72.6635 81.3327 72.6876 81.3911 72.6973 81.4526C72.7069 81.5142 72.7017 81.5772 72.6821 81.6363L72.2397 82.9691Z" fill="#263238"/>
<path d="M72.0827 81.6024C72.593 81.6024 73.0067 81.1887 73.0067 80.6784C73.0067 80.1681 72.593 79.7544 72.0827 79.7544C71.5724 79.7544 71.1587 80.1681 71.1587 80.6784C71.1587 81.1887 71.5724 81.6024 72.0827 81.6024Z" fill="#D87C7F"/>
<path opacity="0.5" d="M72.0819 81.2498C72.3974 81.2498 72.6531 80.9941 72.6531 80.6786C72.6531 80.3632 72.3974 80.1074 72.0819 80.1074C71.7665 80.1074 71.5107 80.3632 71.5107 80.6786C71.5107 80.9941 71.7665 81.2498 72.0819 81.2498Z" fill="white"/>
<path d="M74.6239 82.3643H69.5447C69.1581 82.3643 68.8447 82.6777 68.8447 83.0643V85.7131C68.8447 86.0997 69.1581 86.4131 69.5447 86.4131H74.6239C75.0105 86.4131 75.3239 86.0997 75.3239 85.7131V83.0643C75.3239 82.6777 75.0105 82.3643 74.6239 82.3643Z" fill="#D87C7F"/>
<path opacity="0.8" d="M74.6239 82.3643H69.5447C69.1581 82.3643 68.8447 82.6777 68.8447 83.0643V85.7131C68.8447 86.0997 69.1581 86.4131 69.5447 86.4131H74.6239C75.0105 86.4131 75.3239 86.0997 75.3239 85.7131V83.0643C75.3239 82.6777 75.0105 82.3643 74.6239 82.3643Z" fill="white"/>
<path d="M74.5629 82.5884H69.5957C69.305 82.5884 69.0693 82.8241 69.0693 83.1148V85.6516C69.0693 85.9423 69.305 86.178 69.5957 86.178H74.5629C74.8537 86.178 75.0893 85.9423 75.0893 85.6516V83.1148C75.0893 82.8241 74.8537 82.5884 74.5629 82.5884Z" fill="#D87C7F"/>
<path opacity="0.5" d="M74.5629 82.5884H69.5957C69.305 82.5884 69.0693 82.8241 69.0693 83.1148V85.6516C69.0693 85.9423 69.305 86.178 69.5957 86.178H74.5629C74.8537 86.178 75.0893 85.9423 75.0893 85.6516V83.1148C75.0893 82.8241 74.8537 82.5884 74.5629 82.5884Z" fill="white"/>
<path d="M71.1577 83.1204H69.7017V84.7668H71.1577V83.1204Z" fill="#D87C7F"/>
<path d="M71.7738 83.6914C71.7397 83.6914 71.7069 83.6779 71.6827 83.6537C71.6586 83.6296 71.645 83.5968 71.645 83.5626C71.645 83.5285 71.6586 83.4957 71.6827 83.4716C71.7069 83.4474 71.7397 83.4338 71.7738 83.4338H74.4786C74.5128 83.4338 74.5455 83.4474 74.5697 83.4716C74.5938 83.4957 74.6074 83.5285 74.6074 83.5626C74.6074 83.5968 74.5938 83.6296 74.5697 83.6537C74.5455 83.6779 74.5128 83.6914 74.4786 83.6914H71.7738Z" fill="white"/>
<path d="M71.7738 85.3211C71.7397 85.3211 71.7069 85.3075 71.6827 85.2834C71.6586 85.2592 71.645 85.2264 71.645 85.1923C71.645 85.1581 71.6586 85.1254 71.6827 85.1012C71.7069 85.077 71.7397 85.0635 71.7738 85.0635H74.4786C74.5128 85.0635 74.5455 85.077 74.5697 85.1012C74.5938 85.1254 74.6074 85.1581 74.6074 85.1923C74.6074 85.2264 74.5938 85.2592 74.5697 85.2834C74.5455 85.3075 74.5128 85.3211 74.4786 85.3211H71.7738Z" fill="white"/>
<path d="M71.7738 84.5147C71.7397 84.5147 71.7069 84.5011 71.6827 84.4769C71.6586 84.4528 71.645 84.42 71.645 84.3859C71.645 84.3517 71.6586 84.319 71.6827 84.2948C71.7069 84.2706 71.7397 84.2571 71.7738 84.2571H74.4786C74.5128 84.2571 74.5455 84.2706 74.5697 84.2948C74.5938 84.319 74.6074 84.3517 74.6074 84.3859C74.6074 84.42 74.5938 84.4528 74.5697 84.4769C74.5455 84.5011 74.5128 84.5147 74.4786 84.5147H71.7738Z" fill="white"/>
<path opacity="0.4" d="M68.4971 71.9988C68.4971 71.9988 71.4259 74.1212 68.2059 79.2788C65.6746 76.7314 63.0168 74.3129 60.2427 72.0324L68.4971 71.9988Z" fill="white"/>
<path d="M58.0532 101.197H57.5604C57.4652 101.197 57.3868 101.146 57.3924 101.085L57.6164 98.968C57.6164 98.9064 57.7116 98.856 57.8068 98.856H58.3052C58.4004 98.856 58.4732 98.9008 58.4676 98.968L58.2492 101.079C58.238 101.146 58.154 101.197 58.0532 101.197Z" fill="#D87C7F"/>
<path d="M72.7482 101.147H72.2498C72.1546 101.147 72.0762 101.096 72.0818 101.035L72.3058 98.9179C72.3058 98.8563 72.401 98.8059 72.4962 98.8059H72.9946C73.0898 98.8059 73.1682 98.8563 73.157 98.9179L72.9386 101.035C72.9274 101.091 72.8434 101.141 72.7482 101.147Z" fill="#D87C7F"/>
<path d="M65.4008 101.169H64.9081C64.8073 101.169 64.7344 101.119 64.74 101.057L64.964 98.9401C64.964 98.8785 65.0536 98.8281 65.1544 98.8281H65.6472C65.7424 98.8281 65.8152 98.8785 65.8096 98.9401L65.5912 101.057C65.5758 101.094 65.5489 101.124 65.5146 101.145C65.4803 101.165 65.4404 101.173 65.4008 101.169Z" fill="#D87C7F"/>
<path d="M51.5967 77.6658C50.7399 79.7098 49.9727 81.7426 49.2503 83.8258C48.8975 84.8618 48.5447 85.8978 48.2423 87.001C47.9012 88.1236 47.63 89.2664 47.4303 90.4226C47.3708 90.7802 47.3334 91.1411 47.3183 91.5034C47.3071 91.7843 47.324 92.0657 47.3687 92.3434C47.3687 92.4498 47.4191 92.5618 47.4527 92.6682L47.5031 92.8642C47.5316 92.9509 47.5672 93.0352 47.6095 93.1162L47.6767 93.2506V93.3122V93.357L47.7383 93.4466C48.0799 93.9282 48.3823 94.4266 48.7631 94.8802C49.4858 95.8222 50.2877 96.7009 51.1599 97.5066C52.0525 98.3148 53.0352 99.0176 54.0887 99.601C54.6262 99.8987 55.1882 100.15 55.7687 100.351C56.0599 100.452 56.3623 100.547 56.6647 100.626L57.1407 100.721C57.3199 100.755 57.4487 100.771 57.7007 100.799L58.0255 98.5594C57.9519 98.5147 57.8751 98.4753 57.7959 98.4418L57.4935 98.2906C57.2919 98.1842 57.0903 98.0666 56.8943 97.9434C56.5 97.6767 56.1205 97.3889 55.7575 97.081C55.0191 96.4547 54.3388 95.7631 53.7247 95.0146C53.4279 94.617 53.1143 94.253 52.8399 93.8218C52.5655 93.3906 52.2799 93.0154 52.0279 92.6066C51.7759 92.1978 51.5351 91.7386 51.2775 91.3074V91.2234V91.1786V91.2178V91.3074C51.2775 91.3634 51.3335 91.4362 51.3447 91.4698C51.3477 91.5033 51.3477 91.537 51.3447 91.5706L51.3783 91.6994C51.3783 91.8002 51.3783 91.7722 51.3783 91.6994C51.3965 91.5195 51.4302 91.3415 51.4791 91.1674C51.7224 90.2014 52.014 89.2482 52.3527 88.3114C52.6943 87.3314 53.0527 86.329 53.4279 85.3378C54.1783 83.3498 54.9567 81.3338 55.7239 79.357L51.5967 77.6658Z" fill="#F7978D"/>
<path d="M63.1494 96.577L61.6206 96.0786C61.5103 96.041 61.3936 96.0256 61.2774 96.0335C61.1612 96.0413 61.0476 96.0722 60.9434 96.1243C60.8392 96.1764 60.7464 96.2487 60.6704 96.337C60.5943 96.4253 60.5366 96.5278 60.5006 96.6386C60.45 96.7913 60.4432 96.955 60.4808 97.1114C60.5184 97.2677 60.5989 97.4104 60.7134 97.5234L56.3566 110.963C56.2753 111.218 56.2979 111.495 56.4196 111.733C56.5413 111.971 56.7521 112.151 57.0062 112.235L57.3814 112.358C57.6361 112.439 57.9126 112.416 58.1507 112.295C58.3888 112.173 58.5692 111.962 58.6526 111.708L63.0094 98.2682C63.1671 98.2409 63.3145 98.1712 63.4359 98.0667C63.5572 97.9621 63.6478 97.8266 63.6982 97.6746C63.7693 97.4562 63.7516 97.2186 63.6489 97.0132C63.5462 96.8078 63.3668 96.6511 63.1494 96.577Z" fill="#D87C7F"/>
<path opacity="0.6" d="M63.1494 96.577L61.6206 96.0786C61.5103 96.041 61.3936 96.0256 61.2774 96.0335C61.1612 96.0413 61.0476 96.0722 60.9434 96.1243C60.8392 96.1764 60.7464 96.2487 60.6704 96.337C60.5943 96.4253 60.5366 96.5278 60.5006 96.6386C60.45 96.7913 60.4432 96.955 60.4808 97.1114C60.5184 97.2677 60.5989 97.4104 60.7134 97.5234L56.3566 110.963C56.2753 111.218 56.2979 111.495 56.4196 111.733C56.5413 111.971 56.7521 112.151 57.0062 112.235L57.3814 112.358C57.6361 112.439 57.9126 112.416 58.1507 112.295C58.3888 112.173 58.5692 111.962 58.6526 111.708L63.0094 98.2682C63.1671 98.2409 63.3145 98.1712 63.4359 98.0667C63.5572 97.9621 63.6478 97.8266 63.6982 97.6746C63.7693 97.4562 63.7516 97.2186 63.6489 97.0132C63.5462 96.8078 63.3668 96.6511 63.1494 96.577Z" fill="white"/>
<path d="M61.0391 96.0952C61.3856 96.399 61.8007 96.6142 62.2487 96.7224C62.675 96.8999 63.1387 96.9691 63.5983 96.924C63.4909 96.7601 63.3309 96.6376 63.1447 96.5768L61.6159 96.0784C61.4271 96.0194 61.224 96.0253 61.0391 96.0952Z" fill="#D87C7F"/>
<path d="M59.8302 104.227C59.4326 104.098 59.147 103.896 59.1806 103.767L56.795 111.131C56.7724 111.202 56.7639 111.276 56.77 111.349C56.776 111.423 56.7966 111.494 56.8304 111.56C56.8642 111.625 56.9107 111.684 56.9671 111.731C57.0235 111.779 57.0887 111.815 57.159 111.837L57.5342 111.955C57.6753 112 57.8289 111.989 57.9612 111.921C58.0935 111.854 58.1937 111.737 58.2398 111.596L60.6254 104.232C60.575 104.361 60.2222 104.361 59.8302 104.227Z" fill="#D87C7F"/>
<path d="M60.6236 104.232C60.5844 104.361 60.226 104.355 59.8284 104.232C59.4308 104.109 59.134 103.896 59.1788 103.767C59.2236 103.639 59.5764 103.639 59.974 103.767C60.3716 103.896 60.6684 104.103 60.6236 104.232Z" fill="#D87C7F"/>
<path opacity="0.3" d="M60.6236 104.232C60.5844 104.361 60.226 104.355 59.8284 104.232C59.4308 104.109 59.134 103.896 59.1788 103.767C59.2236 103.639 59.5764 103.639 59.974 103.767C60.3716 103.896 60.6684 104.103 60.6236 104.232Z" fill="black"/>
<g opacity="0.8">
<path d="M61.1052 97.7699C59.6642 102.224 58.2231 106.676 56.782 111.126C56.7736 111.18 56.7847 111.235 56.8133 111.281C56.8419 111.328 56.8861 111.363 56.938 111.38C56.9899 111.396 57.0461 111.394 57.0965 111.373C57.147 111.353 57.1883 111.314 57.2132 111.266C58.6506 106.812 60.0916 102.36 61.5364 97.9099C61.5448 97.856 61.5337 97.8008 61.5051 97.7544C61.4765 97.7079 61.4324 97.6731 61.3805 97.6562C61.3286 97.6394 61.2723 97.6416 61.2219 97.6624C61.1715 97.6832 61.1301 97.7213 61.1052 97.7699Z" fill="white"/>
</g>
<path d="M56.4136 100.586L60.4792 102.121L61.1288 98.2008C61.1288 98.2008 58.76 97.6408 57.3096 98.7608L56.4136 100.586Z" fill="#F7978D"/>
<path d="M62.9272 101.813L63.4872 100.396C63.5911 100.124 63.5849 99.8222 63.4699 99.5545C63.3549 99.2869 63.1401 99.0745 62.8712 98.9626L61.1184 98.2346L60.48 102.121L61.6 102.468C61.863 102.539 62.1429 102.512 62.3872 102.391C62.6315 102.27 62.8235 102.065 62.9272 101.813Z" fill="#F7978D"/>
<path d="M60.5693 74.5803C61.6893 79.3795 54.1349 87.4603 54.1349 87.4603L48.0029 80.8411C48.0029 80.8411 50.9597 74.7987 54.7229 72.9563C57.3381 71.6795 60.0765 72.4411 60.5693 74.5803Z" fill="#D87C7F"/>
<path d="M61.0396 62.7251C61.5996 65.3795 62.1148 70.2459 60.2612 72.0267C63.1082 73.204 65.7231 74.8784 67.9836 76.9715C70.0612 73.3035 68.5436 71.9931 68.5436 71.9931C65.5812 71.2987 65.6428 69.0979 66.1524 67.0315L61.0396 62.7251Z" fill="#F7978D"/>
<path opacity="0.2" d="M61.5986 63.1953C61.6427 64.7755 62.0246 66.3279 62.7186 67.7481C63.2058 68.7281 64.533 69.1593 65.877 69.2601C65.8448 68.5049 65.9298 67.7493 66.129 67.0201L61.5986 63.1953Z" fill="black"/>
<path d="M64.6445 50.4721C64.5213 50.1529 64.8853 49.8561 65.2045 49.7721C65.6636 49.656 66.1482 49.6955 66.5824 49.8844C67.0166 50.0733 67.3758 50.401 67.6038 50.816C67.8318 51.231 67.9157 51.7099 67.8422 52.1777C67.7688 52.6454 67.5423 53.0757 67.1981 53.4009C67.3101 53.1433 67.8309 52.8409 68.0773 52.9641C68.3111 53.1229 68.4785 53.362 68.5477 53.6361C68.6447 53.8657 68.6738 54.1183 68.6317 54.3641C68.6115 54.488 68.5532 54.6026 68.4649 54.6919C68.3766 54.7812 68.2626 54.8408 68.1389 54.8625C68.7116 55.3512 69.138 55.9889 69.3709 56.7049C69.4649 57.0701 69.4438 57.4555 69.3105 57.8083C69.1771 58.1611 68.9381 58.4642 68.6261 58.6761C69.2813 59.1633 69.8917 59.8297 69.8245 60.6417C69.7853 61.0513 69.6444 61.4446 69.4146 61.7859C69.1848 62.1272 68.8733 62.4057 68.5085 62.5961C68.8725 63.2905 69.5501 64.0577 69.2197 64.7633C68.8053 65.6425 67.4837 65.9281 67.2989 66.8801C67.6629 66.9753 68.0437 66.9977 68.4189 67.0929C68.538 67.337 68.5932 67.6073 68.5795 67.8786C68.5658 68.1498 68.4836 68.4132 68.3405 68.6441C68.1501 68.8793 67.7805 68.7281 67.4781 68.7169C67.328 68.6931 67.1743 68.7067 67.0307 68.7565C66.8871 68.8064 66.7581 68.8908 66.6549 69.0025C66.6058 69.0876 66.5799 69.1842 66.5799 69.2825C66.5799 69.3808 66.6058 69.4773 66.6549 69.5625C67.0963 69.787 67.5742 69.9311 68.0661 69.9881C67.6921 70.0749 67.3047 70.087 66.926 70.0236C66.5473 69.9602 66.185 69.8225 65.8597 69.6185C65.5389 69.4265 65.2695 69.1596 65.0744 68.8407C64.8793 68.5217 64.7645 68.1603 64.7397 67.7873C64.7397 66.7625 65.5181 65.9281 66.2629 65.2169C66.4085 65.0769 66.6157 64.8137 66.4365 64.7185C66.3433 64.6798 66.2434 64.6599 66.1425 64.6599C66.0416 64.6599 65.9417 64.6798 65.8485 64.7185C65.662 64.7999 65.4567 64.8289 65.2549 64.8025C64.9203 64.4409 64.6359 64.0359 64.4093 63.5985C64.1573 63.1652 64.0868 62.6499 64.2133 62.1649C64.3402 61.8294 64.5303 61.5214 64.7733 61.2577C64.9491 61.0136 65.1672 60.8031 65.4173 60.6361C65.7085 60.4681 66.1005 60.3617 66.1845 60.0369C66.2041 59.8985 66.1752 59.7577 66.1027 59.6382C66.0303 59.5188 65.9187 59.4281 65.7869 59.3817C65.5217 59.2921 65.2436 59.2467 64.9637 59.2473C64.6808 59.2463 64.4087 59.1382 64.2021 58.9449C63.9669 58.6761 63.6981 58.1553 63.8437 57.8249C63.9435 57.6623 64.0749 57.5214 64.2301 57.4105C64.7896 56.8335 65.1774 56.1122 65.3501 55.3273C65.3746 55.2508 65.3746 55.1686 65.3501 55.0921C65.2941 54.9129 65.0365 54.8961 64.8797 54.9969C64.7422 55.1185 64.6113 55.2475 64.4877 55.3833C64.3477 55.5009 64.1069 55.5513 63.9949 55.3833C63.6981 54.9969 60.9989 53.7873 63.2613 51.2057C63.4517 50.9873 63.4965 50.6737 63.7205 50.4889C63.8573 50.3993 64.0166 50.3502 64.1801 50.3473C64.3436 50.3443 64.5046 50.3876 64.6445 50.4721Z" fill="#263238"/>
<path d="M56.7765 59.4155C58.0813 63.6715 58.5125 65.4971 61.2565 67.1995C65.3277 69.7531 70.2669 67.2387 70.2837 62.7195C70.2837 58.6203 68.1613 52.3539 63.5637 51.6371C62.5425 51.472 61.496 51.5708 60.5238 51.9242C59.5515 52.2776 58.6858 52.8738 58.009 53.6561C57.3322 54.4384 56.8667 55.3809 56.6569 56.3939C56.447 57.4068 56.4998 58.4567 56.8101 59.4435L56.7765 59.4155Z" fill="#F7978D"/>
<path d="M55.1363 51.9449C55.1867 51.6033 54.7611 51.3849 54.4195 51.3849C53.9439 51.3731 53.4779 51.5201 53.0953 51.8028C52.7126 52.0855 52.435 52.4876 52.3066 52.9457C52.1781 53.4038 52.2059 53.8916 52.3858 54.3321C52.5656 54.7726 52.8872 55.1405 53.2995 55.3777C53.1315 55.1481 52.5547 54.9577 52.3475 55.1481C52.1567 55.3567 52.0473 55.6271 52.0395 55.9097C51.9991 56.1573 52.0282 56.4113 52.1235 56.6433C52.1744 56.7575 52.2579 56.8541 52.3635 56.9208C52.4692 56.9876 52.5922 57.0216 52.7171 57.0185C52.2734 57.6252 52.0042 58.3418 51.9387 59.0905C51.9323 59.4679 52.0423 59.838 52.2538 60.1507C52.4652 60.4633 52.7678 60.7032 53.1203 60.8377C52.5939 61.4649 52.1515 62.2489 52.4035 63.0273C52.5351 63.4168 52.7617 63.7672 53.0629 64.0468C53.3641 64.3265 53.7303 64.5266 54.1283 64.6289C53.9323 65.3849 53.4451 66.3089 53.9323 66.9025C54.5371 67.6641 55.8867 67.6361 56.2843 68.5209C55.9539 68.6945 55.5899 68.8066 55.2595 68.9802C55.1961 69.2445 55.2025 69.5208 55.2781 69.782C55.3537 70.0431 55.4959 70.2801 55.6907 70.4697C55.9259 70.6601 56.2507 70.4249 56.5419 70.3465C56.6829 70.2893 56.8358 70.2676 56.9871 70.2832C57.1384 70.2988 57.2836 70.3513 57.4099 70.4361C57.4839 70.5068 57.537 70.5963 57.5637 70.6951C57.5903 70.7938 57.5895 70.8979 57.5611 70.9961C57.4995 71.1921 56.5251 71.6458 56.2843 71.7354C57.061 71.7314 57.8043 71.4192 58.3507 70.8674C58.6185 70.6081 58.8191 70.2875 58.9352 69.9333C59.0513 69.5791 59.0794 69.202 59.0171 68.8345C58.7987 67.8321 57.8299 67.1994 56.9451 66.6786C56.7715 66.5778 56.5083 66.3705 56.6595 66.2361C56.8238 66.1254 57.0234 66.0795 57.2195 66.1073C57.4182 66.1474 57.6241 66.1299 57.8131 66.057C58.0625 65.6298 58.251 65.1699 58.3731 64.6906C58.4467 64.4536 58.4727 64.2045 58.4497 63.9575C58.4266 63.7105 58.3549 63.4705 58.2387 63.2513C58.0356 62.951 57.7748 62.6941 57.4715 62.4954C57.2419 62.3009 56.9805 62.1475 56.6987 62.0417C56.3795 61.9465 55.9707 61.9354 55.8195 61.6386C55.7674 61.508 55.7623 61.3633 55.8052 61.2295C55.8482 61.0956 55.9364 60.9808 56.0547 60.9049C56.2941 60.7588 56.5548 60.6511 56.8275 60.5857C57.1021 60.521 57.3421 60.355 57.4995 60.1209C57.607 59.9474 57.6717 59.7507 57.6883 59.5472C57.7048 59.3437 57.6728 59.1392 57.5947 58.9505C57.4596 58.8141 57.2975 58.7073 57.1187 58.6369C56.4538 58.1936 55.9216 57.5781 55.5787 56.8561C55.5322 56.7903 55.505 56.7127 55.5003 56.6321C55.5003 56.4473 55.7635 56.3689 55.9371 56.4305C56.1003 56.5169 56.2575 56.6142 56.4075 56.7217C56.5755 56.8057 56.8163 56.7945 56.8947 56.6265C57.0907 56.1897 59.4427 54.3865 56.6483 52.3929C56.4187 52.2249 56.2955 51.9281 56.0435 51.8049C55.8945 51.7405 55.7303 51.7194 55.5698 51.7442C55.4093 51.769 55.259 51.8386 55.1363 51.9449Z" fill="#263238"/>
<path d="M59.5719 50.73C62.4223 48.1148 65.5639 49.1676 67.2103 50.0244C68.0382 50.4605 68.7651 51.0657 69.344 51.8008C69.9228 52.536 70.3406 53.3846 70.5703 54.2916C70.7439 55.0028 70.5703 56.6492 69.1871 57.0916C68.8022 56.2633 68.2624 55.5163 67.5967 54.8908C66.5663 54.0732 64.6399 53.9892 63.8727 54.2188C63.1297 55.98 62.1191 57.6158 60.8767 59.0684C59.6559 60.418 57.8583 61.3756 56.0607 61.1236C55.2199 60.0892 54.6749 58.8464 54.4836 57.5271C54.2923 56.2079 54.4619 54.8614 54.9743 53.6308C56.0775 51.2116 59.5719 50.73 59.5719 50.73Z" fill="#263238"/>
<path d="M55.8143 61.801C55.9365 62.2116 56.1397 62.5936 56.4118 62.9245C56.684 63.2553 57.0197 63.5283 57.3991 63.7274C58.4071 64.2426 59.1463 63.4026 59.0791 62.3274C59.0007 61.3586 58.3791 59.9194 57.2703 59.841C57.03 59.8297 56.7907 59.8781 56.5738 59.9819C56.3568 60.0857 56.1689 60.2416 56.0269 60.4358C55.8849 60.6299 55.7932 60.8562 55.76 61.0944C55.7268 61.3327 55.7532 61.5754 55.8367 61.801H55.8143Z" fill="#F7978D"/>
<path d="M63.3892 59.1744C63.4732 59.5272 63.7252 59.768 63.9492 59.7344C64.1732 59.7008 64.2908 59.348 64.2124 59.0008C64.134 58.6536 63.8708 58.4072 63.6524 58.4408C63.434 58.4744 63.3052 58.8216 63.3892 59.1744Z" fill="#263238"/>
<path d="M67.3686 58.2337C67.447 58.5865 67.699 58.8273 67.9286 58.7937C68.1582 58.7601 68.2758 58.4129 68.1918 58.0545C68.1078 57.6961 67.8558 57.4665 67.6318 57.4945C67.4078 57.5225 67.279 57.8809 67.3686 58.2337Z" fill="#263238"/>
<path d="M67.5347 57.5396L68.3187 57.0972C68.3187 57.0972 68.0443 57.8812 67.5347 57.5396Z" fill="#263238"/>
<path d="M66.4702 59.085C66.9734 59.8118 67.5724 60.4673 68.251 61.0338C68.1063 61.2098 67.9241 61.3515 67.7178 61.4483C67.5115 61.5452 67.2861 61.5949 67.0582 61.5938L66.4702 59.085Z" fill="#FF5652"/>
<path d="M66.1845 62.921C66.2021 62.9056 66.2142 62.8849 66.2188 62.862C66.2235 62.8391 66.2205 62.8153 66.2103 62.7943C66.2001 62.7733 66.1833 62.7562 66.1624 62.7457C66.1416 62.7352 66.1178 62.7318 66.0949 62.7362C65.6635 62.8641 65.208 62.8886 64.7654 62.8079C64.3227 62.7271 63.9053 62.5433 63.5469 62.2714C63.5256 62.2576 63.5 62.252 63.4749 62.2554C63.4498 62.2588 63.4267 62.271 63.4098 62.2899C63.393 62.3088 63.3834 62.3332 63.3828 62.3585C63.3823 62.3838 63.3908 62.4085 63.4069 62.4282C63.7899 62.729 64.2401 62.9325 64.719 63.0213C65.1978 63.1101 65.6911 63.0814 66.1565 62.9378L66.1845 62.921Z" fill="#263238"/>
<path d="M62.159 58.0377C62.189 58.0152 62.2138 57.9866 62.2318 57.9537C62.3311 57.7073 62.4875 57.488 62.688 57.3137C62.8885 57.1395 63.1275 57.0153 63.3854 56.9513C63.4137 56.9478 63.4411 56.9386 63.4658 56.9243C63.4905 56.9099 63.5121 56.8908 63.5293 56.8679C63.5464 56.8451 63.5588 56.819 63.5657 56.7913C63.5725 56.7636 63.5737 56.7347 63.5692 56.7065C63.5647 56.6783 63.5546 56.6513 63.5394 56.6271C63.5242 56.6029 63.5043 56.582 63.4809 56.5656C63.4575 56.5493 63.431 56.5378 63.403 56.5319C63.3751 56.526 63.3462 56.5258 63.3182 56.5313C62.9899 56.6061 62.6843 56.7585 62.427 56.9758C62.1698 57.1931 61.9684 57.4689 61.8398 57.7801C61.8289 57.8062 61.8232 57.8342 61.8232 57.8625C61.8233 57.8907 61.8289 57.9187 61.8398 57.9448C61.8508 57.9709 61.8668 57.9945 61.887 58.0143C61.9072 58.0341 61.9311 58.0497 61.9574 58.0601C61.99 58.0745 62.0258 58.0801 62.0612 58.0761C62.0966 58.0722 62.1304 58.0589 62.159 58.0377Z" fill="#263238"/>
<path d="M68.4969 56.5203H68.5249C68.5449 56.5005 68.5607 56.477 68.5716 56.451C68.5824 56.4251 68.588 56.3972 68.588 56.3691C68.588 56.341 68.5824 56.3132 68.5716 56.2872C68.5607 56.2612 68.5449 56.2377 68.5249 56.2179C68.2855 55.9884 67.9957 55.8183 67.6786 55.721C67.3616 55.6238 67.0262 55.6021 66.6993 55.6579C66.6455 55.6712 66.599 55.705 66.5697 55.7521C66.5404 55.7991 66.5307 55.8558 66.5425 55.9099C66.5491 55.9371 66.561 55.9628 66.5775 55.9855C66.594 56.0081 66.6148 56.0272 66.6387 56.0418C66.6627 56.0564 66.6892 56.0661 66.7169 56.0704C66.7446 56.0746 66.7729 56.0734 66.8001 56.0667C67.0627 56.0219 67.3322 56.0402 67.5863 56.12C67.8404 56.1998 68.0719 56.339 68.2617 56.5259C68.2966 56.5497 68.338 56.562 68.3802 56.561C68.4224 56.56 68.4632 56.5458 68.4969 56.5203Z" fill="#263238"/>
<path d="M63.5596 58.4856L64.3492 58.0376C64.3492 58.0376 64.0748 58.8048 63.5596 58.4856Z" fill="#263238"/>
<path d="M106.403 185.858C106.18 185.858 105.967 185.77 105.809 185.612C105.651 185.455 105.563 185.241 105.563 185.018V26.0341C105.563 25.8113 105.651 25.5977 105.809 25.4401C105.967 25.2826 106.18 25.1941 106.403 25.1941C106.626 25.1941 106.839 25.2826 106.997 25.4401C107.154 25.5977 107.243 25.8113 107.243 26.0341V185.001C107.245 185.113 107.225 185.224 107.184 185.328C107.143 185.432 107.081 185.526 107.003 185.606C106.925 185.686 106.831 185.749 106.728 185.793C106.625 185.836 106.515 185.858 106.403 185.858Z" fill="#263238"/>
<path d="M126.416 35.4085H86.55C86.3272 35.4085 86.1135 35.32 85.956 35.1625C85.7985 35.005 85.71 34.7913 85.71 34.5685C85.71 34.3457 85.7985 34.1321 85.956 33.9745C86.1135 33.817 86.3272 33.7285 86.55 33.7285H126.416C126.639 33.7285 126.853 33.817 127.01 33.9745C127.168 34.1321 127.256 34.3457 127.256 34.5685C127.256 34.7913 127.168 35.005 127.01 35.1625C126.853 35.32 126.639 35.4085 126.416 35.4085Z" fill="#263238"/>
<path d="M95.2025 194.18L104.566 193.255V178.135H108.278V193.255L117.681 194.18C118.131 194.224 118.548 194.435 118.852 194.77C119.155 195.105 119.322 195.542 119.322 195.994V197.4H93.5225V195.994C93.5225 195.535 93.6956 195.094 94.007 194.758C94.3185 194.421 94.7454 194.215 95.2025 194.18Z" fill="#263238"/>
<path opacity="0.2" d="M95.2025 194.18L104.566 193.255V178.135H108.278V193.255L117.681 194.18C118.131 194.224 118.548 194.435 118.852 194.77C119.155 195.105 119.322 195.542 119.322 195.994V197.4H93.5225V195.994C93.5225 195.535 93.6956 195.094 94.007 194.758C94.3185 194.421 94.7454 194.215 95.2025 194.18Z" fill="white"/>
<path d="M115.89 199.141C115.889 199.622 116.03 200.093 116.297 200.493C116.563 200.894 116.942 201.206 117.386 201.391C117.83 201.576 118.319 201.624 118.791 201.531C119.263 201.438 119.696 201.207 120.037 200.867C120.377 200.528 120.609 200.095 120.703 199.623C120.798 199.152 120.75 198.663 120.566 198.218C120.382 197.774 120.071 197.394 119.671 197.127C119.271 196.859 118.801 196.717 118.32 196.717C118.001 196.716 117.685 196.778 117.39 196.9C117.096 197.021 116.828 197.2 116.602 197.425C116.376 197.65 116.197 197.918 116.075 198.212C115.953 198.507 115.89 198.822 115.89 199.141Z" fill="#263238"/>
<path d="M96.9614 199.141C96.9625 199.623 96.8207 200.093 96.5541 200.494C96.2875 200.894 95.908 201.207 95.4636 201.391C95.0193 201.576 94.5302 201.625 94.0582 201.531C93.5862 201.437 93.1527 201.206 92.8124 200.865C92.4722 200.525 92.2406 200.092 92.147 199.62C92.0534 199.148 92.102 198.659 92.2867 198.214C92.4713 197.77 92.7837 197.39 93.1842 197.124C93.5847 196.857 94.0554 196.715 94.5366 196.717C94.855 196.717 95.1703 196.779 95.4645 196.901C95.7587 197.023 96.026 197.202 96.2512 197.427C96.4763 197.652 96.6549 197.919 96.7768 198.213C96.8987 198.508 96.9614 198.823 96.9614 199.141Z" fill="#263238"/>
<path d="M101.165 57.3548C100.499 58.6372 99.4852 59.7628 99.2444 59.7628C99.1604 59.7628 99.054 59.998 98.9476 60.3228C98.801 60.7526 98.5221 61.1249 98.1509 61.3865C97.7797 61.648 97.3352 61.7854 96.8812 61.7788H92.1716C91.7175 61.7854 91.2731 61.648 90.9018 61.3865C90.5306 61.1249 90.2518 60.7526 90.1052 60.3228C90.0044 60.0148 89.898 59.7628 89.8084 59.7628C89.5564 59.7628 88.554 58.6428 87.8876 57.3548C87.2212 56.0668 87.9716 51.2564 88.3076 49.4084C88.6436 47.5604 87.2212 43.5508 88.3076 41.9436C89.2372 40.566 99.8156 40.566 100.745 41.9436C101.832 43.5508 100.415 47.5436 100.745 49.4084C101.076 51.2732 101.832 56.0724 101.165 57.3548Z" fill="#D87C7F"/>
<path opacity="0.5" d="M101.165 57.3548C100.499 58.6372 99.4852 59.7628 99.2444 59.7628C99.1604 59.7628 99.054 59.998 98.9476 60.3228C98.801 60.7526 98.5221 61.1249 98.1509 61.3865C97.7797 61.648 97.3352 61.7854 96.8812 61.7788H92.1716C91.7175 61.7854 91.2731 61.648 90.9018 61.3865C90.5306 61.1249 90.2518 60.7526 90.1052 60.3228C90.0044 60.0148 89.898 59.7628 89.8084 59.7628C89.5564 59.7628 88.554 58.6428 87.8876 57.3548C87.2212 56.0668 87.9716 51.2564 88.3076 49.4084C88.6436 47.5604 87.2212 43.5508 88.3076 41.9436C89.2372 40.566 99.8156 40.566 100.745 41.9436C101.832 43.5508 100.415 47.5436 100.745 49.4084C101.076 51.2732 101.832 56.0724 101.165 57.3548Z" fill="white"/>
<path d="M96.3218 38.9868H92.6874L91.5674 41.0924H97.4418L96.3218 38.9868ZM94.5858 40.5212C93.6618 40.5212 92.9058 40.286 92.9058 40.006C92.9058 39.726 93.6562 39.4908 94.5858 39.4908C95.5154 39.4908 96.2658 39.7204 96.2658 40.006C96.2658 40.2916 95.5098 40.5212 94.5858 40.5212Z" fill="#D87C7F"/>
<path d="M89.2433 49.4141C89.5345 47.7341 88.2969 44.1109 89.2433 42.6549C90.0553 41.4061 99.2561 41.4061 100.074 42.6549C101.015 44.1109 99.7825 47.7397 100.074 49.4141C100.365 51.0885 101.015 55.4453 100.432 56.6101C99.8497 57.7749 98.9817 58.7885 98.7521 58.7885C98.6793 58.7885 98.5841 59.0069 98.4945 59.2869C98.4017 59.5863 98.2351 59.8576 98.01 60.0758C97.785 60.294 97.5087 60.4521 97.2065 60.5357L97.2625 63.4421C97.2625 63.5668 97.213 63.6865 97.1247 63.7747C97.0365 63.8629 96.9169 63.9125 96.7921 63.9125C96.6668 63.9125 96.5466 63.8631 96.4575 63.775C96.3684 63.687 96.3176 63.5673 96.3161 63.4421L96.2769 61.1685C96.2769 61.0199 96.2179 60.8775 96.1129 60.7725C96.0079 60.6675 95.8654 60.6085 95.7169 60.6085H95.6665C95.518 60.6085 95.3756 60.6675 95.2705 60.7725C95.1655 60.8775 95.1065 61.0199 95.1065 61.1685L95.1457 63.4085C95.1457 63.5332 95.0962 63.6529 95.0079 63.7411C94.9197 63.8293 94.8001 63.8789 94.6753 63.8789C94.5506 63.8789 94.4309 63.8293 94.3427 63.7411C94.2545 63.6529 94.2049 63.5332 94.2049 63.4085L94.1601 61.1349C94.1601 60.9863 94.1011 60.8439 93.9961 60.7389C93.8911 60.6339 93.7486 60.5749 93.6001 60.5749H93.2977C93.1492 60.5749 93.0068 60.6339 92.9017 60.7389C92.7967 60.8439 92.7377 60.9863 92.7377 61.1349L92.7825 63.3749C92.7698 63.4915 92.7145 63.5993 92.6272 63.6777C92.5398 63.756 92.4266 63.7993 92.3093 63.7993C92.192 63.7993 92.0788 63.756 91.9915 63.6777C91.9042 63.5993 91.8488 63.4915 91.8361 63.3749L91.7801 60.3229C91.5605 60.2064 91.3661 60.0473 91.2085 59.8551C91.0508 59.6628 90.9329 59.4411 90.8617 59.2029C90.7721 58.9229 90.6769 58.7045 90.6041 58.7045C90.3857 58.7045 89.5121 57.6853 88.9241 56.5261C88.3361 55.3669 88.9913 50.9989 89.2825 49.3301" fill="white"/>
<path d="M98.7248 46.6813C98.7248 47.0509 98.4336 47.2413 97.868 47.2413H96.748V45.1021H97.7896C98.3496 45.1021 98.6017 45.3261 98.6017 45.6621C98.6041 45.7596 98.5784 45.8557 98.5278 45.9391C98.4772 46.0225 98.4037 46.0896 98.316 46.1325C98.4353 46.1659 98.5401 46.2379 98.614 46.3372C98.688 46.4364 98.727 46.5575 98.7248 46.6813ZM97.2576 45.4997V46.0037H97.7505C97.9913 46.0037 98.1201 45.9141 98.1201 45.7461C98.1201 45.5781 97.9913 45.4997 97.7505 45.4997H97.2576ZM98.2264 46.6197C98.2264 46.4405 98.092 46.3565 97.8344 46.3565H97.2744V46.8829H97.8344C98.092 46.8829 98.2264 46.8045 98.2264 46.6197Z" fill="black"/>
<path d="M100.074 49.4141C100.359 51.0941 101.015 55.4453 100.432 56.6101C99.8497 57.7749 98.9817 58.7885 98.7521 58.7885C98.6793 58.7885 98.5841 59.0069 98.4945 59.2869C98.4017 59.5863 98.2351 59.8576 98.01 60.0758C97.785 60.294 97.5087 60.4521 97.2065 60.5357L97.2625 63.4421C97.2625 63.5668 97.213 63.6865 97.1247 63.7747C97.0365 63.8629 96.9169 63.9125 96.7921 63.9125C96.6668 63.9125 96.5466 63.8631 96.4575 63.775C96.3684 63.687 96.3176 63.5673 96.3161 63.4421L96.2769 61.1685C96.2769 61.02 96.2179 60.8775 96.1129 60.7725C96.0079 60.6675 95.8654 60.6085 95.7169 60.6085H95.6665C95.518 60.6085 95.3756 60.6675 95.2705 60.7725C95.1655 60.8775 95.1065 61.02 95.1065 61.1685L95.1457 63.4085C95.1457 63.5332 95.0962 63.6529 95.0079 63.7411C94.9197 63.8293 94.8001 63.8789 94.6753 63.8789C94.5506 63.8789 94.4309 63.8293 94.3427 63.7411C94.2545 63.6529 94.2049 63.5332 94.2049 63.4085L94.1601 61.1349C94.1601 60.9864 94.1011 60.8439 93.9961 60.7389C93.8911 60.6339 93.7486 60.5749 93.6001 60.5749H93.2977C93.1492 60.5749 93.0068 60.6339 92.9017 60.7389C92.7967 60.8439 92.7377 60.9864 92.7377 61.1349L92.7825 63.3749C92.7698 63.4915 92.7145 63.5993 92.6272 63.6777C92.5398 63.756 92.4266 63.7993 92.3093 63.7993C92.192 63.7993 92.0788 63.756 91.9915 63.6777C91.9042 63.5993 91.8488 63.4915 91.8361 63.3749L91.7801 60.3229C91.5605 60.2064 91.3661 60.0474 91.2085 59.8551C91.0508 59.6628 90.9329 59.4411 90.8617 59.2029C90.7721 58.9229 90.6769 58.7045 90.6041 58.7045C90.3857 58.7045 89.5121 57.6853 88.9241 56.5261C88.3361 55.3669 88.9913 50.9989 89.2825 49.3301C90.9444 50.2339 92.806 50.7074 94.6977 50.7074C96.5894 50.7074 98.4511 50.2339 100.113 49.3301L100.074 49.4141Z" fill="#D87C7F"/>
<path opacity="0.2" d="M91.4614 62.7141H93.063V63.6941C93.0615 63.858 92.9954 64.0147 92.879 64.13C92.7626 64.2454 92.6053 64.3101 92.4414 64.3101H92.0774C91.914 64.3101 91.7574 64.2452 91.6418 64.1297C91.5263 64.0142 91.4614 63.8575 91.4614 63.6941V62.7141Z" fill="white"/>
<path opacity="0.2" d="M96.0083 62.7141H97.6043V63.6941C97.6043 63.8575 97.5394 64.0142 97.4239 64.1297C97.3084 64.2452 97.1517 64.3101 96.9883 64.3101H96.6243C96.4609 64.3101 96.3042 64.2452 96.1887 64.1297C96.0732 64.0142 96.0083 63.8575 96.0083 63.6941V62.7141Z" fill="white"/>
<path d="M96.3885 40.7731C95.8201 40.7716 95.2754 40.5452 94.8735 40.1433C94.4716 39.7414 94.2451 39.1967 94.2437 38.6283V34.5683C94.2437 34.4941 94.2732 34.4229 94.3257 34.3703C94.3782 34.3178 94.4494 34.2883 94.5237 34.2883C94.5979 34.2883 94.6691 34.3178 94.7216 34.3703C94.7742 34.4229 94.8037 34.4941 94.8037 34.5683V38.6283C94.8037 39.0486 94.9706 39.4517 95.2678 39.749C95.565 40.0462 95.9681 40.2131 96.3885 40.2131C96.8088 40.2131 97.2119 40.0462 97.5091 39.749C97.8063 39.4517 97.9733 39.0486 97.9733 38.6283V38.1243C97.9733 38.0501 98.0028 37.9788 98.0553 37.9263C98.1078 37.8738 98.179 37.8443 98.2533 37.8443C98.3275 37.8443 98.3987 37.8738 98.4512 37.9263C98.5038 37.9788 98.5333 38.0501 98.5333 38.1243V38.6283C98.5318 39.1967 98.3053 39.7414 97.9034 40.1433C97.5015 40.5452 96.9568 40.7716 96.3885 40.7731Z" fill="#D87C7F"/>
<path d="M139.009 116.749H131.169C126.341 116.75 121.56 115.8 117.099 113.953C112.637 112.106 108.584 109.398 105.17 105.984C101.756 102.57 99.0478 98.5166 97.2008 94.0555C95.3537 89.5944 94.4038 84.8131 94.4053 79.9848V63.6104H94.9653V79.9848C94.9638 84.7395 95.8992 89.448 97.7181 93.8412C99.537 98.2343 102.204 102.226 105.566 105.588C108.928 108.95 112.92 111.617 117.313 113.436C121.706 115.255 126.414 116.19 131.169 116.189H139.009V116.749Z" fill="#D87C7F"/>
<path d="M141.111 116.978H136.889L137.202 115.959H141.363L141.111 116.978Z" fill="white"/>
<path d="M140.673 115.438C139.816 115.729 138.876 117.18 138.786 117.919H137.834C137.834 117.084 138.825 115.679 139.727 115.438H140.673Z" fill="#D87C7F"/>
</svg>
